<?xml version="1.0" standalone="no"?>
<!DOCTYPE svg PUBLIC "-//W3C//DTD SVG 1.1//EN" "http://www.w3.org/Graphics/SVG/1.1/DTD/svg11.dtd" >
<svg xmlns="http://www.w3.org/2000/svg">
<metadata>
<json>
<![CDATA[
{
	"fontFamily": "oneicons",
	"majorVersion": 1,
	"minorVersion": 0,
	"version": "Version 1.0",
	"fontId": "oneicons",
	"psName": "oneicons",
	"subFamily": "Regular",
	"fullName": "oneicons",
	"description": "Font generated by IcoMoon."
}
]]>
</json>
</metadata>
<defs>
<font id="oneicons" horiz-adv-x="1024">
<font-face units-per-em="1024" ascent="1024" descent="0" />
<missing-glyph horiz-adv-x="1024" />
<glyph unicode="&#x20;" horiz-adv-x="0" d="" />
<glyph unicode="&#xe900;" glyph-name="add-filled" data-tags="add-filled" d="M512 826.4c-173.638 0-314.4-140.762-314.4-314.4s140.762-314.4 314.4-314.4c173.638 0 314.4 140.762 314.4 314.4v0c0 173.638-140.762 314.4-314.4 314.4v0zM702.117 473.238h-149.919v-149.919h-80.395v149.919h-147.253v80.189h147.253v147.253h80.395v-147.253h149.919z" />
<glyph unicode="&#xe901;" glyph-name="add" data-tags="add" d="M512 800.8c-161.6 0-292.8-131.2-292.8-292.8s131.2-292.8 292.8-292.8 292.8 131.2 292.8 292.8-131.2 292.8-292.8 292.8zM512 238.4c-148.8 0-269.6 120.8-269.6 269.6s120.8 269.6 269.6 269.6 269.6-120.8 269.6-269.6-120.8-269.6-269.6-269.6zM524 684h-24v-164h-162.4v-24h162.4v-164h24v164h164v24h-164z" />
<glyph unicode="&#xe902;" glyph-name="arrow-circle-down" data-tags="arrow-circle-down" d="M512 803.2c-160.622 0-291.2-130.578-291.2-291.2s130.578-291.2 291.2-291.2c160.622 0 291.2 130.578 291.2 291.2s-130.578 291.2-291.2 291.2zM512 768.941c142.108 0 256.941-114.834 256.941-256.941s-114.834-256.941-256.941-256.941c-142.108 0-256.941 114.834-256.941 256.941s114.834 256.941 256.941 256.941zM544.302 433.218l113.043 113.043-32.3 32.3-113.043-113.043-113.048 113.048-32.298-32.298 145.348-145.348z" />
<glyph unicode="&#xe903;" glyph-name="arrow-down" data-tags="arrow-down" d="M559.2 390.4l-40-40-46.4 40-68 68-217.6 212 40 40 292-280 285.6 274.4 40-40-165.6-154.4z" />
<glyph unicode="&#xe904;" glyph-name="arrow-left" data-tags="arrow-left" d="M336 528l40 45.6 68.8 68.8 211.2 216.8 40-40-280-291.2 274.4-286.4-40-40-154.4 166.4-120 120z" />
<glyph unicode="&#xe905;" glyph-name="arrow-long-up" data-tags="arrow-long-up" d="M407.822 185.623h208.357v380.287h163.188l-267.367 272.466-267.367-272.466h163.188z" />
<glyph unicode="&#xe906;" glyph-name="arrow-right-full" data-tags="arrow-right-full" d="M463.787 787.118l31.926 32.298c13.518 13.676 35.378 13.676 48.752 0l279.57-282.683c13.518-13.676 13.518-35.79 0-49.32l-279.57-282.829c-13.518-13.676-35.378-13.676-48.752 0l-31.926 32.298c-13.662 13.821-13.374 36.372 0.576 49.902l173.293 167.020h-413.315c-19.128 0-34.515 15.567-34.515 34.917v46.556c0 19.35 15.388 34.917 34.515 34.917h413.315l-173.293 167.020c-14.094 13.53-14.381 36.081-0.576 49.902z" />
<glyph unicode="&#xe907;" glyph-name="arrow-right" data-tags="arrow-right" d="M656 572.8l40-40-40-45.6-68.8-68.8-211.2-216.8-40 40 280 291.2-274.4 286.4 40 40 154.4-166.4z" />
<glyph unicode="&#xe908;" glyph-name="arrow-up" data-tags="arrow-up" d="M679.2 550.4l165.6-154.4-40-40-285.6 274.4-292-280-40 40 217.6 211.2 68 68.8 46.4 40 40-40z" />
<glyph unicode="&#xe909;" glyph-name="ban-left-thin" data-tags="ban-left-thin" d="M505.6 824c-172 0-312-140-312-312s140-312 312-312c172 0 312 140 312 312s-140 312-312 312zM763.2 512c0-55.2-17.6-105.6-46.4-147.2l-376 346.4c44.8 36.8 101.6 59.2 164 59.2 143.2 0 258.4-116 258.4-258.4zM247.2 512c0 58.4 19.2 112 52 155.2l377.6-348c-45.6-40-105.6-64.8-171.2-64.8-142.4-0.8-258.4 115.2-258.4 257.6z" />
<glyph unicode="&#xe90a;" glyph-name="ban-left" data-tags="ban-left" d="M516 824c-172 0-312-140-312-312s140-312 312-312c172 0 312 140 312 312s-140 312-312 312v0zM516 278.4c-128.8 0-233.6 104.8-233.6 234.4 0 50.4 16 96.8 43.2 135.2l325.6-325.6c-38.4-28-84.8-44-135.2-44v0zM706.4 376.8l-325.6 325.6c38.4 27.2 84.8 43.2 135.2 43.2 128.8 0 234.4-104.8 234.4-233.6-0.8-50.4-16.8-96.8-44-135.2v0z" />
<glyph unicode="&#xe90b;" glyph-name="browser-archive" data-tags="browser-archive" d="M744.136 680.059c46.427 0 83.569-35.604 83.569-80.109v0-382.742c0-44.505-37.142-80.109-83.569-80.109v0h-464.273c-46.427 0-83.569 35.604-83.569 80.109v0 382.742c0 44.505 37.142 80.109 83.569 80.109v0zM616.926 558.116c-15.785 0-27.856-11.571-27.856-26.703v0-40.944h-154.139v40.944c0 15.132-12.071 26.703-27.856 26.703s-27.856-11.571-27.856-26.703v0-67.647c0-15.132 12.071-26.703 27.856-26.703v0h209.851c15.785 0 27.856 11.571 27.856 26.703v0 67.647c0 15.132-12.071 26.703-27.856 26.703zM746.9 783.48c15.973 0 28.188-11.204 28.188-25.855s-12.215-25.855-28.188-25.855v0h-469.8c-15.973 0-28.188 11.204-28.188 25.855s12.215 25.855 28.188 25.855v0zM695.018 886.9c15.557 0 27.453-11.204 27.453-25.855s-11.896-25.855-27.453-25.855v0h-366.035c-15.557 0-27.453 11.204-27.453 25.855s11.896 25.855 27.453 25.855v0z" />
<glyph unicode="&#xe90c;" glyph-name="browser-attribute" data-tags="browser-attribute" d="M805.592 525.104l-280.8 280.8c-11.232 11.232-26.832 18.096-43.992 18.096h-218.4c-34.32 0-62.4-28.080-62.4-62.4v-218.4c0-17.16 6.864-32.76 18.408-44.304l280.8-280.8c11.232-11.232 26.832-18.096 43.992-18.096s32.76 6.864 43.992 18.408l218.4 218.4c11.544 11.232 18.408 26.832 18.408 43.992s-7.176 33.072-18.408 44.304zM309.2 668c-25.896 0-46.8 20.904-46.8 46.8s20.904 46.8 46.8 46.8c25.896 0 46.8-20.904 46.8-46.8s-20.904-46.8-46.8-46.8z" />
<glyph unicode="&#xe90d;" glyph-name="browser-copy" data-tags="browser-copy" d="M220.998 192.058c-11.735 0-21.856 7.116-26.438 19.589-1.671 4.573-2.56 9.797-2.56 15.676v420.585c0 10.383 12.958 23.507 29.015 23.507h139.449c10.707 0 19.346-8.749 19.346-19.589v-134.713c0-10.84 8.638-19.589 19.339-19.589h132.293c10.707 0 19.346-8.749 19.346-19.589v-256.491c0-16.262-12.958-29.385-29.012-29.385h-300.761zM428.303 538.661c-5.336 0-9.758 4.354-9.694 9.752v113.811c0 5.847 4.813 9.747 9.822 9.747 2.417 0 4.81-0.843 6.829-2.858l113.797-113.811c2.026-2.016 2.879-4.488 2.879-6.89 0-5.007-3.903-9.752-9.755-9.752h-113.861zM831.868 640.855v0-259.402c0-16.28-12.993-29.424-29.101-29.424h-202.51v198.216c0 12.682-4.856 25.105-14.106 34.455l-113.249 114.467c-0.356 0.32-0.569 0.587-0.853 0.85v102.506c0.014 16.28 13.015 29.419 29.122 29.419h139.182c10.743 0 19.403-8.759 19.403-19.611v-132.254c0-10.852 8.67-19.611 19.406-19.611h133.434c10.739 0 19.403-8.759 19.403-19.611zM718.417 815.575l110.103-110.101c5.972-5.91 1.777-16.099-6.666-16.099h-110.103c-5.222 0-9.435 4.212-9.435 9.434v110.105c0 8.425 10.188 12.576 16.1 6.661z" />
<glyph unicode="&#xe90e;" glyph-name="browser-cut" data-tags="browser-cut" d="M436.48 651.52c7.36 16 11.52 33.6 11.52 52.48 0 70.72-57.28 128-128 128s-128-57.28-128-128c0-70.72 57.28-128 128-128 18.88 0 36.48 4.159 52.48 11.52l75.52-75.52-75.52-75.52c-16 7.36-33.6 11.52-52.48 11.52-70.72 0-128-57.28-128-128s57.28-128 128-128c70.72 0 128 57.28 128 128 0 18.88-4.16 36.48-11.52 52.48l75.52 75.52 224-224h96v32l-395.52 395.52zM320 640c-35.2 0-64 28.48-64 64s28.8 64 64 64c35.2 0 64-28.48 64-64s-28.8-64-64-64v0zM320 256c-35.2 0-64 28.48-64 64s28.8 64 64 64c35.2 0 64-28.48 64-64s-28.8-64-64-64v0zM512 496c-8.96 0-16 7.040-16 16s7.040 16 16 16c8.96 0 16-7.040 16-16s-7.040-16-16-16v0zM736 800l-192-192 64-64 224 224v32h-96z" />
<glyph unicode="&#xe90f;" glyph-name="browser-dataset" data-tags="browser-dataset" d="M872 626.868v-376.169c0-34.485-22.665-62.699-50.366-62.699h-503.589c-27.723 0-50.366 28.215-50.366 62.699v17.105l476.835-0.010c26.162 0 47.832 25.167 50.159 57.014l0.205 5.686-0.017 296.374zM756.32 666.765v-312.453c0-28.644-22.665-52.079-50.366-52.079h-503.589c-27.723 0-50.366 23.436-50.366 52.079v312.453zM328.257 836c27.701 0 50.366-23.436 50.366-52.079v0-12.997h327.332c27.701 0 50.366-23.459 50.366-52.079v0-26.040h-604.32v91.116c0 28.644 22.642 52.079 50.366 52.079v0z" />
<glyph unicode="&#xe910;" glyph-name="browser-delete" data-tags="browser-delete" d="M298.667 263.111c0-39.111 32-71.111 71.111-71.111h284.444c39.112 0 71.111 32 71.111 71.111v426.666h-426.666v-426.666zM760.889 796.444h-124.444l-35.556 35.556h-177.778l-35.556-35.556h-124.444v-71.111h497.778v71.111z" />
<glyph unicode="&#xe911;" glyph-name="browser-directory" data-tags="browser-directory" d="M440.192 800h-216c-39.6 0-71.64-32.4-71.64-72l-0.552-432c0-39.6 32.4-72 72-72h576c39.6 0 72 32.4 72 72v360c0 39.6-32.4 72-72 72h-288l-72 72z" />
<glyph unicode="&#xe912;" glyph-name="browser-distribution" data-tags="browser-distribution" d="M229.937 651.394v-72.727c0-56.994 115.28-120 282.063-120 166.787 0 282.063 63.006 282.063 120v72.727c-47.826-50.934-155.748-86.061-282.063-86.061s-234.233 35.127-282.063 86.061zM229.937 519.273v-73.94c0-56.994 115.28-120 282.063-120 166.787 0 282.063 63.006 282.063 120v72.727c-47.826-50.933-155.748-86.061-282.063-86.061s-234.233 36.364-282.063 87.273zM229.937 385.939v-73.94c0-56.994 115.28-120 282.063-120 166.787 0 282.063 63.006 282.063 120v75.152c-47.826-50.909-155.748-86.060-282.063-86.060s-234.233 33.939-282.063 84.848zM229.937 712c0 56.97 115.28 120 282.063 120 166.787 0 282.063-63.030 282.063-120 0-56.994-115.276-120-282.063-120-166.783 0-282.063 63.006-282.063 120z" />
<glyph unicode="&#xe913;" glyph-name="browser-download" data-tags="browser-download" d="M413.625 843.142v-235.156h-154.078l252.453-257.281 252.453 257.281h-154.078v235.156zM189.705 306.694h644.59v-125.836h-644.59v125.836z" />
<glyph unicode="&#xe914;" glyph-name="browser-file" data-tags="browser-file" d="M584.010 872h-288c-39.6 0-71.64-32.4-71.64-72l-0.37-576c0-39.6 32.040-72 71.64-72h432.36c39.6 0 72 32.4 72 72v432l-216 216zM656.010 296h-288v72h288v-72zM656.010 440h-288v72h288v-72zM548.010 620v198l198-198h-198z" />
<glyph unicode="&#xe915;" glyph-name="browser-info" data-tags="browser-info" d="M512 832c-176.64 0-320-143.36-320-320s143.36-320 320-320c176.64 0 320 143.36 320 320s-143.36 320-320 320v0zM544 352h-64v192h64v-192zM544 608h-64v64h64v-64z" />
<glyph unicode="&#xe916;" glyph-name="browser-metadata" data-tags="browser-metadata" d="M729.478 510.647c0-8.672-5.084-16.643-12.951-20.312l-115.282-53.613c-2.992-1.388-6.179-2.092-9.445-2.092-4.279 0-8.452 1.216-12.066 3.512-6.479 4.158-10.347 11.213-10.347 18.899v0.582c0 8.688 5.084 16.667 12.957 20.32l72.112 33.506-72.112 33.498c-7.873 3.669-12.957 11.648-12.957 20.328v0.576c0 7.702 3.868 14.757 10.353 18.892 3.591 2.295 7.774 3.496 12.082 3.496 3.244 0 6.504-0.71 9.414-2.069l115.274-53.605c7.877-3.669 12.967-11.632 12.967-20.32v-1.601zM495.652 387.497c-2.993-9.296-11.56-15.561-21.336-15.561h-0.573c-7.131 0-13.896 3.433-18.102 9.193-4.196 5.753-5.412 13.242-3.25 20.028l75.945 235.339c2.993 9.304 11.569 15.569 21.346 15.569h0.573c7.119 0 13.89-3.44 18.102-9.185 4.199-5.784 5.422-13.281 3.228-20.068l-75.938-235.315zM444.259 438.142c-3.617-2.295-7.781-3.512-12.060-3.512-3.266 0-6.447 0.703-9.43 2.082l-115.291 53.613c-7.873 3.685-12.957 11.647-12.957 20.32v1.601c0 8.688 5.084 16.651 12.957 20.32l115.285 53.605c2.929 1.356 6.176 2.069 9.42 2.069 4.317 0 8.491-1.207 12.075-3.496 6.485-4.135 10.369-11.19 10.369-18.892v-0.576c0-8.688-5.106-16.658-12.983-20.32l-72.102-33.506 72.102-33.506c7.876-3.654 12.983-11.632 12.983-20.32v-0.582c0-7.686-3.884-14.741-10.369-18.899v0zM511.997 832c-176.725 0-319.997-143.273-319.997-319.996 0-176.739 143.272-320.004 319.997-320.004 176.731 0 320.003 143.265 320.003 320.004 0 176.723-143.272 319.996-320.003 319.996v0z" />
<glyph unicode="&#xe917;" glyph-name="browser-new-directory" data-tags="browser-new-directory" d="M768 704h-256l-64 64h-192c-35.52 0-63.68-28.48-63.68-64l-0.32-384c0-35.52 28.48-64 64-64h512c35.52 0 64 28.48 64 64v320c0 35.52-28.48 64-64 64v0zM736 448h-96v-96h-64v96h-96v64h96v96h64v-96h96v-64z" />
<glyph unicode="&#xe918;" glyph-name="browser-paste" data-tags="browser-paste" d="M479.815 615.795h151.651c10.585 0 19.311-7.863 20.81-18.15l0.232-3.153v-146.499c0-10.716 7.764-19.554 17.92-21.072l3.115-0.232h143.866c10.585 0 19.311-7.863 20.81-18.15l0.233-3.153v-278.932c0-16.421-12.15-29.9-27.866-31.742l-3.686-0.215h-327.074c-12.759 0-23.768 7.738-28.748 21.303-1.365 3.73-2.26 7.858-2.621 12.386l-0.194 4.664v457.382c0 10.423 12.007 23.385 27.587 25.318l3.965 0.245h151.651zM514.536 881.495c43.078 0 79.528-27.835 93.445-66.273v0h138.511c36.45 0 66.273-29.823 66.273-66.273v0-99.41h-364.503c-34.938 0-63.562-27.035-66.091-61.327l-0.182-4.946v-364.503h-99.41c-36.45 0-66.273 29.823-66.273 66.273v0 463.913c0 36.45 29.823 66.273 66.273 66.273v0h138.511c13.917 38.439 50.368 66.273 93.445 66.273zM705.398 616.401c1.962 0 3.923-0.514 5.708-1.696l1.72-1.411 123.753-123.768c2.194-2.193 3.115-4.88 3.115-7.493-0.064-4.667-3.138-9.125-8.023-10.303l-2.588-0.302h-123.823c-5.077 0-9.392 3.626-10.345 8.464l-0.199 2.141v123.768c0.002 6.359 5.235 10.6 10.682 10.6zM514.536 815.221c-18.225 0-33.137-14.911-33.137-33.137s14.911-33.137 33.137-33.137c18.225 0 33.137 14.911 33.137 33.137s-14.912 33.137-33.137 33.137z" />
<glyph unicode="&#xe919;" glyph-name="browser-permission" data-tags="browser-permission" d="M733.455 860h-442.909c-34.8 0-62.956-28.473-62.956-63.273l-0.316-409.058c0-21.829 11.073-41.127 27.84-52.516l256.887-171.153 256.571 171.153c16.767 11.389 27.84 30.687 27.84 52.516l0.316 409.058c0 34.8-28.473 63.273-63.273 63.273zM448.727 385.455l-158.182 158.182 44.607 44.607 113.575-113.258 240.12 240.12 44.607-44.924z" />
<glyph unicode="&#xe91a;" glyph-name="browser-permissions" data-tags="browser-permissions" d="M694.857 618.667h-30.476v60.952c0 84.114-68.266 152.381-152.381 152.381s-152.381-68.267-152.381-152.381v-60.952h-30.477c-33.523 0-60.952-27.429-60.952-60.952v-304.762c0-33.524 27.429-60.952 60.952-60.952h365.714c33.524 0 60.953 27.429 60.953 60.952v304.762c0 33.524-27.429 60.952-60.953 60.952v0zM512 344.381c-33.524 0-60.953 27.429-60.953 60.952s27.429 60.952 60.953 60.952c33.524 0 60.952-27.429 60.952-60.952s-27.428-60.952-60.952-60.952v0zM606.476 618.667h-188.952v60.952c0 52.114 42.363 94.476 94.476 94.476 52.116 0 94.476-42.362 94.476-94.476v-60.952z" />
<glyph unicode="&#xe91b;" glyph-name="browser-rename" data-tags="browser-rename" d="M192 325.315v-133.314h133.315l393.19 393.19-133.315 133.315-393.19-393.19zM821.602 688.287c13.865 13.865 13.865 36.262 0 50.126l-83.189 83.189c-13.865 13.864-36.262 13.864-50.126 0l-65.058-65.058 133.315-133.315 65.058 65.058z" />
<glyph unicode="&#xe91c;" glyph-name="browser-share" data-tags="browser-share" d="M702.878 379.631c-24.178 0-45.81-9.638-62.352-24.739l-226.826 133.334c1.583 7.389 2.863 14.778 2.863 22.49s-1.28 15.1-2.863 22.49l224.279 132.048c17.179-16.065 39.768-26.024 64.899-26.024 52.807 0 95.438 43.052 95.438 96.385s-42.63 96.386-95.438 96.386c-52.81 0-95.44-43.052-95.44-96.386 0-7.71 1.28-15.1 2.863-22.49l-224.28-132.048c-17.179 16.064-39.768 26.024-64.899 26.024-52.806 0-95.438-43.052-95.438-96.386s42.631-96.386 95.438-96.386c25.131 0 47.72 9.96 64.899 26.024l226.506-133.654c-1.582-6.747-2.559-13.815-2.559-20.884 0-51.726 41.674-93.815 92.894-93.815 51.217 0 92.89 42.089 92.89 93.815s-41.674 93.816-92.89 93.816v0z" />
<glyph unicode="&#xe91d;" glyph-name="browser-upload" data-tags="browser-upload" d="M744.75 574.066c-21.534 109.25-117.484 191.267-232.75 191.267-91.516 0-171-51.934-210.584-127.934-95.316-10.134-169.416-90.884-169.416-188.734 0-104.816 85.184-190 190-190h411.666c87.4 0 158.334 70.934 158.334 158.334 0 83.6-64.916 151.366-147.25 157.066v0zM575.334 480.334v-126.667h-126.667v126.667h-95l158.334 158.333 158.334-158.333h-95z" />
<glyph unicode="&#xe91e;" glyph-name="cancelled" data-tags="cancelled" d="M512 825.6c-172.882 0-313.6-140.718-313.6-313.6s140.718-313.6 313.6-313.6c172.882 0 313.6 140.718 313.6 313.6 0 173.686-140.718 313.6-313.6 313.6zM646.285 396.209v0c0-10.453-8.041-18.494-18.494-18.494h-231.582c-10.453 0-18.494 8.041-18.494 18.494v231.582c0 10.453 8.041 18.494 18.494 18.494h231.582c10.453 0 18.494-8.041 18.494-18.494z" />
<glyph unicode="&#xe91f;" glyph-name="ceph" data-tags="ceph" d="M714.22 258.528c-22.76 12.11-35.761 25.759-38.638 40.579-2.774 14.35 3.626 30.31 19.588 48.807 38.145 43.763 59.155 99.983 59.155 158.314 0 133.018-108.224 241.255-241.255 241.255-0.217 0-1.064-0.012-1.064-0.012s-0.868 0.012-1.096 0.012c-133.036 0-241.244-108.237-241.244-241.255 0-58.33 21.006-114.55 59.165-158.332 16.081-18.62 22.328-33.934 19.662-48.153-2.768-14.804-15.798-28.643-38.759-41.195-35.206 29.343-66.338 68.547-85.542 107.868-10.416 21.339-18.433 43.875-23.838 66.978-5.565 23.746-8.353 48.252-8.353 72.834 0 43.020 8.417 84.807 25.053 124.155 16.079 37.963 39.060 72.080 68.356 101.356 29.263 29.282 63.378 52.262 101.353 68.333 39.341 16.637 81.105 25.067 124.148 25.067 0.228 0 1.064 0 1.064 0s0.879 0 1.096 0c43.043 0 84.814-8.43 124.159-25.067 37.964-16.070 72.076-39.051 101.353-68.333 29.27-29.276 52.274-63.393 68.344-101.356 16.637-39.349 25.073-81.135 25.073-124.155 0-24.582-2.818-49.088-8.365-72.834-5.402-23.103-13.422-45.639-23.851-66.978-19.204-39.337-50.31-78.536-85.564-107.887zM596.543 198.861c-3.706 2.331-16.369 11.751-28.711 28.85-11.84 16.339-25.772 43.445-25.044 79.745 0.457 21.847 4.836 43.12 13.044 63.204 8.147 19.912 19.832 38.157 34.716 54.21l0.091 0.123c1.096 1.274 2.181 2.543 3.288 3.8 5.618 6.518 11.423 13.247 16.053 21.121 5.709 9.681 9.865 19.853 12.336 30.258 3.802 16.070 4.026 33.129 0.623 49.31-3.14 14.878-9.465 29.294-18.298 41.722-8.557 12.043-19.701 22.548-32.244 30.369-13.073 8.167-28.092 13.633-43.389 15.801-5.179 0.742-10.516 1.122-15.877 1.122-0.368 0-0.779 0-1.149 0-0.368 0-0.749 0-1.14 0-5.35 0-10.698-0.38-15.861-1.122-15.289-2.169-30.305-7.635-43.392-15.801-12.541-7.822-23.708-18.327-32.258-30.369-8.83-12.428-15.126-26.844-18.294-41.722-3.393-16.181-3.188-33.24 0.642-49.31 2.462-10.406 6.618-20.578 12.316-30.258 4.653-7.874 10.45-14.603 16.069-21.121 1.105-1.257 2.181-2.525 3.297-3.8l0.067-0.123c14.909-16.053 26.582-34.298 34.731-54.21 8.202-20.084 12.599-41.357 13.032-63.204 0.738-36.3-13.197-63.405-25.023-79.745-12.368-17.099-25.019-26.519-28.729-28.85-6.209 1.66-12.402 3.526-18.49 5.565-18.326 6.145-36.174 14.007-53.134 23.42 29.156 15.686 47.687 46.308 47.687 79.683 0 22.084-8.584 43.268-25.507 62.935-0.251 0.299-0.512 0.541-0.706 0.738-0.034 0.050-0.089 0.080-0.13 0.134-1.663 1.85-3.309 3.656-4.928 5.414-4.861 5.339-9.47 10.384-13.585 15.908-15.355 20.507-26.604 44.557-32.541 69.537-6.453 27.16-6.814 55.969-1.051 83.31 5.305 25.208 16.026 49.655 30.965 70.689 14.452 20.35 33.29 38.086 54.469 51.292 22.189 13.843 47.624 23.097 73.544 26.792 8.778 1.263 17.771 1.877 26.754 1.877 0.379 0 1.26 0 1.26 0 0.37 0 0.758 0 1.137 0 8.986 0 18.004-0.614 26.77-1.877 25.93-3.695 51.35-12.949 73.542-26.792 21.18-13.206 40.024-30.942 54.479-51.292 14.93-21.034 25.651-45.481 30.977-70.689 5.743-27.341 5.373-56.15-1.062-83.31-5.953-24.98-17.188-49.030-32.563-69.537-4.122-5.524-8.712-10.569-13.592-15.908-1.598-1.758-3.238-3.565-4.905-5.414-0.057-0.043-0.096-0.085-0.153-0.134-0.194-0.196-0.468-0.45-0.703-0.777-17.154-20.529-25.5-41.111-25.5-62.896 0-33.374 18.531-63.997 47.72-79.683-16.967-9.413-34.818-17.275-53.143-23.42-6.086-2.039-12.304-3.904-18.508-5.565zM511.984 440.227c-34.71 0-62.964 28.247-62.964 62.966 0 34.725 28.254 62.972 62.964 62.972s62.95-28.247 62.95-62.972c0-34.719-28.24-62.966-62.95-62.966z" />
<glyph unicode="&#xe920;" glyph-name="certificate" data-tags="certificate" d="M600.8 364.8v-117.6c0-2.4 1.6-4.8 3.2-5.6 2.4-0.8 4.8-0.8 7.2 0l42.4 28c4.8 3.2 12 3.2 16.8 0l42.4-28c1.6-1.6 4.8-1.6 7.2 0 2.4 0.8 3.2 3.2 3.2 5.6v117.6c-17.6-11.2-39.2-17.6-61.6-17.6s-43.2 6.4-60.8 17.6v0zM775.2 780h-518.4c-30.4 0-55.2-24.8-55.2-55.2v-372c0-30.4 24.8-55.2 55.2-55.2h312.8v94.4c-16 20-26.4 46.4-26.4 74.4 0 65.6 52.8 118.4 118.4 118.4s118.4-53.6 118.4-118.4c0-28-9.6-53.6-25.6-74.4v-94.4h20.8c30.4 0 55.2 24.8 55.2 55.2v372c0 30.4-24.8 55.2-55.2 55.2v0zM484.8 484.8h-219.2c-9.6 0-17.6 8-17.6 17.6s8 17.6 17.6 17.6h219.2c9.6 0 17.6-8 17.6-17.6s-8-17.6-17.6-17.6v0zM484.8 557.6h-219.2c-9.6 0-17.6 8-17.6 17.6s8 17.6 17.6 17.6h219.2c9.6 0 17.6-8 17.6-17.6s-8-17.6-17.6-17.6v0zM484.8 630.4h-219.2c-9.6 0-17.6 8-17.6 17.6s8 17.6 17.6 17.6h219.2c9.6 0 17.6-8 17.6-17.6s-8-17.6-17.6-17.6v0zM662.4 553.6c-48 0-87.2-39.2-87.2-88 0-48 39.2-88 87.2-88s87.2 39.2 87.2 88c0 48.8-39.2 88-87.2 88v0z" />
<glyph unicode="&#xe921;" glyph-name="checkbox-check" data-tags="checkbox-check" d="M512.8 799.2c-157.6 0-291.2-133.6-291.2-291.2s133.6-291.2 291.2-291.2 291.2 133.6 291.2 291.2-134.4 291.2-291.2 291.2zM512.8 240.8c-149.6 0-267.2 117.6-267.2 267.2s117.6 267.2 267.2 267.2 267.2-117.6 267.2-267.2-117.6-267.2-267.2-267.2zM654.4 610.4l-180.8-180.8-70.4 63.2c-8 8-16 8-23.2 0s-8-16 0-23.2l78.4-78.4c0 0 8-8 16-8s8 0 8 8l196.8 196.8c8 8 8 16 0 23.2-1.6 7.2-16.8 7.2-24.8-0.8z" />
<glyph unicode="&#xe922;" glyph-name="checkbox-empty" data-tags="checkbox-empty" d="M512 800.8c-161.6 0-292.8-131.2-292.8-292.8s131.2-292.8 292.8-292.8c161.6 0 292.8 131.2 292.8 292.8s-131.2 292.8-292.8 292.8zM512 238.4c-148.8 0-269.6 120.8-269.6 269.6s120.8 269.6 269.6 269.6c148.8 0 269.6-120.8 269.6-269.6s-120.8-269.6-269.6-269.6z" />
<glyph unicode="&#xe923;" glyph-name="checkbox-filled-warning" data-tags="checkbox-filled-warning" d="M512 198.4c-173.196 0-313.6 140.404-313.6 313.6s140.404 313.6 313.6 313.6c173.196 0 313.6-140.404 313.6-313.6s-140.404-313.6-313.6-313.6zM549.63 593.329c0.912 20.434 2.873 41.015 3.785 61.744 0 7.569-0.912 14.080-3.785 20.581-8.481 18.628-27.994 28.003-47.664 23.307-19.678-5.599-31.779-23.307-31.779-44.791 1.059-13.012 1.962-26.18 2.873-39.201 2.717-49.478 5.599-98.063 8.325-147.55 1.059-16.788 14.071-28.906 30.868-28.906s29.965 13.021 30.876 29.817c0 10.139 0 19.522 0.903 29.809 1.814 31.779 3.793 63.419 5.599 95.189zM511.193 325.437c21.493 0 41.163 18.619 40.104 39.965 0.911 23.454-17.708 42.065-40.104 42.065s-41.006-18.611-41.006-41.015c0-22.395 18.611-41.015 41.006-41.015z" />
<glyph unicode="&#xe924;" glyph-name="checkbox-filled-x" data-tags="checkbox-filled-x" d="M467.65 512l-110.876-110.874 44.35-44.35 110.876 110.874 108.562-108.56 44.35 44.35-108.562 108.56 110.876 110.874-44.35 44.35-110.876-110.874-113.186 113.188-44.353-44.35zM512 198.4c-173.196 0-313.6 140.403-313.6 313.6s140.404 313.6 313.6 313.6c173.196 0 313.6-140.403 313.6-313.6s-140.404-313.6-313.6-313.6z" />
<glyph unicode="&#xe925;" glyph-name="checkbox-filled" data-tags="checkbox-filled" d="M454.473 350.91l-138.083 138.079 46.023 46.023 92.060-92.054 207.115 207.122 46.023-46.024zM512 825.6c-173.19 0-313.6-140.404-313.6-313.6 0-173.194 140.41-313.6 313.6-313.6 173.21 0 313.6 140.406 313.6 313.6 0 173.196-140.397 313.6-313.6 313.6z" />
<glyph unicode="&#xe926;" glyph-name="checkbox-minus" data-tags="checkbox-minus" d="M512 800.8c-161.6 0-292.8-131.2-292.8-292.8s131.2-292.8 292.8-292.8c161.6 0 292.8 131.2 292.8 292.8s-131.2 292.8-292.8 292.8zM512 238.4c-148.8 0-269.6 120.8-269.6 269.6s120.8 269.6 269.6 269.6c148.8 0 269.6-120.8 269.6-269.6s-120.8-269.6-269.6-269.6zM337.6 520v-24c350.4 0 0 0 350.4 0v24z" />
<glyph unicode="&#xe927;" glyph-name="checkbox-option" data-tags="checkbox-option" d="M511.2 831.2c-176.8 0-320-143.2-320-320s143.2-320 320-320 320 143.2 320 320-143.2 320-320 320zM511.2 800.8c159.2 0 288.8-129.6 288.8-288.8s-129.6-288.8-288.8-288.8-288.8 129.6-288.8 288.8 129.6 288.8 288.8 288.8zM748.8 512c0-131.2-106.4-237.6-237.6-237.6s-238.4 105.6-238.4 237.6 106.4 237.6 237.6 237.6 238.4-106.4 238.4-237.6z" />
<glyph unicode="&#xe928;" glyph-name="checkbox-pending" data-tags="checkbox-pending" d="M512 825.594c-0.001 0-0.001 0-0.002 0-173.192 0-313.592-140.4-313.592-313.592 0-0.001 0-0.001 0-0.002v0c0-0.001 0-0.001 0-0.002 0-173.192 140.4-313.592 313.592-313.592 0.001 0 0.001 0 0.002 0v0c0.001 0 0.001 0 0.002 0 173.192 0 313.592 140.4 313.592 313.592 0 0.001 0 0.001 0 0.002v0c0 0.001 0 0.001 0 0.002 0 173.192-140.4 313.592-313.592 313.592-0.001 0-0.001 0-0.002 0v0zM505.75 768.078c3.791 0.001 7.573-0.973 11.031-2.922 6.922-3.902 11.047-10.884 11.047-18.687v-10.344c55.408-3.674 107.245-26.672 146.766-65.281 43.429-42.428 67.344-98.834 67.344-158.844 0-60.007-23.915-116.422-67.344-158.844-6.272-6.127-14.621-9.516-23.484-9.516-8.867 0-17.197 3.389-23.469 9.516-6.262 6.114-9.719 14.247-9.719 22.922 0 8.669 3.457 16.817 9.719 22.937 30.891 30.175 47.906 70.308 47.906 112.984 0 42.679-17.015 82.806-47.906 112.984-26.986 26.369-62.138 42.511-99.812 46.047v-9.094c0-7.8-4.112-14.789-11.031-18.688-6.919-3.902-15.191-3.883-22.094 0.016l-74.906 42.25c-6.912 3.902-11.047 10.887-11.047 18.688 0 7.797 4.122 14.792 11.031 18.687l74.938 42.266c3.448 1.951 7.24 2.921 11.031 2.922zM372.891 680.328c8.5 0 16.998-3.16 23.469-9.484 6.267-6.119 9.719-14.268 9.719-22.938 0-8.674-3.451-16.803-9.719-22.922-30.885-30.179-47.891-70.311-47.891-112.984 0-42.678 17.006-82.801 47.891-112.984 26.998-26.372 62.133-42.526 99.797-46.062v9.094c0 7.803 4.132 14.788 11.047 18.688 6.905 3.904 15.175 3.893 22.094-0.016l74.906-42.25c6.915-3.9 11.042-10.889 11.047-18.688 0.005-7.803-4.128-14.788-11.047-18.687l-74.922-42.266c-3.367-1.897-7.18-2.906-11.031-2.906-3.855 0-7.687 1.021-11.062 2.922-6.906 3.895-11.031 10.873-11.031 18.672v10.359c-55.411 3.674-107.231 26.655-146.75 65.266-43.429 42.43-67.344 98.855-67.344 158.859 0 60 23.915 116.409 67.344 158.844 6.473 6.325 14.984 9.484 23.484 9.484z" />
<glyph unicode="&#xe929;" glyph-name="checkbox-x" data-tags="checkbox-x" d="M309.6 715.2c-110.4-114.4-110.4-300 0-414.4s289.6-114.4 400 0 110.4 300 0 414.4-289.6 114.4-400 0zM693.6 317.6c-101.6-105.6-266.4-105.6-368 0s-101.6 276 0 381.6 266.4 105.6 368 0 100.8-276.8 0-381.6zM397.6 640.8l-16-16.8 112-116-111.2-115.2 16-16.8 111.2 115.2 112-116 16 16.8-112 116 112 116-16 16.8-112-116z" />
<glyph unicode="&#xe92a;" glyph-name="checkbox" data-tags="checkbox" d="M508 824c-172.8 0-313.6-140-313.6-313.6s140-313.6 313.6-313.6 313.6 140 313.6 313.6-140.8 313.6-313.6 313.6zM691.2 594.4l-214.4-208c-4-4-8.8-4.8-12.8-4.8-4.8 0-10.4 1.6-13.6 4.8l-84 84c-7.2 7.2-7.2 19.2 0 26.4s19.2 7.2 26.4 0l70.4-70.4 201.6 195.2c7.2 7.2 18.4 7.2 26.4 0 7.2-6.4 7.2-19.2 0-27.2z" />
<glyph unicode="&#xe92b;" glyph-name="checked" data-tags="checked" d="M436.435 266.468l-240.435 238.712 89.304 88.664 144.261-143.227 309.13 306.915 89.304-88.664z" />
<glyph unicode="&#xe92c;" glyph-name="circle-copy" data-tags="circle-copy" d="M512 824c-172.313 0-312-139.687-312-312v0c0-172.313 139.687-312 312-312v0c172.313 0 312 139.687 312 312v0c0 172.313-139.687 312-312 312v0zM521.875 708.797h78.656c6.071 0 10.969-4.946 10.969-11.078v-74.734c0-6.133 4.902-11.078 10.969-11.078h75.406c6.069 0 10.953-4.961 10.953-11.094h-0.063v-146.578c0-9.2-7.351-16.641-16.453-16.641h-114.437v112.016c0 7.167-2.742 14.185-7.969 19.469l-64 64.687c-0.201 0.181-0.324 0.336-0.484 0.484v57.922c0.008 9.2 7.351 16.625 16.453 16.625zM640.297 701.078c1.501 0.174 3.091-0.278 4.344-1.531l62.234-62.219c3.375-3.34 0.99-9.094-3.781-9.094h-62.219c-2.951 0-5.328 2.377-5.328 5.328v62.219c0 2.976 2.248 5.007 4.75 5.297zM480.781 618.406c1.366 0 2.718-0.486 3.859-1.625l14.953-14.937 49.344-49.375c1.145-1.139 1.625-2.533 1.625-3.891 0-2.829-2.193-5.516-5.5-5.516h-64.359c-3.015 0-5.521 2.465-5.484 5.516v64.312c0 3.304 2.732 5.516 5.562 5.516zM363.562 618.078h78.797c6.051 0 10.937-4.937 10.937-11.063v-76.125c0-6.126 4.891-11.078 10.938-11.078h74.75c6.051 0 10.937-4.937 10.937-11.062v-144.953c0-9.19-7.318-16.594-16.391-16.594h-169.984c-6.631 0-12.348 4.014-14.937 11.062-0.944 2.584-1.438 5.537-1.438 8.859v237.672c0 5.867 7.316 13.281 16.391 13.281z" />
<glyph unicode="&#xe92d;" glyph-name="circle-id" data-tags="circle-id" d="M512 824c-172.313 0-312-139.687-312-312v0c0-172.313 139.687-312 312-312v0c172.313 0 312 139.687 312 312v0c0 172.313-139.687 312-312 312v0zM363.078 636.172h67.844v-46.172h-67.844v46.172zM592.422 636.172h68.5v-244.344h-63.5v26.172c-8.889-11.111-17.010-18.611-24.344-22.5-9.778-5.111-20.656-7.672-32.656-7.672-24.111 0-42.566 9.167-55.344 27.5-12.667 18.333-19 40.622-19 66.844 0 29.333 7 51.773 21 67.328 14.111 15.555 32.005 23.328 53.672 23.328 10.556 0 20.116-1.773 28.672-5.328 8.667-3.556 16.333-8.889 23-16v84.672zM363.078 568.828h67.844v-177h-67.844v177zM561.75 522.172c-7.889 0-14.495-3.288-19.828-9.844s-8-17.556-8-33c0-14.444 2.712-25.050 8.156-31.828 5.556-6.667 12.389-10 20.5-10 8.667 0 15.894 3.394 21.672 10.172s8.672 17.823 8.672 33.156c0 13.889-2.955 24.222-8.844 31-5.889 6.889-13.328 10.344-22.328 10.344z" />
<glyph unicode="&#xe92e;" glyph-name="circle-not-available" data-tags="circle-not-available" d="M512 824c-172.313 0-312-139.687-312-312v0c0-172.313 139.687-312 312-312v0c172.313 0 312 139.687 312 312v0c0 172.313-139.687 312-312 312v0zM538.406 703.234h48.125l-85.125-350.469h-47.656l84.656 350.469zM379.422 604.5c18.778 0 33.444-5.606 44-16.828 10.667-11.111 16-28.339 16-51.672v-112.5h-68.172v97.328c0 11.111-2.061 18.944-6.172 23.5-4.111 4.667-9.884 7-17.328 7-8.222 0-14.889-3.106-20-9.328s-7.672-17.389-7.672-33.5v-85h-67.828v177h63.172v-28.828c9.444 11.778 18.99 20.156 28.656 25.156 9.667 5.111 21.455 7.672 35.344 7.672zM674.359 604.5c20.333 0 36.667-1.167 49-3.5 12.333-2.222 22.606-6.95 30.828-14.172 5.778-5 10.339-12.106 13.672-21.328 3.333-9.111 5-17.839 5-26.172v-78.156c0-8.333 0.5-14.894 1.5-19.672 1.111-4.667 3.444-10.667 7-18h-63.672c-2.556 4.556-4.222 7.995-5 10.328-0.778 2.444-1.55 6.233-2.328 11.344-8.889-8.556-17.722-14.677-26.5-18.344-12-4.889-25.955-7.328-41.844-7.328-21.111 0-37.156 4.894-48.156 14.672-10.889 9.778-16.344 21.823-16.344 36.156 0 13.444 3.955 24.505 11.844 33.172s22.434 15.106 43.656 19.328c25.444 5.111 41.944 8.672 49.5 10.672 7.556 2.111 15.556 4.839 24 8.172 0 8.333-1.712 14.167-5.156 17.5s-9.505 5-18.172 5c-11.111 0-19.444-1.788-25-5.344-4.333-2.778-7.833-7.99-10.5-15.656l-64.828 6.828c2.444 11.333 5.944 20.227 10.5 26.672 4.667 6.556 11.333 12.222 20 17 6.222 3.444 14.767 6.111 25.656 8s22.677 2.828 35.344 2.828zM706.516 507.5c-9.333-3.333-19.045-6.273-29.156-8.828-13.778-3.667-22.505-7.288-26.172-10.844-3.778-3.667-5.672-7.833-5.672-12.5 0-5.333 1.833-9.712 5.5-13.156 3.778-3.333 9.278-5 16.5-5 7.556 0 14.556 1.833 21 5.5 6.556 3.667 11.177 8.106 13.844 13.328 2.778 5.333 4.156 12.227 4.156 20.672v10.828z" />
<glyph unicode="&#xe92f;" glyph-name="circle" data-tags="circle" d="M824 512c0-172.313-139.687-312-312-312s-312 139.687-312 312c0 172.313 139.687 312 312 312s312-139.687 312-312z" />
<glyph unicode="&#xe930;" glyph-name="clean-filled" data-tags="clean-filled" d="M459.402 574.524c-0.581-1.376-0.919-2.975-0.919-4.654 0-4.97 2.96-9.248 7.212-11.168l0.077-0.031 123.32-68.105c1.908-1.297 4.263-2.070 6.799-2.070 4.087 0 7.705 2.010 9.919 5.096l0.025 0.037 4.297 7.902-146.631 80.699zM512.049 826.4c-0.015 0-0.032 0-0.049 0-173.638 0-314.4-140.762-314.4-314.4s140.762-314.4 314.4-314.4c173.638 0 314.4 140.762 314.4 314.4v0c0 173.621-140.734 314.372-314.348 314.4h-0.003zM648.26 714.735l-76.748-137.593 53.684-29.632c5.148-2.897 8.569-8.326 8.569-14.554 0-2.862-0.722-5.555-1.995-7.907l0.044 0.088-14.816-27.015-2.371 1.333-4.297-7.902c-2.654-4.25-7.306-7.036-12.609-7.036-0.516 0-1.026 0.026-1.529 0.078l0.063-0.005c-2.914-46.671-9.877-104.356-12.939-151.027-5.495-0.466-11.891-0.732-18.349-0.732-13.933 0-27.578 1.236-40.83 3.605l1.396-0.207c12.89 52.301 28.447 108.949 42.177 161.497l-4.445 2.42c-15.359-52.993-32.201-109.393-46.77-162.386-22.99 4.787-43.3 11.757-62.37 20.901l1.623-0.701c25.583 52.499 51.857 106.133 77.736 158.583l-4.445 2.469c-27.311-51.857-54.82-104.899-82.032-156.854-23.29 12.038-43.344 26.243-61.158 42.823l0.165-0.152c35.855 43.165 72.995 89.243 108.652 133l-4.494 2.469c-36.053-42.177-74.081-87.465-110.677-129-16.988 16.595-31.482 35.639-42.934 56.584l-0.625 1.249c37.337 27.212 81.094 67.463 118.53 94.923-0.98 1.857-1.555 4.059-1.555 6.396s0.575 4.538 1.592 6.472l-0.037-0.076 4.297 7.853-2.173 1.185 14.816 27.064c2.935 5.194 8.42 8.643 14.711 8.643 2.934 0 5.692-0.75 8.094-2.069l-0.087 0.044 53.684-29.632 76.946 137.692c2.264 3.176 5.935 5.223 10.084 5.223 2.576 0 4.968-0.789 6.948-2.139l-0.043 0.027c4.419-1.93 7.452-6.262 7.452-11.303 0-1.695-0.343-3.31-0.963-4.78l0.030 0.081z" />
<glyph unicode="&#xe931;" glyph-name="clipboard-copy" data-tags="clipboard-copy" d="M726.4 273.6v361.6c0 18.4 2.4 50.4-9.6 62.4-12.8 12-28.8 2.4-28.8-7.2s-0.8-32.8-7.2-49.6c-9.6-23.2-28.8-51.2-70.4-51.2h-174.4c-18.4 0-49.6-1.6-65.6 6.4-17.6 8-36 27.2-36 71.2l0.8 20c0.8 11.2-14.4 22.4-27.2 11.2s-10.4-42.4-10.4-60.8v-397.6c0-43.2 39.2-40 39.2-40h350.4c14.4 0 24 4.8 29.6 10.4 12 12.8 9.6 44.8 9.6 63.2zM588 368.8h-82.4l20.8-24c7.2-7.2 8.8-13.6 8.8-21.6 0-15.2-13.6-28.8-28.8-28.8-8 0-14.4 3.2-20 8.8 0 0-68.8 68.8-69.6 69.6-12.8 12-12.8 37.6 0 50.4 0.8 0.8 69.6 69.6 69.6 69.6 5.6 5.6 12 8.8 20 8.8 15.2 0 28.8-13.6 28.8-28.8 0-7.2-1.6-13.6-8.8-21.6l-20.8-22.4h81.6c16 0 28.8-13.6 28.8-28.8 0.8-18.4-12-31.2-28-31.2zM407.2 628h212.8c30.4 0 32.8 40.8 32.8 40.8 1.6 35.2-36 37.6-36 37.6s-42.4 1.6-42.4 37.6v42.4c0 40-60 37.6-60 37.6h-0.8c0 0-60 2.4-60-37.6v-42.4c0-36.8-42.4-37.6-42.4-37.6s-37.6-2.4-36-37.6c-0.8 0 1.6-40.8 32-40.8zM513.6 785.6c11.2 0 20.8-9.6 20.8-20.8s-9.6-20.8-20.8-20.8c-11.2 0-20.8 9.6-20.8 20.8s9.6 20.8 20.8 20.8z" />
<glyph unicode="&#xe932;" glyph-name="close" data-tags="close" d="M268 791.2l-35.2-35.2 244-244-241.6-242.4 34.4-34.4 242.4 241.6 244-244 35.2 35.2-244 244 244 244-35.2 35.2-244-244z" />
<glyph unicode="&#xe933;" glyph-name="cluster" data-tags="cluster" d="M196 573.6v-124c0-10.4-0.8-27.2 23.2-27.2h583.2c21.6 0 27.2 16.8 27.2 27.2v124c0 10.4-0.8 27.2-28.8 27.2h-584c-22.4 0.8-20.8-16.8-20.8-27.2v0zM306.4 559.2c26.4 0 47.2-21.6 47.2-47.2 0-26.4-21.6-47.2-47.2-47.2-26.4 0-47.2 21.6-47.2 47.2 0 26.4 21.6 47.2 47.2 47.2v0zM803.2 622.4c15.2 0 25.6 17.6 25.6 27.2v124.8c0 27.2-21.6 48.8-48.8 48.8h-536c-27.2 0-48.8-21.6-48.8-48.8v-124c0-10.4 7.2-28 33.6-27.2h574.4zM306.4 760c26.4 0 47.2-21.6 47.2-47.2 0-26.4-21.6-47.2-47.2-47.2-26.4 0-47.2 21.6-47.2 47.2s21.6 47.2 47.2 47.2v0zM220.8 400.8c-21.6 0-24.8-17.6-24.8-27.2v-124c0-27.2 21.6-48.8 48.8-48.8h536c26.4 0 48.8 21.6 48.8 48.8v124c0 10.4 0 28.8-25.6 27.2h-583.2zM306.4 264c-26.4 0-47.2 21.6-47.2 47.2 0 26.4 21.6 47.2 47.2 47.2 26.4 0 47.2-21.6 47.2-47.2 0.8-25.6-20.8-47.2-47.2-47.2v0z" />
<glyph unicode="&#xe934;" glyph-name="collection-create" data-tags="collection-create" d="M260.8 710.4h-56.8v-453.6c0-32 25.6-56.8 56.8-56.8h451.2v56.8h-451.2v453.6zM768.8 824h-396c-29.6 0-55.2-25.6-55.2-56.8v-396c0-32 25.6-56.8 56.8-56.8h396c32 0 56.8 25.6 56.8 56.8v396c-1.6 31.2-26.4 56.8-58.4 56.8v0zM712 541.6h-113.6v-113.6h-56.8v113.6h-114.4v56.8h113.6v112h56.8v-113.6h114.4v-55.2z" />
<glyph unicode="&#xe935;" glyph-name="consume-token" data-tags="consume-token" d="M773.519 712.832c-25.938 24.861-56.764 44.86-90.862 58.388l-1.903 0.666c-28.611 11.19-61.737 17.675-96.378 17.675-3.859 0-7.698-0.080-11.518-0.24l0.546 0.018c75.286-3.35 142.452-35.565 191.202-85.763l0.067-0.069c47.903-49.422 77.431-116.897 77.431-191.268s-29.528-141.846-77.5-191.34l0.069 0.071c-48.834-50.198-116.008-82.337-190.679-85.572l-0.59-0.020c3.821-0.195 8.296-0.307 12.798-0.307 33.979 0 66.478 6.34 96.377 17.902l-1.825-0.621c104.795 41.107 177.646 141.365 177.646 258.637 0 0.607-0.002 1.214-0.006 1.82v-0.093c-0.315 78.459-32.745 149.283-84.816 200.057l-0.059 0.057zM811.295 512.717c-0.397 152.341-123.985 275.684-276.382 275.684-71.628 0-136.892-27.248-185.993-71.944l0.222 0.2v50.208c0 33.011-26.761 59.771-59.771 59.771s-59.771-26.761-59.771-59.771v0-509.73c0-33.011 26.761-59.771 59.771-59.771s59.771 26.761 59.771 59.771v0 51.403c48.994-44.839 114.532-72.312 186.487-72.312 152.728 0 276.547 123.773 276.622 276.484v0.007zM626.243 585.877h-65.031v-191.268h-53.316v191.268h-64.792v44.47h183.139z" />
<glyph unicode="&#xe936;" glyph-name="copy" data-tags="copy" d="M512.8 606.4h120l-120 123.2zM488.8 606.4v123.2h-239.2v-530.4h383.2v386.4h-144zM656.8 824v-119.2h119.2zM632.8 704.8v119.2h-239.2v-74.4h132l131.2-131.2v-320.8h119.2v382.4h-143.2z" />
<glyph unicode="&#xe937;" glyph-name="cut" data-tags="cut" d="M492 463.2l348.8-4-18.4 18.4c0 0-147.2 147.2-344.8 7.2l-62.4 95.2c7.2 7.2 14.4 14.4 18.4 25.6 22.4 40 7.2 88-32.8 110.4s-88 7.2-110.4-32.8-7.2-88 32.8-110.4c22.4-11.2 48-11.2 69.6-4l55.2-84h-96c0 25.6-18.4 51.2-40 62.4-40 22.4-88 7.2-110.4-32.8s-7.2-88 32.8-110.4 88-7.2 110.4 32.8c4 7.2 7.2 14.4 7.2 25.6h110.4c-4-61.6 7.2-106.4 25.6-142.4h-40v-22.4h162.4v22.4h-22.4l-96 143.2zM333.6 588c-25.6 18.4-40 51.2-25.6 80.8s51.2 40 80.8 25.6c29.6-14.4 40-51.2 25.6-80.8s-51.2-36.8-80.8-25.6zM326.4 448c-18.4-25.6-51.2-40-80.8-22.4-29.6 14.4-40 48-25.6 76.8 14.4 29.6 51.2 40 80.8 25.6s40.8-50.4 25.6-80zM356 320h69.6v-22.4h-69.6v22.4zM635.2 320h69.6v-22.4h-69.6v22.4zM260.8 320h69.6v-22.4h-69.6v22.4zM730.4 320h69.6v-22.4h-69.6v22.4z" />
<glyph unicode="&#xe938;" glyph-name="data-receive" data-tags="data-receive" d="M391.715 779.616l-147.33-147.33 268.904-268.904-115.392-115.392 381.72-3.606-3.606 381.72-115.392-115.392z" />
<glyph unicode="&#xe939;" glyph-name="data-send" data-tags="data-send" d="M244.384 391.715l147.33-147.33 268.904 268.904 115.392-115.392 3.606 381.72-381.72-3.606 115.392-115.392z" />
<glyph unicode="&#xe93a;" glyph-name="file" data-tags="file" d="M627.2 342.4h76l-85.6-90.4v80.8c0 4.8 4.8 9.6 9.6 9.6v0zM589.6 200h-300c-9.6 0-14.4 4.8-14.4 14.4v593.6c0 9.6 4.8 14.4 14.4 14.4h441.6c9.6 0 19.2-4.8 19.2-14.4v-437.6h-123.2c-19.2 0-38.4-14.4-38.4-38.4v-132zM347.2 732c0-9.6 4.8-14.4 14.4-14.4h266.4c9.6 0 14.4 4.8 14.4 14.4s-4.8 14.4-14.4 14.4h-267.2c-4.8 4.8-13.6-4.8-13.6-14.4v0zM347.2 641.6c0-9.6 4.8-14.4 14.4-14.4h266.4c9.6 0 14.4 4.8 14.4 14.4s-4.8 14.4-14.4 14.4h-267.2c-4.8 0-13.6-4.8-13.6-14.4v0zM347.2 547.2c0-9.6 4.8-14.4 14.4-14.4h218.4c9.6 0 14.4 4.8 14.4 14.4s0 14.4-9.6 14.4h-224c-4.8-0.8-13.6-4.8-13.6-14.4v0zM360.8 437.6h304c9.6 0 14.4 4.8 14.4 14.4s-4.8 14.4-14.4 14.4h-304c-9.6 0-14.4-4.8-14.4-14.4 0.8-4.8 9.6-14.4 14.4-14.4v0z" />
<glyph unicode="&#xe93b;" glyph-name="folder-new" data-tags="folder-new" d="M778.4 592.8h-574.4v91.2c0 28.8 23.2 52 52 52h130.4c28.8 0 52-23.2 52-52v-12.8h240v-26.4c0-11.2 8.8-20 20-20h80.8v-32zM798.4 524c-11.2 0-20 8.8-20 20v23.2h-574.4v-312.8c0-28.8 23.2-52 52-52h520c28.8 0 52 23.2 52 52v269.6h-29.6zM956 723.2c11.2 0 20-8.8 20-20v-40c0-11.2-8.8-20-20-20h-80v-80c0-11.2-8.8-20-20-20h-40c-11.2 0-20 8.8-20 20v80h-80.8c-11.2 0-20 8.8-20 20v40c0 11.2 8.8 20 20 20h80.8v80.8c0 11.2 8.8 20 20 20h40c11.2 0 20-8.8 20-20v-80.8h80z" />
<glyph unicode="&#xe93c;" glyph-name="folder-open" data-tags="folder-open" d="M286.4 242.4l136.8 160.8c12 13.6 28 25.6 48.8 35.2s40.8 14.4 58.4 14.4h279.2v168.8c0 28-22.4 50.4-50.4 50.4h-328v12.8c0 28-22.4 50.4-50.4 50.4h-126.4c-28 0-50.4-22.4-50.4-50.4v-416c0-28 22.4-50.4 50.4-50.4h20c0 7.2 4 15.2 12 24zM1013.6 422.4c-7.2 3.2-15.2 5.6-24.8 5.6h-442.4c-17.6 0-37.6-4.8-58.4-14.4s-37.6-21.6-48.8-35.2l-136.8-160.8c-8-9.6-12.8-18.4-12.8-27.2 0-8 4-13.6 10.4-17.6 7.2-3.2 15.2-5.6 24.8-5.6h442.4c17.6 0 37.6 4.8 58.4 14.4s37.6 21.6 48.8 35.2l136.8 160.8c8.8 9.6 12.8 18.4 12.8 27.2 0 8-3.2 14.4-10.4 17.6v0z" />
<glyph unicode="&#xe93d;" glyph-name="folder-share" data-tags="folder-share" d="M202.4 527.2v-274.4c0-28.8 23.2-52 52-52h523.2c28.8 0 52 23.2 52 52v313.6h-627.2v-39.2zM429.6 446.4c12.8 0 25.6-6.4 33.6-16.8l96 40c0 2.4-0.8 4-0.8 6.4 0 23.2 19.2 41.6 41.6 41.6 23.2 0 41.6-18.4 43.2-41.6 0-23.2-19.2-42.4-41.6-42.4-12.8 0-25.6 6.4-33.6 16.8l-96-40c0-1.6 0.8-4 0.8-5.6 0-4.8-0.8-10.4-3.2-15.2l59.2-43.2c7.2 6.4 16.8 9.6 27.2 9.6 23.2 0 41.6-19.2 41.6-41.6 0-23.2-19.2-41.6-41.6-41.6-23.2 0-41.6 19.2-41.6 41.6 0 4.8 0.8 10.4 2.4 14.4l-60 43.2c-8-6.4-17.6-9.6-27.2-9.6-23.2 0-41.6 19.2-41.6 41.6 0 24 19.2 42.4 41.6 42.4zM777.6 670.4h-340v12.8c0 28.8-23.2 52-52 52h-131.2c-28.8 0-52-23.2-52-52v-91.2h628v26.4c-0.8 28.8-24 52-52.8 52z" />
<glyph unicode="&#xe93e;" glyph-name="folder" data-tags="folder" d="M204 567.302v-306.536c0-22.706 22.706-56.766 56.766-56.766h510.894c22.706 0 56.766 22.706 56.766 56.766v306.536h-624.426zM828.426 601.362v22.706c0 22.706-22.706 56.766-56.766 56.766h-340.596c0 34.060-22.706 56.766-45.413 56.766h-124.885c-34.060 0-56.766-22.706-56.766-56.766v-79.472h624.426z" />
<glyph unicode="&#xe93f;" glyph-name="globe-cursor" data-tags="globe-cursor" d="M524 267.2v118.4c14.4-0.8 28-1.6 41.6-4l-8 40c-11.2 1.6-22.4 2.4-34.4 2.4v78.4h103.2c-0.8-21.6-3.2-43.2-6.4-63.2l35.2-22.4c5.6 27.2 8.8 56 9.6 85.6h96.8c-1.6-45.6-17.6-88-41.6-124.8l32.8-20.8c31.2 47.2 49.6 104 49.6 164.8 0 164-133.6 297.6-297.6 297.6s-297.6-133.6-297.6-297.6 133.6-297.6 297.6-297.6c31.2 0 60.8 4.8 88.8 13.6l-15.2 79.2c-13.6-22.4-32-41.6-54.4-49.6zM715.2 672.8c27.2-37.6 44-82.4 47.2-131.2h-96c-1.6 35.2-5.6 69.6-13.6 101.6 23.2 8 44 17.6 62.4 29.6zM690.4 702.4c-14.4-8.8-30.4-16-48-22.4-9.6 28.8-23.2 57.6-40.8 81.6 33.6-12.8 64-33.6 88.8-59.2zM524 777.6c40-14.4 67.2-67.2 80.8-108-25.6-6.4-52.8-9.6-80.8-11.2v119.2zM524 620c32 1.6 62.4 5.6 91.2 12.8 6.4-28 10.4-59.2 12-90.4h-103.2v77.6zM408 762.4c-17.6-24.8-31.2-53.6-40.8-81.6-17.6 6.4-33.6 13.6-48 22.4 24.8 24.8 55.2 45.6 88.8 59.2zM294.4 672.8c18.4-11.2 39.2-21.6 62.4-29.6-7.2-32-12-66.4-13.6-101.6h-96.8c4 48.8 20.8 93.6 48 131.2zM294.4 372c-27.2 37.6-44 82.4-47.2 131.2h96.8c1.6-35.2 5.6-69.6 13.6-101.6-24-8-44.8-18.4-63.2-29.6zM319.2 341.6c14.4 8.8 30.4 16 48 22.4 9.6-28.8 23.2-57.6 40.8-81.6-33.6 13.6-64 33.6-88.8 59.2zM485.6 267.2c-40 14.4-67.2 67.2-80.8 108 25.6 6.4 52.8 9.6 80.8 11.2v-119.2zM485.6 424.8c-32-1.6-62.4-5.6-91.2-12.8-6.4 28-10.4 59.2-12 90.4h103.2v-77.6zM485.6 541.6h-103.2c0.8 32 4.8 62.4 12 90.4 28.8-7.2 60-11.2 91.2-12.8v-77.6zM485.6 658.4c-28 0.8-55.2 4.8-80.8 11.2 13.6 40.8 40.8 93.6 80.8 108v-119.2zM733.6 258.4l91.2 18.4-228 141.6-5.6-4 51.2-264 49.6 78.4 48-70.4c8.8-13.6 25.6-17.6 37.6-9.6 11.2 8 13.6 25.6 4.8 38.4l-48.8 71.2z" />
<glyph unicode="&#xe940;" glyph-name="globe-filled" data-tags="globe-filled" d="M527.536 527.536h170.896c-1.070 55.42-7.889 110.53-20.314 164.273-49.263 13.555-99.78 20.992-150.581 22.159zM527.536 900.399v-154.701c47.012-0.857 93.836-6.28 139.824-16.194-31.174 93.927-82.229 159.836-139.824 170.896zM620.752 884.863c44.398-48.837 76.087-107.847 92.29-171.83 63.974-16.194 122.984-47.884 171.821-92.281-38.279 126.689-137.413 225.833-264.111 264.111zM527.536 310.033c50.801 1.176 101.318 8.605 150.581 22.158 12.425 53.749 19.245 108.856 20.314 164.274h-170.896zM745.691 496.464c-0.857-47.017-6.273-93.839-16.188-139.824 93.914 31.178 159.843 82.222 170.896 139.824zM620.752 139.137c126.699 38.272 225.836 137.418 264.111 264.111-48.832-44.388-107.834-76.073-171.798-92.275-16.203-63.98-47.904-122.998-92.314-171.836zM527.536 123.601c57.595 11.069 108.649 76.99 139.824 170.896-45.987-9.914-92.812-15.338-139.824-16.193zM729.503 667.36c9.915-45.987 15.331-92.814 16.188-139.824h154.708c-11.052 57.605-76.982 108.644-170.896 139.824zM325.569 527.536h170.896v186.431c-50.801-1.167-101.318-8.604-150.581-22.159-12.425-53.743-19.245-108.852-20.314-164.273zM139.137 403.248c38.274-126.696 137.413-225.839 264.111-264.111-44.39 48.829-76.078 107.829-92.279 171.8-63.982 16.202-123.002 47.905-171.833 92.311zM310.97 713.035c16.201 63.981 47.889 122.991 92.279 171.828-126.691-38.27-225.829-137.413-264.111-264.111 48.839 44.398 107.851 76.096 171.833 92.284zM278.309 527.536c0.857 47.009 6.273 93.836 16.188 139.824-93.915-31.18-159.843-82.218-170.896-139.824zM496.464 900.399c-57.595-11.075-108.649-76.986-139.824-170.896 45.987 9.923 92.812 15.355 139.824 16.209zM294.497 356.64c-9.915 45.984-15.331 92.808-16.188 139.824h-154.707c11.052-57.6 76.981-108.643 170.896-139.824zM496.464 123.601v154.699c-47.012 0.855-93.836 6.279-139.824 16.197 31.174-93.922 82.229-159.843 139.824-170.896zM345.883 332.19c49.263-13.555 99.78-20.982 150.581-22.158v186.431h-170.896c1.070-55.418 7.889-110.525 20.314-164.274z" />
<glyph unicode="&#xe941;" glyph-name="globe" data-tags="globe" d="M864.619 594.266l1.188 1.263c0.495-1.976 0.941-4.056 1.436-6.192l-2.624 4.927zM399.415 688.226l3.318 3.422 5.561-3.422-4.457-3.664-4.457 3.664zM410.067 678.53v-7.088h-11.528l-3.169 4.605v6.538h0.941l13.746-4.056zM360.9 690.527h12.018l-15.356-21.55-6.358 3.422 1.337 9.064 8.349 9.064zM389.7 676.045v-7.068l-5.175-5.174h-11.607l1.832 7.883 5.482 0.495 1.139 2.709 8.349 1.183zM386.283 693.481v8.595l7.497-6.762-7.497-1.832zM392.414 690.529v-7.231l-5.417-3.501-6.824-1.263v11.997h12.241zM382.475 700.958v-7.475h-21.793l-8.126 2.218 2.080 5.255 10.409 4.298h14.256v-4.298h3.169zM331.942 728.17l9.493 4.541 8.577-2.080-2.922-11.528-9.304-2.951-5.828 12.018zM858.736 612.559h-28.963l-17.658 13.138-18.614-1.753v-11.386h-5.888l-6.373 4.541-32.142 8.188v20.858l-40.818-3.199-12.647-6.824h-16.232l-7.948 0.876-19.674-10.999v-20.511l-40.164-28.964 3.318-12.425h8.21l-2.179-11.773-5.724-2.139-0.495-30.797 34.688-39.617h15.197l0.891 2.466h27.215l7.799 7.231h15.44l8.433-8.432 22.996-2.466-3.021-30.472 25.541-45.034-13.444-25.705 0.891-12.078 10.592-10.51v-29.127l13.83-18.617v-24.178h12.013c-66.661-81.963-168.258-134.472-281.952-134.472-200.524 0-363.528 163.111-363.528 363.617 0 50.432 10.33 98.583 28.943 142.253v11.386l13.058 15.745c4.556 8.514 9.309 16.865 14.479 24.992l0.644-6.6-15.113-18.393c-4.704-8.819-9.067-17.822-12.974-27.131v-20.674l15.049-7.251v-28.801l14.484-24.667 11.855-1.832 1.486 8.432-13.929 21.489-2.724 20.837h8.126l3.417-21.468 20.124-29.29-5.254-9.471 12.81-19.574 31.751-7.78v5.092l12.652-1.832-1.188-9.003 10.022-1.812 15.356-4.214 21.734-24.829 27.844-2.080 2.723-22.65-19.025-13.301-0.842-20.226-2.823-12.404 27.542-34.443 2.179-11.793c0 0 9.938-2.689 11.117-2.689 1.188 0 22.367-15.989 22.367-15.989v-62.287l7.556-2.1-5.175-28.719 12.731-16.947-2.278-28.394 16.702-29.534 21.57-18.759 21.63-0.396 2.080 6.925-15.826 13.443 0.891 6.6 2.872 8.208 0.545 8.27-10.75 0.297-5.397 6.763 8.898 8.677 1.188 6.457-9.963 2.852 0.594 6.050 14.241 2.159 21.63 10.327 7.249 13.301 22.669 29.045-5.175 22.67 6.928 12.099 20.857-0.654 14.073 11.060 4.556 43.772 15.524 19.798 2.773 12.669-14.236 4.605-9.389 15.378-31.979 0.297-25.378 9.614-1.188 18.168-8.512 14.767-22.917 0.347-13.276 20.857-11.795 5.805-0.594-6.375-21.427-1.263-7.863 10.897-22.362 4.521-18.455-21.224-28.963 4.848-2.179 32.691-21.164 3.664 8.517 15.989-2.476 9.227-27.76-18.617-17.5 2.159-6.21 13.688 3.763 14.075 9.696 17.822 22.199 11.223h42.873v-13.056l15.415-7.231-1.188 22.344 11.057 11.223 22.427 14.727 1.585 10.347 22.362 23.302 23.709 13.138-2.080 1.753 16.074 15.113 5.883-1.525 2.723-3.402 6.111 6.762 1.535 0.713-6.7 0.956-6.824 2.218v6.518l3.664 2.951h7.883l3.664-1.59 3.169-6.375 3.813 0.629v0.57l1.139-0.396 11.142 1.669 1.585 5.499 6.373-1.59v-5.968l-5.903-4.075 0.891-6.436 20.144-6.213v-0.248l4.605 0.396 0.495 8.758-15.989 7.231-0.891 4.214 13.276 4.541 0.545 12.73-13.91 8.432-0.891 21.407-19-9.308h-6.947l1.733 16.315-25.848 6.111-10.755-8.107v-24.748l-19.248-6.050-7.7-16.152-8.453-1.347v20.613l-18.064 2.545-9.062 5.886-3.664 13.362 32.385 18.942 15.93 4.848 1.585-10.673 8.819 0.396 0.644 5.418 9.25 1.263v1.916l-3.961 1.669-0.891 5.642 11.389 0.956 6.843 7.17 0.495 0.495 2.080 2.159 23.873 3.016 10.567-8.983-27.676-14.726 35.153-8.351 4.605 11.773h15.356l5.501 10.266-10.919 2.788v12.954l-34.138 15.113-23.546-2.689-13.281-7.007 0.891-16.865-13.929 2.055-2.129 9.39 13.36 12.099-24.195 1.203-6.908-2.159-3.021-8.107 9.062-1.525-1.832-9.064-15.44-0.956-2.377-5.968-22.367-0.629c0 0-0.545 12.649-1.486 12.649-0.891 0 17.495 0.347 17.495 0.347l13.365 13.036-7.314 3.585-9.636-9.39-16.069 0.956-9.611 13.28h-20.53l-21.491-15.989h19.654l1.832-5.805-5.095-4.684 21.714-0.654 3.318-7.862-24.502 0.956-1.188 6.029-15.361 3.362-8.205 4.521-18.292-0.149c59.981 43.69 133.759 69.538 213.557 69.538 91.96 0 175.899-34.362 240.035-90.782l-4.308-7.699-16.782-6.62-7.086-7.638 1.585-8.982 8.676-1.203 5.254-13.036 14.87 6.050 2.476-17.435h-4.457l-12.241 1.832-13.608-2.303-13.137-18.617-18.842-2.951-2.724-16.071 7.943-1.916-2.278-10.347-18.693 3.749-17.114-3.749-3.565-9.451 2.971-20.063 10.022-4.684 16.861 0.099 11.389 1.020 3.516 9.085 17.822 23.077 11.691-2.402 11.528 10.429 2.179-8.107 28.394-19.187-3.466-4.605-12.81 0.629 4.952-6.925 7.883-1.753 9.225 3.828v11.142l4.060 2.055-3.268 3.506-18.946 10.51-5.011 14.075h15.767l5.011-5.011 13.608-11.691 0.544-14.095 13.989-14.95 5.259 20.45 9.716 5.337 1.832-16.804 9.532-10.408 18.941 0.297c3.664-9.39 6.928-19.004 9.795-28.801l-1.981-1.832zM311.105 769.865c0 0 7.883 1.347 8.596 1.347 0.644 0 0-7.944 0-7.944l-17.901-1.119-3.417 4.056 12.726 3.664zM298.379 787.524v0.629h7.963l0.644 2.709h13.038v-5.642l-3.714-4.927h-17.901v7.231zM776.229 743.528v17.741c6.215-6.599 12.261-13.443 17.985-20.45l-7.17-10.653-24.888 0.248-1.585 5.174 15.583 7.964zM833.522 674.378l2.278 2.624c3.021-5.886 5.803-11.854 8.512-17.822l-3.763 0.099-7.071-0.956v16.071zM908.071 516.054c0 11.61-0.694 23.159-1.832 34.443-3.664 37.722-12.647 73.917-26.17 107.892-1.040 2.466-1.981 5.092-3.021 7.556-17.965 42.57-43.363 81.331-74.302 114.817-1.981 2.159-4.060 4.298-6.13 6.457-5.888 6.029-11.855 11.997-18.129 17.659-70.435 64.12-164.004 103.268-266.477 103.268-103.364 0-197.652-39.861-268.225-104.938-16.455-15.195-31.588-31.755-45.255-49.414-51.796-66.992-82.676-150.849-82.676-241.794 0-218.492 177.751-396.146 396.155-396.146 153.695 0 287.047 88.012 352.772 216.17 13.994 27.375 24.972 56.563 32.306 87.197 1.882 7.822 3.516 15.602 4.952 23.546 3.962 22.466 6.106 45.605 6.106 69.232 0 1.347 0 2.709 0 4.056v0z" />
<glyph unicode="&#xe942;" glyph-name="group-add" data-tags="group-add" d="M706.4 461.6v64.8h-181.6v39.2h116.8v258.4h-259.2v-259.2h116.8v-39.2h-181.6v-64.8h-116.8v-259.2h259.2v260h-116v39.2h336v-39.2h-116v-259.2h259.2v259.2h-116.8zM770.4 320c0-5.6-4.8-10.4-10.4-10.4h-40.8v-40.8c0-5.6-4.8-10.4-10.4-10.4h-20.8c-5.6 0-10.4 4.8-10.4 10.4v40.8h-40.8c-5.6 0-10.4 4.8-10.4 10.4v20.8c0 5.6 4.8 10.4 10.4 10.4h40.8v40.8c0 5.6 4.8 10.4 10.4 10.4h20.8c5.6 0 10.4-4.8 10.4-10.4v-40.8h40.8c5.6 0 10.4-4.8 10.4-10.4v-20.8z" />
<glyph unicode="&#xe943;" glyph-name="group-invite" data-tags="group-invite" d="M390.4 388.8c22.4 8 67.2 25.6 107.2 37.6 5.6 1.6 10.4 1.6 13.6 5.6h1.6c4 1.6 8 1.6 12 4 4 1.6 4 1.6 4 15.2 0 1.6 0 7.2-1.6 8 0 1.6-1.6 4-1.6 5.6s0 1.6-1.6 1.6c0 1.6-1.6 1.6-1.6 5.6-1.6 4-4 7.2-5.6 12-1.6 1.6-1.6 7.2-4 10.4 0 1.6-1.6 1.6-1.6 4-2.4 0.8-2.4 4.8-2.4 6.4s-1.6 1.6-1.6 4c-1.6 1.6-1.6 5.6-1.6 7.2-1.6 1.6-1.6 5.6-1.6 8 0 1.6 0 1.6-1.6 4v0 0c-1.6 1.6-5.6 7.2-7.2 12l-2.4 1.6c0 1.6-1.6 1.6-1.6 4-1.6 1.6-1.6 4-1.6 7.2v0c-1.6 1.6-1.6 4-1.6 7.2v0c0-0.8 0 3.2 0 4.8v0c-1.6 1.6-1.6 7.2-1.6 10.4 0 1.6-1.6 5.6-1.6 7.2v1.6c0 1.6 0 4-1.6 5.6v1.6c0 1.6 0 1.6 0 4 0 1.6 0 1.6 0 1.6 0 1.6 0 1.6 0 1.6 0 1.6 0 1.6 0 1.6v1.6c0 1.6 0 1.6 0 4v0c0 1.6 0 1.6 1.6 4v0c0 1.6 0 1.6 1.6 1.6v1.6c0 0 0 1.6 1.6 1.6v0 1.6c0 7.2 0 22.4-1.6 36.8v0c0 1.6 0 5.6-1.6 7.2 0 1.6 0 1.6 0 1.6 0 1.6-1.6 5.6-1.6 7.2v1.6c0 1.6 0 4-1.6 7.2 0 10.4 1.6 25.6 7.2 39.2 4 10.4 8 19.2 15.2 29.6v0c1.6 1.6 4 5.6 7.2 7.2 1.6 1.6 1.6 1.6 4 4 1.6 1.6 1.6 1.6 1.6 1.6 1.6 1.6 4 4 7.2 5.6l1.6 1.6c1.6 1.6 5.6 4 8 5.6h1.6c1.6 1.6 7.2 4 10.4 5.6h1.6c4 1.6 7.2 1.6 10.4 4 1.6 0 1.6 0 1.6 1.6 4 1.6 7.2 1.6 12 1.6 1.6 0 1.6 0 1.6 0 5.6 1.6 10.4 1.6 15.2 1.6h25.6c1.6 0 7.2-1.6 8-1.6 1.6 0 5.6 0 7.2-1.6 1.6 0 5.6-1.6 7.2-1.6s5.6-1.6 7.2-1.6c1.6-1.6 5.6-1.6 7.2-1.6 1.6-1.6 4-1.6 7.2-1.6 1.6-1.6 4-1.6 7.2-1.6 1.6-1.6 4-1.6 5.6-1.6 1.6-1.6 4-1.6 5.6-4 1.6-1.6 1.6-1.6 4-1.6 1.6-1.6 4-1.6 5.6-4 1.6-1.6 1.6-1.6 1.6-1.6 1.6-1.6 4-4 5.6-5.6l1.6-1.6c1.6-1.6 4-4 5.6-7.2 22.4-27.2 24-60.8 22.4-76v-1.6c0-1.6-1.6-4-1.6-7.2-1.6-7.2-1.6-17.6-1.6-24v-1.6c0-1.6 0-4 0-5.6s0-1.6 0-1.6 0-1.6 0-4c0-1.6 0-1.6 0-1.6 0-1.6 0-4 0-5.6v0c0-1.6 0-1.6 0-4v0 0c0-1.6 0-1.6 1.6-1.6 1.6-5.6 1.6-10.4 4-15.2v0c0-1.6 0-1.6 0-4 0-1.6 0-1.6 0-1.6 0-1.6 0-1.6 0-1.6 0-1.6 0-1.6 0-4s0-1.6 0-1.6c0-1.6-1.6-5.6-1.6-7.2-5.6-24-12-37.6-17.6-46.4-3.2-3.2-3.2-3.2-3.2-3.2-1.6-7.2-1.6-13.6-5.6-22.4 0-1.6 0-1.6-1.6-4-1.6-1.6-1.6-4-1.6-7.2 0-1.6-1.6-4-1.6-5.6-1.6-4-1.6-7.2-4-8-1.6-1.6-1.6-3.2-1.6-6.4v-1.6c0-1.6-1.6-4-1.6-7.2 0-1.6 0-1.6 0-4 0-1.6 0-4-1.6-7.2 0-4 0-7.2 0-12 0-10.4 0-12 1.6-13.6v0c0 0 0 0 1.6 0h1.6c1.6-1.6 5.6-1.6 7.2-1.6 17.6-5.6 36.8-12 52.8-17.6 0 0 1.6 0 1.6-1.6 1.6-1.6 4-1.6 7.2-1.6 1.6 0 1.6-1.6 4-1.6s2.4-3.2 4-3.2c1.6-1.6 4-1.6 5.6-1.6h1.6c1.6-1.6 5.6-1.6 7.2-1.6h1.6c12-4 22.4-7.2 31.2-12 4-1.6 7.2-4 12-5.6 1.6-1.6 4-1.6 7.2-4 1.6 0 1.6-1.6 1.6-1.6 1.6-1.6 1.6-1.6 1.6-1.6 1.6-1.6 1.6-1.6 1.6-1.6 1.6-1.6 1.6-1.6 1.6-1.6 1.6-1.6 1.6-1.6 1.6-1.6 0-1.6 1.6-1.6 1.6-1.6 0-1.6 1.6-1.6 1.6-1.6s0-1.6 1.6-1.6c0-1.6 1.6-1.6 1.6-4v-1.6c0-1.6 0-1.6 1.6-4v-1.6c0-1.6 0-4 0-7.2 0-12 0-52 0-62.4v4c0-8-5.6-24-24-24 0 0 0 0-1.6 0-17.6 0-134.4 0-188 0-17.6 0-27.2 0-27.2 0h-5.6c0 0-10.4 0-27.2 0-52.8 0-170.4 0-188 0h0.8c-17.6 0-24 12-24 22.4v64c-0.8 12 7.2 30.4 28 38.4zM181.6 416c22.4 8 77.6 27.2 108.8 37.6 1.6 1.6 4 1.6 4 12s-4 19.2-7.2 27.2c-3.2 8-8 24-12 37.6-5.6 7.2-12 17.6-17.6 39.2-4 19.2-1.6 27.2 0 32.8 0 1.6 0 1.6 1.6 1.6 1.6 5.6 0 27.2-4 46.4-1.6 12 0 39.2 17.6 62.4 12 13.6 32.8 31.2 70.4 32.8h20.8c37.6-1.6 58.4-19.2 68.8-32.8 17.6-22.4 20.8-48.8 17.6-62.4-4-17.6-5.6-41.6-4-46.4 0-1.6 0-1.6 1.6-1.6 1.6-7.2 4-13.6 0-32.8-4-22.4-12-32.8-17.6-39.2-1.6-13.6-7.2-27.2-12-37.6-1.6-7.2-5.6-15.2-5.6-27.2s0-12 1.6-12c12-4 24-7.2 37.6-12-31.2-10.4-62.4-22.4-77.6-27.2-31.2-12-44.8-41.6-44.8-62.4v-37.6c-1.6 0-4 0-7.2 0-43.2 0-140.8 0-152 0-15.2 0-20.8 12-20.8 20.8s0 41.6 0 52c6.4 8 14.4 21.6 32 28.8zM988.8 598.4c8 0 15.2-7.2 15.2-15.2v-30.4c0-8-7.2-15.2-15.2-15.2h-60v-60c0-8-7.2-15.2-15.2-15.2h-30.4c-8 0-15.2 7.2-15.2 15.2v60h-60c-8 0-15.2 7.2-15.2 15.2v30.4c0 8 7.2 15.2 15.2 15.2h60v60c0 8 7.2 15.2 15.2 15.2h30.4c8 0 15.2-7.2 15.2-15.2v-60h60z" />
<glyph unicode="&#xe944;" glyph-name="group-leave-group" data-tags="group-leave-group" d="M664.8 264.8v165.6c0 11.2-8 20.8-18.4 20.8s-18.4-9.6-18.4-20.8v-165.6c0-11.2-8-20.8-18.4-20.8h-369.6c-10.4 0-18.4 9.6-18.4 20.8l-0.8 497.6c0 11.2 8 20.8 18.4 20.8h369.6c10.4 0 18.4-9.6 18.4-20.8v-165.6c0-11.2 8-20.8 18.4-20.8s18.4 9.6 18.4 20.8v165.6c0 34.4-24.8 62.4-55.2 62.4h-369.6c-30.4 0-55.2-28-55.2-62.4v-497.6c0-34.4 24.8-62.4 55.2-62.4h369.6c31.2 0.8 56 28.8 56 62.4zM846.4 521.6v0l-109.6 109.6c-7.2 7.2-18.4 7.2-25.6 0s-7.2-18.4 0-25.6l78.4-78.4h-229.6c-10.4 0-18.4-8-18.4-18.4s8-18.4 18.4-18.4h229.6l-78.4-78.4c-7.2-7.2-7.2-18.4 0-25.6 3.2-3.2 8-5.6 12.8-5.6s9.6 1.6 12.8 5.6l109.6 109.6c7.2 7.2 7.2 18.4 0 25.6zM532 288h-216.8c-29.6 0-53.6 22.4-53.6 50.4l0.8 350.4c0 28 24 50.4 53.6 50.4h216.8c29.6 0 53.6-22.4 53.6-50.4v-93.6c0-8-6.4-13.6-13.6-13.6s-13.6 6.4-13.6 13.6v93.6c0 12.8-11.2 22.4-25.6 22.4h-216.8c-14.4 0-25.6-10.4-25.6-22.4l-0.8-350.4c0-12.8 11.2-22.4 25.6-22.4h216.8c14.4 0 25.6 10.4 25.6 22.4v86.4c0 8 6.4 13.6 13.6 13.6 8 0 13.6-6.4 13.6-13.6v-86.4c0-28-24-50.4-53.6-50.4z" />
<glyph unicode="&#xe945;" glyph-name="group" data-tags="group" d="M389.6 387.2c22.4 8.8 67.2 25.6 107.2 37.6 4.8 1.6 10.4 1.6 13.6 4.8h1.6c3.2 1.6 8.8 1.6 12 3.2s3.2 1.6 3.2 15.2c0 1.6 0 7.2-1.6 8.8 0 1.6-1.6 3.2-1.6 4.8s0 1.6-1.6 1.6c0 1.6-1.6 1.6-1.6 4.8-1.6 3.2-3.2 7.2-4.8 12-1.6 1.6-1.6 7.2-3.2 10.4 0 1.6-1.6 1.6-1.6 3.2-1.6 1.6-1.6 4.8-1.6 7.2s-1.6 1.6-1.6 3.2c-1.6 1.6-1.6 4.8-1.6 7.2-1.6 1.6-1.6 4.8-1.6 8.8 0 1.6 0 1.6-1.6 3.2v0 0c-1.6 1.6-4.8 7.2-7.2 12l-1.6 1.6c0 1.6-1.6 1.6-1.6 3.2-1.6 1.6-1.6 3.2-1.6 7.2v0c-3.2 4-3.2 5.6-3.2 9.6v0c-1.6 1.6-1.6 4.8-1.6 7.2v0c-1.6 1.6-1.6 7.2-1.6 10.4 0 1.6-1.6 4.8-1.6 7.2v1.6c0 1.6 0 3.2-1.6 4.8v1.6c0 1.6 0 1.6 0 3.2s0 1.6 0 1.6c0 1.6 0 1.6 0 1.6 0 1.6 0 1.6 0 1.6v2.4c0 1.6 0 1.6 0 3.2v0c0 1.6 0 1.6 1.6 3.2v0c0 1.6 0 1.6 1.6 1.6v1.6c0 0 0 1.6 1.6 1.6v0 3.2c0 7.2 0 22.4-1.6 36v0c0 1.6 0 4.8-1.6 7.2 0 1.6 0 1.6 0 1.6 0 1.6-1.6 4.8-1.6 7.2v1.6c0 1.6 0 3.2-1.6 7.2 0 10.4 1.6 25.6 7.2 40 3.2 10.4 8.8 19.2 15.2 29.6v0c1.6 1.6 3.2 4.8 7.2 7.2 1.6 1.6 1.6 1.6 3.2 3.2s1.6 1.6 1.6 1.6c1.6 1.6 3.2 3.2 7.2 4.8l1.6 1.6c1.6 1.6 4.8 3.2 8.8 4.8h1.6c1.6 1.6 7.2 3.2 10.4 4.8h1.6c3.2 1.6 7.2 1.6 10.4 3.2 1.6 0 1.6 0 1.6 1.6 3.2 1.6 7.2 1.6 12 1.6 1.6 0 1.6 0 1.6 0 4.8 1.6 10.4 1.6 15.2 1.6h25.6c1.6 0 7.2-1.6 8.8-1.6s4.8 0 7.2-1.6c1.6 0 4.8-1.6 7.2-1.6s4.8 0 6.4 0c1.6-1.6 4.8-1.6 7.2-1.6 1.6-1.6 3.2-1.6 7.2-1.6 1.6-1.6 3.2-1.6 7.2-1.6 1.6-1.6 3.2-1.6 4.8-1.6 1.6-1.6 3.2-1.6 4.8-3.2s1.6-1.6 3.2-1.6c1.6-1.6 3.2-1.6 4.8-3.2s1.6-1.6 1.6-1.6c1.6-1.6 3.2-3.2 4.8-4.8l1.6-1.6c1.6-1.6 3.2-3.2 4.8-7.2 22.4-28 24-60.8 22.4-76v-1.6c0-1.6-1.6-3.2-1.6-7.2-1.6-7.2-1.6-17.6-1.6-24v-1.6c0-1.6 0-3.2 0-4.8s0-1.6 0-1.6 0-1.6 0-3.2c0-1.6 0-1.6 0-1.6 0-1.6 0-3.2 0-4.8v0c0-1.6 0-1.6 0-3.2v0 0c0-1.6 0-1.6 1.6-1.6 1.6-4.8 1.6-10.4 3.2-15.2v0c0-1.6 0-1.6 0-3.2s0-1.6 0-1.6c0-1.6 0-1.6 0-1.6 0-1.6 0-1.6 0-3.2s0-1.6 0-1.6c0-1.6-1.6-4.8-1.6-7.2-4.8-24-12-37.6-17.6-46.4-1.6-1.6-1.6-1.6-1.6-1.6-1.6-7.2-1.6-13.6-4.8-22.4 0-1.6 0-1.6-1.6-3.2s-1.6-3.2-1.6-7.2c0-1.6-1.6-3.2-1.6-4.8-1.6-3.2-1.6-7.2-3.2-8.8s-1.6-3.2-1.6-7.2v-1.6c0-1.6-1.6-3.2-1.6-7.2 0-1.6 0-1.6 0-3.2s0-3.2-1.6-7.2c0-3.2 0-7.2 0-12 0-10.4 0-12 1.6-13.6v0c0 0 0 0 1.6 0h1.6c1.6-1.6 4.8-1.6 7.2-1.6 17.6-4.8 36-12 53.6-17.6 0 0 1.6 0 1.6-1.6 1.6-1.6 3.2-1.6 7.2-1.6 1.6 0 1.6-1.6 3.2-1.6s1.6-1.6 3.2-1.6 3.2-1.6 4.8-1.6h1.6c1.6-1.6 4.8-1.6 7.2-1.6h2.4c12-3.2 22.4-7.2 31.2-12 3.2-1.6 7.2-3.2 12-4.8 1.6-1.6 3.2-1.6 7.2-3.2 1.6 0 1.6-1.6 1.6-1.6 1.6-1.6 1.6-1.6 1.6-1.6 1.6-1.6 1.6-1.6 1.6-1.6 1.6-1.6 1.6-1.6 1.6-1.6 1.6-1.6 1.6-1.6 1.6-1.6 0-1.6 1.6-1.6 1.6-1.6 0-1.6 1.6-1.6 1.6-1.6s0-1.6 1.6-1.6c0-1.6 1.6-1.6 1.6-3.2v-1.6c0-1.6 0-1.6 1.6-3.2v-1.6c0-1.6 0-3.2 0-7.2 0-12 0-52 0-62.4v-1.6c0-8.8-4.8-24-24-24 0 0 0 0-1.6 0-17.6 0-134.4 0-188 0-17.6 0-28 0-28 0h-4.8c0 0-10.4 0-28 0-53.6 0-171.2 0-188 0h-1.6c-17.6 0-24 12-24 22.4v64c5.6 6.4 14.4 25.6 35.2 32zM180.8 415.2c22.4 8.8 77.6 28 108.8 37.6 1.6 1.6 3.2 1.6 3.2 12s-3.2 19.2-7.2 28-8.8 24-12 37.6c-4.8 7.2-12 17.6-17.6 40-3.2 19.2-1.6 28 0 32.8 0 1.6 0 1.6 1.6 1.6 1.6 4.8 0 28-3.2 46.4-1.6 12 0 40 17.6 62.4 12 13.6 32.8 31.2 70.4 32.8h20.8c37.6-1.6 58.4-19.2 68.8-32.8 17.6-22.4 20.8-48 17.6-62.4-3.2-17.6-4.8-41.6-3.2-46.4 0-1.6 0-1.6 1.6-1.6 1.6-7.2 3.2-13.6 0-32.8-3.2-22.4-12-32.8-17.6-40-1.6-13.6-7.2-28-12-37.6-1.6-7.2-4.8-15.2-4.8-28 0-12 0-12 1.6-12 12-3.2 24-7.2 37.6-12-31.2-10.4-62.4-22.4-77.6-28-31.2-12-44.8-41.6-44.8-62.4v-37.6c-1.6 0-3.2 0-7.2 0-43.2 0-141.6 0-152 0-15.2 0-20.8 12-20.8 20.8s0 41.6 0 52c4 8.8 12.8 22.4 30.4 29.6z" />
<glyph unicode="&#xe946;" glyph-name="groups" data-tags="groups" d="M701.858 465.503v60.715h-181.265v33.266c62.069 8.283 109.965 60.767 109.965 124.458 0 69.431-56.886 125.728-127.053 125.728-70.175 0-127.061-56.297-127.061-125.728 0-66.501 52.21-120.795 118.26-125.287v-32.436h-181.265v-61.29c-63.375-7.094-112.639-60.259-112.639-124.869 0-69.431 56.886-125.728 127.061-125.728 70.167 0 127.053 56.297 127.053 125.728 0 65.604-50.797 119.404-115.578 125.153v35.381h336.625v-36.539c-60.558-9.584-106.875-61.365-106.875-123.994 0-69.431 56.886-125.728 127.061-125.728 70.167 0 127.053 56.297 127.053 125.728 0 67.533-53.842 122.469-121.342 125.444z" />
<glyph unicode="&#xe947;" glyph-name="hierarchy" data-tags="hierarchy" d="M416.211 512c0-39.834-32.408-72.243-72.242-72.243h-160.539c-39.834 0-72.242 32.408-72.242 72.243s32.408 72.242 72.242 72.242h160.539c39.834 0 72.242-32.408 72.242-72.242zM381.756 607.888c43.312 78.482 120.691 126.777 204.517 126.777v-61.005c-64.031 0-123.462-39.439-155.177-102.942-12.341 16.791-29.454 29.863-49.34 37.17zM433.704 448.245c32.292-60.542 90.25-97.903 152.568-97.903v-61.005c-81.26 0-156.466 45.382-200.449 119.657 19.558 8.115 36.205 21.877 47.881 39.25zM451.797 507.638c0 10.599-1.573 20.832-4.463 30.503h138.938v-61.005h-138.938c2.89 9.671 4.463 19.904 4.463 30.502zM607.789 271.192v128.431h305.023v-128.431zM607.789 447.786v128.429h305.023v-128.429zM607.789 624.377v128.431h305.023v-128.431z" />
<glyph unicode="&#xe948;" glyph-name="home-outline" data-tags="home-outline" d="M697.6 237.6h-100.8c-24.8 0-45.6 20.8-45.6 44.8v104c0 3.2-1.6 4.8-3.2 4.8h-68.8c-2.4 0-5.6-2.4-5.6-4.8v-104c0-24.8-19.2-44.8-44-44.8h-103.2c-24.8 0-44.8 20-44.8 44.8v242.4h-20.8c-21.6 0-28.8 12.8-30.4 18.4s-4.8 20 12.8 33.6l236.8 192.8c8.8 7.2 20 11.2 32 11.2s23.2-4 32-11.2l71.2-57.6c0.8 16 13.6 28.8 30.4 28.8h42.4c16.8 0 30.4-13.6 30.4-30.4v-82.4l63.2-52c16.8-13.6 14.4-28 12.8-33.6s-8.8-18.4-30.4-18.4h-20.8v-242.4c-0.8-24-20.8-44-45.6-44zM478.4 416h68.8c15.2 0 27.2-12.8 27.2-28.8v-104c0-11.2 10.4-20.8 21.6-20.8h100.8c11.2 0 20.8 9.6 20.8 20.8v265.6h44.8c5.6 0 8 1.6 8 2.4s-0.8 3.2-4.8 7.2v0l-72 59.2v92.8c0 3.2-2.4 6.4-6.4 6.4h-42.4c-3.2 0-6.4-2.4-6.4-6.4v-49.6l-109.6 90.4c-8.8 7.2-24.8 7.2-33.6 0l-236.8-193.6c-4-3.2-5.6-6.4-4.8-7.2 0-0.8 2.4-2.4 8-2.4h44.8v-266.4c0-11.2 9.6-20.8 20.8-20.8h102.4c11.2 0 20 8.8 20 20.8v104c-0.8 16.8 13.6 30.4 28.8 30.4z" />
<glyph unicode="&#xe949;" glyph-name="home" data-tags="home" d="M773.6 567.2l-68 55.2v88c0 9.6-8 18.4-18.4 18.4h-42.4c-9.6 0-18.4-8-18.4-18.4v-24l-90.4 73.6c-6.4 5.6-15.2 8-24 8s-17.6-3.2-24-8l-237.6-192.8c-10.4-8.8-10.4-16.8-8.8-20 1.6-4 5.6-10.4 19.2-10.4h32.8v-254.4c0-18.4 14.4-32.8 32.8-32.8h102.4c17.6 0 32 14.4 32 32.8v104c0 8.8 8 16.8 17.6 16.8h68.8c8.8 0 15.2-8 15.2-16.8v-104c0-17.6 15.2-32.8 33.6-32.8h100.8c18.4 0 32.8 14.4 32.8 32.8v254.4h32.8c13.6 0 18.4 6.4 19.2 10.4 1.6 3.2 2.4 11.2-8 20v0z" />
<glyph unicode="&#xe94a;" glyph-name="inbox" data-tags="inbox" d="M692 726.4h-352.8l-138.4-152v-276.8h622.4v276.8l-131.2 152zM352.8 698.4h332l110.4-124.8h-193.6c0-48-41.6-83.2-89.6-83.2s-83.2 34.4-83.2 83.2h-193.6l117.6 124.8z" />
<glyph unicode="&#xe94b;" glyph-name="index" data-tags="index" d="M117.12 818.080h607.44v-82.16h-607.44v82.16zM117.12 697.12h245.2v-81.28h-245.2v81.28zM117.12 577.040h190.8v-81.28h-190.8v81.28zM117.12 456.96h245.2v-81.28h-245.2v81.28zM899.76 272.72l-121.28 117.12c-7.102 7-16.858 11.323-27.624 11.323-3.372 0-6.645-0.424-9.768-1.222l0.273 0.059-28.24 27.2c16.946 26.006 27.025 57.833 27.025 92.015 0 47.22-19.234 89.947-50.294 120.775l-0.010 0.010c-27.308 26.78-64.753 43.308-106.059 43.308-45.855 0-86.952-20.369-114.737-52.553l-0.164-0.194c-25.693-29.574-41.353-68.464-41.353-111.011 0-47.358 19.402-90.185 50.69-120.966l0.023-0.023c27.251-26.795 64.656-43.337 105.925-43.337 37.822 0 72.399 13.894 98.904 36.857l-0.189-0.16 28.24-27.28c-0.323-1.999-0.508-4.302-0.508-6.649 0-12.248 5.032-23.32 13.141-31.263l0.007-0.007 121.2-117.12c7.061-6.973 16.769-11.279 27.482-11.279 11.867 0 22.5 5.284 29.674 13.628l0.043 0.052c6.83 7.716 11 17.922 11 29.103 0 12.403-5.132 23.607-13.388 31.606l-0.012 0.011zM666.32 440c-19.965-23.121-49.318-37.665-82.068-37.665-29.511 0-56.264 11.81-75.79 30.962l0.017-0.017c-22.263 22.011-36.049 52.553-36.049 86.316 0 30.341 11.134 58.081 29.539 79.358l-0.13-0.154c19.951 23.117 49.29 37.66 82.026 37.66 29.498 0 56.238-11.808 75.751-30.956l-0.017 0.017c22.288-22.015 36.093-52.574 36.093-86.358 0-30.321-11.12-58.045-29.503-79.316l0.131 0.155z" />
<glyph unicode="&#xe94c;" glyph-name="invalidate" data-tags="invalidate" d="M297.709 832v-537.986h534.291v537.986h-534.291zM574.401 717.378c88.418-0.090 160.073-72.229 160.182-161.245v-0.011c0-0.006 0-0.014 0-0.021 0-89.071-71.71-161.277-160.17-161.277s-160.17 72.206-160.17 161.277c0 89.067 71.704 161.27 160.157 161.277h0.001zM523 638.014l-29.929-30.136 50.74-51.091-50.74-51.091 29.929-30.136 50.74 51.091 50.74-51.091 29.929 30.136-50.74 51.091 50.74 51.091-29.929 30.136-50.74-51.091-50.74 51.091zM205.023 192h10.825l65.793 66.248h-10.825zM192 317.003v-11.070l72.051 72.72v10.899zM192 224.017v-11.070l72.051 72.549v11.070zM192 270.68v-11.070l72.051 72.549v11.070zM192 364.006v-11.070l72.051 72.72v11.070zM192 405.901v-11.070l72.051 72.549v11.070zM192 545.55v-11.070l72.051 72.549v11.070zM192 730.669v-11.070l13.531 13.624h-10.994zM192 683.666v-11.070l60.212 60.628h-10.994zM192 590.51v-11.070l72.051 72.72v10.899zM192 637.173v-10.899l72.051 72.549v11.070zM192 498.376v-10.899l72.051 72.549v11.070zM192 451.202v-10.899l72.051 72.549v10.899zM614.158 192h10.994l65.793 66.248h-10.825zM567.477 192h10.994l65.793 66.248h-10.825zM251.704 192h10.825l65.962 66.248h-10.994zM730.184 204.602v11.070l-23.51-23.672h10.994zM726.125 258.248l-65.793-66.248h10.994l58.859 59.266v6.982zM522.826 192h10.825l65.962 66.248h-10.994zM344.051 192h10.994l65.793 66.248h-10.994zM297.709 192h10.994l65.793 66.248h-10.994zM476.483 192h10.825l65.962 66.248h-10.994zM430.31 192h10.994l65.793 66.248h-10.994zM383.629 192h10.994l65.793 66.248h-10.994z" />
<glyph unicode="&#xe94d;" glyph-name="join-plug" data-tags="join-plug" d="M514.4 826.4c-174.4 0-316-141.6-316-316s141.6-316 316-316 316 141.6 316 316-141.6 316-316 316zM554.4 476l-50.4-51.2 9.6-9.6c11.2-11.2 11.2-28.8 0-40-28.8-28.8-69.6-36.8-105.6-25.6l-21.6-21.6c-8.8-8.8-20.8-13.6-33.6-13.6s-24.8 4.8-33.6 13.6c-8.8 8.8-13.6 20.8-13.6 33.6s4.8 24.8 13.6 33.6l22.4 22.4c-3.2 10.4-4.8 20.8-4.8 32 0 27.2 11.2 54.4 30.4 73.6v0c5.6 5.6 12.8 8 20 8s14.4-3.2 20-8l9.6-9.6 50.4 50.4c5.6 5.6 14.4 5.6 20 0s5.6-14.4 0-20l-50.4-50.4 48-48 50.4 50.4c5.6 5.6 14.4 5.6 20 0 4.8-5.6 4.8-14.4-0.8-20zM710.4 652l-22.4-22.4c11.2-36 3.2-76.8-25.6-105.6-11.2-11.2-28.8-11.2-40 0l-106.4 107.2c-11.2 11.2-11.2 28.8 0 40 28.8 28.8 69.6 36.8 105.6 25.6l22.4 22.4c18.4 18.4 48.8 18.4 67.2 0 17.6-19.2 17.6-48.8-0.8-67.2z" />
<glyph unicode="&#xe94e;" glyph-name="join-space" data-tags="join-space" d="M457.6 559.2c-21.6 0-32.8-21.6-32.8-47.2s14.4-47.2 32.8-47.2c21.6 0 32.8 21.6 32.8 47.2s-11.2 47.2-32.8 47.2zM508 824c-170.4 0-308-137.6-308-312s137.6-312 312-312 312 137.6 312 312c0 174.4-141.6 312-316 312zM370.4 493.6c0-40-18.4-54.4-50.4-54.4-7.2 0-18.4 0-21.6 4l4 28.8c4 0 11.2-4 14.4-4 14.4 0 21.6 7.2 21.6 28.8v88h32.8v-91.2zM457.6 443.2c-40 0-65.6 32.8-65.6 68.8 0 40 25.6 72.8 68.8 72.8s65.6-32.8 65.6-68.8c0-47.2-28.8-72.8-68.8-72.8zM577.6 443.2h-32.8v141.6h32.8c0 0 0-141.6 0-141.6zM718.4 443.2h-32l-28.8 54.4c-7.2 14.4-18.4 32.8-25.6 50.4v0c0-18.4 0-36 0-61.6v-43.2h-28.8v141.6h36l28.8-50.4c7.2-14.4 18.4-32.8 21.6-47.2v0c-3.2 17.6-3.2 36-3.2 57.6v40h28.8v-141.6h3.2z" />
<glyph unicode="&#xe94f;" glyph-name="join" data-tags="join" d="M595.679 534.48l-96 96c-5.496 5.336-13.004 8.627-21.28 8.627s-15.784-3.29-21.287-8.634l0.007 0.007c-5.484-5.414-8.881-12.93-8.881-21.24s3.397-15.826 8.878-21.237l0.003-0.003 44-45.2h-229.92c-16.789 0-30.4-13.611-30.4-30.4s13.611-30.4 30.4-30.4v0h230.24l-44.32-44.32c-5.509-5.417-8.923-12.951-8.923-21.281 0-8.091 3.22-15.43 8.449-20.805l-0.007 0.007c5.119-5.9 12.629-9.61 21.005-9.61 0.266 0 0.53 0.004 0.794 0.011l-0.039-0.001c8.67 0.074 16.403 4.022 21.564 10.195l0.036 0.045 95.28 95.28c5.853 5.116 9.53 12.596 9.53 20.935 0 0.262-0.004 0.523-0.011 0.783l0.001-0.038c-0.177 8.335-3.63 15.83-9.118 21.278l-0.002 0.002zM399.199 357.2c0.096 0.001 0.209 0.002 0.322 0.002 16.613 0 30.080-13.467 30.080-30.080 0-0.113-0.001-0.226-0.002-0.339v0.017-76h292.8v521.6h-292.8v-76c0-16.789-13.611-30.4-30.4-30.4s-30.4 13.611-30.4 30.4v0 106.4c-0.001 0.096-0.002 0.209-0.002 0.322 0 16.613 13.467 30.080 30.080 30.080 0.113 0 0.226-0.001 0.339-0.002h353.583c0.096 0.001 0.209 0.002 0.322 0.002 16.613 0 30.080-13.467 30.080-30.080 0-0.113-0.001-0.226-0.002-0.339v0.017-581.6c0.001-0.096 0.002-0.209 0.002-0.322 0-16.613-13.467-30.080-30.080-30.080-0.113 0-0.226 0.001-0.339 0.002h-353.583c-16.056 0.25-29.13 12.685-30.393 28.451l-0.007 0.109v107.44c-0.001 0.096-0.002 0.209-0.002 0.322 0 16.613 13.467 30.080 30.080 30.080 0.113 0 0.226-0.001 0.339-0.002h-0.017z" />
<glyph unicode="&#xe950;" glyph-name="key" data-tags="key" d="M236.8 763.2c-77.6-77.6-77.6-202.4 0-280 54.4-54.4 133.6-70.4 202.4-48l63.2-63.2c0 0 53.6 45.6 84 15.2 20.8-20.8 4-55.2-2.4-78.4-2.4-10.4-9.6-32.8 22.4-22.4 16.8 4.8 52 26.4 79.2-0.8s-4.8-86.4-4.8-86.4h122.4v123.2l-239.2 238.4c22.4 68.8 7.2 148-48 202.4-76.8 76.8-202.4 76.8-279.2 0zM258.4 538.4c-38.4 56.8-32.8 134.4 17.6 184.8s128 56 184.8 17.6l-202.4-202.4z" />
<glyph unicode="&#xe951;" glyph-name="leave-space" data-tags="leave-space" d="M774.076 534.48l-96 96c-5.496 5.336-13.004 8.627-21.28 8.627s-15.784-3.29-21.287-8.634l0.007 0.007c-5.484-5.414-8.881-12.93-8.881-21.24s3.397-15.826 8.878-21.237l0.003-0.003 44.080-45.2h-230c-16.789 0-30.4-13.611-30.4-30.4s13.611-30.4 30.4-30.4v0h230.24l-44.32-44.32c-5.509-5.417-8.923-12.951-8.923-21.281 0-8.091 3.22-15.43 8.449-20.805l-0.007 0.007c5.119-5.9 12.629-9.61 21.005-9.61 0.266 0 0.53 0.004 0.794 0.011l-0.039-0.001c8.67 0.074 16.403 4.022 21.564 10.195l0.036 0.045 95.28 95.28c5.853 5.116 9.53 12.596 9.53 20.935 0 0.262-0.004 0.523-0.011 0.783l0.001-0.038c-0.177 8.335-3.63 15.83-9.118 21.278l-0.002 0.002zM624.796 357.2c-0.096 0.001-0.209 0.002-0.322 0.002-16.613 0-30.080-13.467-30.080-30.080 0-0.113 0.001-0.226 0.002-0.339v0.017-76h-292.8v521.6h292.8v-76c0-16.789 13.611-30.4 30.4-30.4s30.4 13.611 30.4 30.4v0 106.4c0.001 0.096 0.002 0.209 0.002 0.322 0 16.613-13.467 30.080-30.080 30.080-0.113 0-0.226-0.001-0.339-0.002h-353.583c-0.096 0.001-0.209 0.002-0.322 0.002-16.613 0-30.080-13.467-30.080-30.080 0-0.113 0.001-0.226 0.002-0.339v0.017-581.6c-0.001-0.096-0.002-0.209-0.002-0.322 0-16.613 13.467-30.080 30.080-30.080 0.113 0 0.226 0.001 0.339 0.002h353.583c16.056 0.25 29.13 12.685 30.393 28.451l0.007 0.109v107.44c0.001 0.096 0.002 0.209 0.002 0.322 0 16.613-13.467 30.080-30.080 30.080-0.113 0-0.226-0.001-0.339-0.002h0.017z" />
<glyph unicode="&#xe952;" glyph-name="light-bulb" data-tags="light-bulb" d="M272.327 325.793l39.993-39.993 50.771 51.055-39.993 39.993zM483.636 214.891h56.727v83.673h-56.727zM285.091 553.836h-85.091v-56.727h85.091zM597.091 672.68v136.429h-170.182v-136.429c-50.771-29.498-85.091-84.24-85.091-147.207 0-93.884 76.298-170.182 170.182-170.182s170.182 76.298 170.182 170.182c0 62.967-34.32 117.709-85.091 147.207zM738.909 553.836v-56.727h85.091v56.727zM660.625 336.571l50.771-51.055 39.993 39.993-51.055 50.771z" />
<glyph unicode="&#xe953;" glyph-name="link-external" data-tags="link-external" d="M716 457.6h-26.4c-4 0-7.2-1.6-9.6-4s-4-5.6-4-9.6v-131.2c0-18.4-6.4-33.6-19.2-46.4s-28-19.2-46.4-19.2h-340.8c-18.4 0-33.6 6.4-46.4 19.2s-19.2 28-19.2 46.4v340.8c0 18.4 6.4 33.6 19.2 46.4s28 19.2 46.4 19.2h288.8c4 0 7.2 1.6 9.6 4s4 5.6 4 9.6v26.4c0 4-1.6 7.2-4 9.6s-5.6 4-9.6 4h-288.8c-32.8 0-60-11.2-83.2-34.4s-34.4-51.2-34.4-83.2v-340.8c0-32.8 11.2-60 34.4-83.2s51.2-34.4 83.2-34.4h340.8c32.8 0 60 11.2 83.2 34.4s34.4 51.2 34.4 83.2v129.6c0 4-1.6 7.2-4 9.6-1.6 2.4-4.8 4-8 4v0zM878.4 816.8c-5.6 4.8-11.2 8-18.4 8h-209.6c-7.2 0-13.6-2.4-18.4-8-5.6-4.8-8-11.2-8-18.4s2.4-13.6 8-18.4l72-72-267.2-267.2c-2.4-2.4-4-5.6-4-9.6 0-3.2 1.6-6.4 4-9.6l46.4-46.4c2.4-2.4 5.6-4 9.6-4 3.2 0 6.4 1.6 9.6 4l267.2 267.2 72-72c4.8-4.8 11.2-8 18.4-8s13.6 2.4 18.4 8c4.8 4.8 8 11.2 8 18.4v209.6c0 7.2-3.2 12.8-8 18.4v0z" />
<glyph unicode="&#xe954;" glyph-name="lock-checked" data-tags="lock-checked" d="M658.4 517.6v135.2c0 80.8-65.6 146.4-146.4 146.4s-146.4-65.6-146.4-146.4v-135.2h-78.4v-304h449.6v304h-78.4zM388 652.8c0 68.8 55.2 124 124 124s124-55.2 124-124v-135.2h-248v135.2zM476 272l-89.6 89.6 36 36 53.6-53.6 125.6 125.6 36-36-161.6-161.6z" />
<glyph unicode="&#xe955;" glyph-name="lock" data-tags="lock" d="M658.4 517.6v135.2c0 80.8-65.6 146.4-146.4 146.4s-146.4-65.6-146.4-146.4v-135.2h-78.4v-304h449.6v304h-78.4zM388 652.8c0 68.8 55.2 124 124 124s124-55.2 124-124v-135.2h-248v135.2z" />
<glyph unicode="&#xe956;" glyph-name="logout" data-tags="logout" d="M696.039 368.963c0-10.174-7.267-17.44-17.44-17.44h-103.189v295.759c0 13.080-7.267 24.707-18.894 30.521l-156.236 79.935h277.592c10.174 0 17.44-7.267 17.44-17.44v-68.308h69.761v121.356c0.727 18.894-15.26 34.881-34.154 34.881h-430.195c-18.894 0-34.881-15.987-34.881-34.881v-492.689c0-13.080 7.267-24.707 18.894-30.521l264.512-138.069c11.627-5.813 25.434 2.18 25.434 15.987v133.709h156.236c18.894 0 34.881 15.987 34.881 34.881v190.39h-69.761v-138.069zM968.544 616.761l-113.362 113.362c-14.534 14.534-37.061 15.26-50.868 1.453-13.807-13.080-12.354-37.061 1.453-50.868 0.727 0 50.868-50.868 50.868-50.868h-198.384c-5.813 0-12.354-1.453-17.44-4.36-21.074-11.627-24.707-42.147-8.72-59.588 6.54-7.267 15.987-11.627 26.16-11.627h198.384l-50.868-50.868c-13.080-13.807-15.26-37.061-1.453-50.868 14.534-14.534 36.334-13.807 50.868 0.727l113.362 113.362c14.534 13.807 14.534 35.607 0 50.141z" />
<glyph unicode="&#xe957;" glyph-name="markdown" data-tags="markdown" d="M847.225 756.827h-670.45c-31.153 0-56.498-25.345-56.498-56.499v-376.657c0-31.155 25.345-56.499 56.498-56.499h670.45c31.155 0 56.498 25.343 56.498 56.499v376.657c0 31.153-25.343 56.499-56.498 56.499zM560.965 365.199l-97.931-0.101v146.902l-73.448-94.164-73.448 94.164v-146.896h-97.931v293.793h97.931l73.448-97.931 73.448 97.931 97.931 0.101zM707.166 340.717l-121.718 171.283h73.448v146.896h97.931v-146.896h73.448z" />
<glyph unicode="&#xe958;" glyph-name="membership" data-tags="membership" d="M265.64 823.2v-622.4l246.367 181.546 246.354-181.533v622.387zM612.472 718.792l30.9-30.913-170.019-170.019-92.738 92.738 30.913 30.913 61.825-61.825z" />
<glyph unicode="&#xe959;" glyph-name="menu-clusters" data-tags="menu-clusters" d="M836.8 432.766l-140.928 84.196-141.57-80.684-0.634-164.875 140.933-84.203 141.57 80.684zM656.644 752.604l-140.928 84.196-141.57-80.684-0.634-164.875 140.933-84.203 141.57 80.684zM329.4 519.029l-141.563-80.679-0.637-164.887 140.94-84.199 141.563 80.679 0.63 164.883z" />
<glyph unicode="&#xe95a;" glyph-name="menu-collection" data-tags="menu-collection" d="M802.4 631.2v96.8h-565.6v-433.6h84v-96h565.6v432.8h-84zM260.8 318.4v385.6h517.6v-72h-457.6v-312.8h-60zM862.4 222.4h-517.6v384.8h517.6v-384.8zM238.4 390.4h-92.8v433.6h565.6v-96h-24v72h-517.6v-385.6h68.8z" />
<glyph unicode="&#xe95b;" glyph-name="menu-data" data-tags="menu-data" d="M795.2 761.6h-184c-5.6 35.2-36 62.4-72.8 62.4h-216c-40.8 0-74.4-33.6-74.4-74.4v-17.6h-11.2c-40.8 0-74.4-33.6-74.4-74.4v-436.8c0-12 9.6-20.8 20.8-20.8h579.2c12 0 20.8 9.6 20.8 20.8v71.2h64.8c12 0 20.8 9.6 20.8 20.8v374.4c0.8 40.8-32.8 74.4-73.6 74.4v0zM526.4 669.6c-5.6 35.2-36 62.4-72.8 62.4h-163.2v17.6c0 17.6 14.4 32 32 32h216c17.6 0 32-14.4 32-32v-9.6c0-12 9.6-20.8 20.8-20.8h204c17.6 0 32-14.4 32-32v-352.8h-43.2v260.8c0 40.8-33.6 74.4-74.4 74.4h-183.2zM741.6 242.4h-536.8v415.2c0 17.6 14.4 32 32 32h216c17.6 0 32-14.4 32-32v-9.6c0-12 9.6-20.8 20.8-20.8h204c17.6 0 32-14.4 32-32v-352.8z" />
<glyph unicode="&#xe95c;" glyph-name="menu-groups" data-tags="menu-groups" d="M707.2 459.2v64.8h-182.4v39.2h117.6v260.8h-260.8v-260.8h117.6v-39.2h-182.4v-64.8h-117.6v-260.8h260.8v260.8h-117.6v39.2h339.2v-39.2h-117.6v-260.8h260.8v260.8h-117.6zM408 797.6h208v-208.8h-208v208.8zM433.6 224h-208v208.8h208.8v-208.8zM798.4 224h-208v208.8h208.8v-208.8z" />
<glyph unicode="&#xe95d;" glyph-name="menu-providers" data-tags="menu-providers" d="M756.8 734.4v0c-14.4 9.6-35.2 17.6-60.8 24.8-51.2 14.4-118.4 21.6-190.4 21.6s-139.2-8-190.4-21.6c-25.6-7.2-46.4-15.2-60.8-24.8-18.4-12-27.2-25.6-27.2-40.8v-352c0-15.2 9.6-28.8 27.2-40.8 14.4-9.6 35.2-18.4 60.8-24.8 51.2-14.4 118.4-21.6 190.4-21.6s139.2 8 190.4 22.4c25.6 7.2 46.4 15.2 60.8 24.8 18.4 12 27.2 25.6 27.2 40.8v352c0 14.4-8.8 28-27.2 40zM755.2 341.6c0-6.4-13.6-23.2-66.4-37.6v0c-48.8-13.6-113.6-20.8-182.4-20.8s-134.4 7.2-183.2 20.8c-52.8 14.4-66.4 31.2-66.4 37.6v75.2c14.4-8.8 34.4-16.8 58.4-24 51.2-14.4 118.4-21.6 190.4-21.6s139.2 8 190.4 22.4c24.8 7.2 44 15.2 58.4 24v-76zM755.2 459.2c0-6.4-13.6-23.2-66.4-37.6-48.8-13.6-113.6-21.6-183.2-21.6s-133.6 8-182.4 21.6c-52.8 14.4-66.4 31.2-66.4 37.6v75.2c14.4-8.8 34.4-16.8 58.4-24 51.2-14.4 118.4-22.4 190.4-22.4s139.2 8 190.4 21.6c24.8 7.2 44 15.2 58.4 24v-74.4zM755.2 576c0-6.4-13.6-23.2-66.4-37.6-48.8-13.6-113.6-20.8-182.4-20.8s-134.4 7.2-182.4 20.8c-52.8 14.4-66.4 31.2-66.4 37.6v75.2c14.4-8.8 34.4-16.8 58.4-24 51.2-14.4 118.4-21.6 190.4-21.6s139.2 8 190.4 21.6c24.8 7.2 44 15.2 58.4 24v-75.2zM688 656c-48.8-13.6-113.6-20.8-182.4-20.8s-133.6 7.2-182.4 20.8c-52.8 14.4-66.4 31.2-66.4 37.6s13.6 23.2 66.4 37.6c48.8 13.6 113.6 20.8 182.4 20.8s134.4-7.2 182.4-20.8c52.8-14.4 66.4-31.2 66.4-37.6 0.8-6.4-13.6-23.2-66.4-37.6z" />
<glyph unicode="&#xe95e;" glyph-name="menu-recent" data-tags="menu-recent" d="M512 824c-172.8 0-312-139.2-312-312s139.2-312 312-312 312 139.2 312 312c0 172.8-139.2 312-312 312zM512 225.6c-157.6 0-286.4 128.8-286.4 286.4s128.8 286.4 286.4 286.4 286.4-128.8 286.4-286.4c0-157.6-128.8-286.4-286.4-286.4zM512 486.4h-156v-26.4h181.6v260h-25.6z" />
<glyph unicode="&#xe95f;" glyph-name="menu-shared" data-tags="menu-shared" d="M745.6 819.2c-52 0-94.4-42.4-94.4-94.4 0-9.6 0.8-17.6 3.2-25.6l-275.2-115.2c-16.8 28-47.2 47.2-81.6 47.2-52 0-94.4-42.4-94.4-94.4s42.4-94.4 94.4-94.4c27.2 0 52 12 69.6 30.4l177.6-127.2c-7.2-12.8-10.4-28-10.4-44 0-52 42.4-94.4 94.4-94.4s94.4 42.4 94.4 94.4c0 52-42.4 94.4-94.4 94.4-27.2 0-52.8-12-69.6-30.4l-176.8 127.2c7.2 12.8 12 28 12 44.8 0 8-0.8 17.6-3.2 24.8l276 115.2c16.8-28 47.2-47.2 81.6-47.2 52 0 94.4 42.4 94.4 94.4-3.2 52-45.6 94.4-97.6 94.4zM627.2 372c39.2 0 70.4-32 70.4-70.4 0-39.2-32-70.4-70.4-70.4s-70.4 32-70.4 70.4c0 38.4 32 70.4 70.4 70.4zM297.6 465.6c-39.2 0-70.4 32-70.4 70.4s32 70.4 70.4 70.4 70.4-32 70.4-70.4-31.2-70.4-70.4-70.4zM745.6 654.4c-39.2 0-70.4 32-70.4 70.4s32 70.4 70.4 70.4 70.4-32 70.4-70.4-32-70.4-70.4-70.4z" />
<glyph unicode="&#xe960;" glyph-name="menu-token" data-tags="menu-token" d="M828 634.4v-267.2h-624v267.2h624zM828 679.2h-624c-24.8 0-44-18.4-44-42.4v-267.2c0-24.8 20-46.4 44-46.4h624c24.8 0 44.8 21.6 44.8 46.4v267.2c0 24-20.8 42.4-44.8 42.4v0zM772 712.8c-12 0-22.4 9.6-22.4 22.4v44.8h-467.2v-44.8c0-12-9.6-22.4-22.4-22.4-12 0-22.4 9.6-22.4 22.4v67.2c0 12 9.6 22.4 22.4 22.4h512c12 0 22.4-9.6 22.4-22.4v-67.2c0-12.8-9.6-22.4-22.4-22.4zM772 200h-512c-12 0-22.4 9.6-22.4 22.4v67.2c0 12 9.6 22.4 22.4 22.4 12 0 22.4-9.6 22.4-22.4v-44.8h468v44.8c0 12 9.6 22.4 22.4 22.4 12 0 22.4-9.6 22.4-22.4v-67.2c-0.8-12-10.4-22.4-23.2-22.4zM316 454.4l-1.6 11.2h-0.8c-4.8-6.4-14.4-12.8-26.4-12.8-17.6 0-26.4 12-26.4 24.8 0 20.8 18.4 32 52 32v1.6c0 7.2-1.6 20-20 20-8 0-16.8-2.4-22.4-6.4l-3.2 10.4c7.2 4.8 17.6 8 28 8 26.4 0 32.8-18.4 32.8-35.2v-32c0-7.2 0-14.4 1.6-20.8h-13.6zM314.4 498.4c-16.8 0-36.8-2.4-36.8-19.2 0-10.4 6.4-15.2 14.4-15.2 11.2 0 18.4 7.2 20.8 14.4 0.8 1.6 0.8 3.2 0.8 4.8v15.2zM349.6 454.4v9.6l12 12c29.6 28 43.2 43.2 43.2 60.8 0 12-5.6 22.4-23.2 22.4-10.4 0-19.2-5.6-24.8-9.6l-4.8 10.4c8 6.4 19.2 12 32.8 12 24.8 0 35.2-16.8 35.2-33.6 0-21.6-15.2-38.4-40-62.4l-9.6-8.8h52v-12.8h-72.8zM444.8 472c4.8-3.2 14.4-7.2 25.6-7.2 20 0 26.4 12.8 26.4 22.4 0 16-14.4 23.2-29.6 23.2h-8.8v12h8.8c11.2 0 25.6 5.6 25.6 20 0 9.6-5.6 17.6-20 17.6-9.6 0-18.4-4-23.2-8l-4 11.2c6.4 4.8 17.6 8.8 30.4 8.8 23.2 0 32.8-13.6 32.8-28 0-12-7.2-22.4-21.6-27.2v0c14.4-3.2 25.6-13.6 25.6-29.6 0-18.4-14.4-34.4-42.4-34.4-12.8 0-24.8 4-30.4 8l4.8 11.2zM546.4 494.4c0-21.6 13.6-29.6 29.6-29.6 11.2 0 18.4 1.6 24 4.8l2.4-11.2c-5.6-2.4-15.2-5.6-28.8-5.6-26.4 0-42.4 17.6-42.4 43.2s15.2 46.4 40.8 46.4c28 0 36-24.8 36-40.8 0-3.2 0-5.6-0.8-7.2h-60.8zM592 505.6c0 9.6-4 25.6-21.6 25.6-16 0-23.2-14.4-24-25.6h45.6z" />
<glyph unicode="&#xe961;" glyph-name="menu-transfers" data-tags="menu-transfers" d="M693.6 364.8h-312l52 52.8-59.2 60-153.6-154.4 153.6-156 60 60-51.2 52h395.2v248h-84.8v-162.4zM717.6 340v162.4h35.2v-199.2h-428.8l75.2-76-24.8-25.6-119.2 121.6 119.2 120 24.8-25.6-76-77.6h394.4zM338.4 655.2h310.4l-51.2-52.8 59.2-60 153.6 156-153.6 156.8-58.4-63.2 50.4-51.2h-395.2v-248h84.8v162.4zM314.4 680v-162.4h-36v198.4h429.6l-74.4 76 24.8 27.2 119.2-121.6-119.2-120.8-24.8 25.6 75.2 77.6h-394.4z" />
<glyph unicode="&#xe962;" glyph-name="menu-trash" data-tags="menu-trash" d="M662.4 204.8h-278.4c-9.6 0-17.6 7.2-19.2 16l-67.2 440.8c-0.8 5.6 0.8 11.2 4.8 15.2s8.8 6.4 14.4 6.4h412.8c5.6 0 11.2-2.4 14.4-6.4s5.6-9.6 4.8-15.2l-67.2-440.8c-1.6-9.6-9.6-16-19.2-16zM400.8 243.2h244.8l61.6 403.2h-368l61.6-403.2zM451.2 229.6c-4.8 0-8.8 3.2-9.6 8l-28.8 199.2c-0.8 5.6 3.2 10.4 8 11.2 5.6 0.8 10.4-3.2 11.2-8l28.8-200c0.8-5.6-3.2-10.4-8-11.2 0 0.8-0.8 0.8-1.6 0.8zM412.8 593.6c-6.4-0.8-12.8-1.6-18.4-1.6 0 0 0-0.8 0-0.8l9.6-115.2c0.8-4.8 4.8-8.8 9.6-8.8 0 0 0.8 0 0.8 0 5.6 0.8 8.8 4.8 8.8 10.4l-10.4 116c0-0.8 0-0.8 0 0zM595.2 220c-0.8 0-0.8 0-1.6 0-5.6 0.8-8.8 5.6-8 10.4l27.2 209.6c0.8 5.6 5.6 8.8 10.4 8 5.6-0.8 8.8-5.6 8-10.4l-27.2-208.8c0-5.6-4-8.8-8.8-8.8zM640.8 580c-3.2 0.8-6.4 0.8-9.6 1.6l-8.8-104c-0.8-5.6 3.2-9.6 8.8-10.4 0 0 0.8 0 0.8 0 4.8 0 8.8 4 9.6 8.8l8.8 104c-3.2 0-6.4 0-9.6 0zM724 703.2h-421.6c-10.4 0-19.2 8.8-19.2 19.2s8.8 19.2 19.2 19.2h422.4c10.4 0 19.2-8.8 19.2-19.2s-8.8-19.2-20-19.2zM523.2 338.4c-5.6 0-9.6 4-9.6 9.6v230.4c0 5.6 4 9.6 9.6 9.6s9.6-4 9.6-9.6v-230.4c0-4.8-4.8-9.6-9.6-9.6zM523.2 214.4c-5.6 0-9.6 4-9.6 9.6v85.6c0 5.6 4 9.6 9.6 9.6s9.6-4 9.6-9.6v-85.6c0-5.6-4.8-9.6-9.6-9.6zM714.4 578.4h-384c-5.6 0-9.6 4-9.6 9.6s4 9.6 9.6 9.6h384c5.6 0 9.6-4 9.6-9.6s-4-9.6-9.6-9.6zM576 728c-10.4 0-19.2 8.8-19.2 19.2 0 20.8-17.6 38.4-38.4 38.4s-38.4-17.6-38.4-38.4c0-10.4-8.8-19.2-19.2-19.2s-19.2 8.8-19.2 19.2c0 42.4 34.4 76.8 76.8 76.8s76.8-34.4 76.8-76.8c0-10.4-8.8-19.2-19.2-19.2z" />
<glyph unicode="&#xe963;" glyph-name="metadata" data-tags="metadata" d="M447.2 559.2c0 8-4 16-11.2 20-6.4 4-16 4.8-23.2 1.6l-102.4-48c-8.8-4-13.6-12.8-13.6-21.6v-1.6c0-9.6 5.6-17.6 13.6-21.6l102.4-48c3.2-1.6 6.4-2.4 10.4-2.4 4.8 0 8.8 1.6 12.8 4 7.2 4.8 11.2 12 11.2 20v0.8c0 9.6-5.6 17.6-13.6 21.6l-56.8 26.4 56.8 26.4c8.8 4 13.6 12.8 13.6 22.4zM565.6 630.4c-4.8 6.4-12 9.6-20 9.6-10.4 0-20-6.4-23.2-16.8l-68-209.6c-2.4-7.2-0.8-15.2 3.2-21.6 4.8-6.4 12-9.6 20-9.6 10.4 0 20 6.4 23.2 16.8l68 209.6c2.4 7.2 0.8 15.2-3.2 21.6v0zM716 532.8l-102.4 48c-7.2 3.2-16 2.4-23.2-1.6-7.2-4.8-11.2-12-11.2-20.8 0-9.6 5.6-17.6 13.6-21.6l56.8-26.4-56.8-26.4c-8.8-4-13.6-12.8-13.6-22.4 0-8 4-16 11.2-20 4-2.4 8-4 12.8-4 3.2 0 7.2 0.8 10.4 2.4l102.4 48c8.8 4 13.6 12.8 13.6 21.6v1.6c0 9.6-5.6 17.6-13.6 21.6zM512 834.4c-178.4 0-323.2-144.8-323.2-323.2s144.8-323.2 323.2-323.2 323.2 144.8 323.2 323.2c0 178.4-144.8 323.2-323.2 323.2zM512 236.8c-151.2 0-274.4 123.2-274.4 274.4s123.2 274.4 274.4 274.4 274.4-123.2 274.4-274.4c0-151.2-123.2-274.4-274.4-274.4z" />
<glyph unicode="&#xe964;" glyph-name="move-down" data-tags="move-down" d="M276.8 500.8l-31.2-32.8 269.6-269.6 271.2 269.6-31.2 32.8-218.4-217.6v540.8h-44v-540.8z" />
<glyph unicode="&#xe965;" glyph-name="move-up" data-tags="move-up" d="M276.8 520.8l-31.2 33.6 269.6 269.6 271.2-269.6-31.2-33.6-218.4 218.4v-540.8h-44v540.8z" />
<glyph unicode="&#xe966;" glyph-name="no-view" data-tags="no-view" d="M512.143 668.871c78.721 0 142.61-63.889 142.61-142.61 0-18.539-3.708-35.938-10.268-52.195l83.284-83.284c43.068 35.938 77.010 82.429 97.831 135.48-49.343 125.212-171.132 213.915-313.743 213.915-39.931 0-78.15-7.131-113.518-19.965l61.608-61.608c16.258 6.56 33.656 10.268 52.195 10.268zM226.922 746.737l78.15-78.15c-47.347-36.793-84.425-85.851-106.672-142.325 49.343-125.212 171.132-213.915 313.743-213.915 44.209 0 86.422 8.557 124.927 23.959l11.979-11.979 83.57-83.284 36.223 36.223-505.696 505.696zM384.649 589.010l44.209-44.209c-1.426-5.99-2.282-12.264-2.282-18.539 0-47.347 38.22-85.566 85.566-85.566 6.275 0 12.55 0.856 18.539 2.282l44.209-44.209c-19.11-9.412-40.216-15.117-62.749-15.117-78.721 0-142.61 63.889-142.61 142.61 0 22.532 5.704 43.639 15.117 62.749zM507.579 611.257l89.844-89.844 0.57 4.564c0 47.347-38.22 85.566-85.566 85.566l-4.849-0.285z" />
<glyph unicode="&#xe967;" glyph-name="node" data-tags="node" d="M707.587 387.484c-16.104 94.693-99.229 165.413-195.683 165.413-52.874 0-99.108 35.933-112.669 86.441 36.1 17.286 59.012 53.191 59.012 93.576 0 57.28-46.69 103.886-104.082 103.886-57.289 0-103.886-46.606-103.886-103.886 0-42.778 26.339-80.816 66.1-96.398 16.104-94.703 99.173-165.413 195.524-165.413 52.995 0 99.313-35.923 112.874-86.432-36.11-17.296-59.012-53.21-59.012-93.594 0-57.27 46.597-103.877 103.886-103.877 57.392 0 104.082 46.606 104.082 103.877 0 42.779-26.358 80.825-66.147 96.407zM628.951 637.69v-4.778c0-26.675-14.278-51.524-38.177-66.482l-15.358-9.612 16.746-6.902c20.108-8.271 38.624-19.438 55.026-33.185l6.305-5.281 6.026 5.607c32.906 30.68 51.030 71.818 51.030 115.854v4.778c38.047 16.364 63.185 53.834 63.185 95.224 0 57.28-46.69 103.886-104.082 103.886-57.289 0-103.886-46.606-103.886-103.886 0-41.39 25.138-78.86 63.185-95.224zM458.248 291.077c0-57.27-46.69-103.877-104.082-103.877-57.289 0-103.886 46.606-103.886 103.877 0 41.4 25.138 78.879 63.185 95.243v15.219c0 40.617 17.491 78.692 49.27 107.22l6.063 5.439 6.203-5.29c16.877-14.418 35.392-25.939 55.026-34.228l17.24-7.283-16.187-9.36c-22.549-13.040-36.016-34.154-36.016-56.497v-15.219c38.047-16.364 63.185-53.843 63.185-95.243z" />
<glyph unicode="&#xe968;" glyph-name="onepanel" data-tags="onepanel" d="M484.849 581.105l-253.577-253.577c-9.138-9.138-13.707-20.56-13.707-34.267s4.569-25.129 13.707-33.125l39.978-39.978c9.138-9.138 20.56-13.707 34.267-13.707s23.987 4.569 33.125 13.707l254.719 254.719c-23.987 9.138-45.69 23.987-65.108 42.263s-33.125 39.978-43.405 63.965v0zM345.496 301.257c-4.569-4.569-10.28-6.853-17.134-6.853s-12.565 2.284-17.134 6.853c-4.569 4.569-6.853 10.28-6.853 17.134s2.284 12.565 6.853 17.134c4.569 4.569 10.28 6.853 17.134 6.853s12.565-2.284 17.134-6.853c4.569-4.569 6.853-10.28 6.853-17.134s-2.284-12.565-6.853-17.134v0zM825.236 646.213c-2.284 2.284-4.569 3.427-9.138 3.427-2.284 0-11.422-4.569-26.271-13.707s-31.983-19.418-50.258-29.698c-18.276-11.422-28.556-17.134-29.698-18.276l-71.961 39.978v83.383l109.655 62.823c3.427 2.284 5.711 5.711 5.711 10.28s-2.284 7.996-5.711 10.28c-11.422 7.996-23.987 13.707-39.978 17.134-15.991 4.569-30.84 5.711-45.69 5.711-45.69 0-85.668-15.991-117.651-49.116-33.125-33.125-49.116-71.961-49.116-117.651s15.991-85.668 49.116-117.651c33.125-33.125 71.961-49.116 117.651-49.116 35.409 0 67.392 10.28 95.948 30.84 29.698 20.56 49.116 47.974 61.681 81.099 5.711 17.134 7.996 29.698 7.996 39.978 1.142 4.569 0 6.853-2.284 10.28v0z" />
<glyph unicode="&#xe969;" glyph-name="onezone" data-tags="onezone" d="M422.345 626.458l-42.4 40.916c4.559 8.547 7.236 18.692 7.236 29.463 0 35.125-28.475 63.6-63.6 63.6s-63.6-28.475-63.6-63.6c0-35.125 28.475-63.6 63.6-63.6 13.1 0 25.275 3.961 35.393 10.75l-0.229-0.145 42.4-40.916c6.377 8.808 13.346 16.517 21.060 23.409l0.14 0.123zM605.513 631.546l57.664 96.884c5.095-1.469 10.948-2.313 16.997-2.313 35.125 0 63.6 28.475 63.6 63.6s-28.475 63.6-63.6 63.6c-35.125 0-63.6-28.475-63.6-63.6 0-17.558 7.115-33.454 18.619-44.963v0l-56.816-96.672c10.601-4.862 19.722-10.382 28.126-16.796l-0.354 0.26zM803.944 551.199c-0.010 0-0.022 0-0.033 0-27.526 0-50.968-17.487-59.822-41.957l-0.14-0.443-80.772 7.42c0 0 0-1.272 0-1.696 0-0.031 0-0.067 0-0.104 0-10.775-1.158-21.279-3.357-31.395l0.177 0.971 79.924-7.844c5.26-30.269 31.331-52.994 62.709-52.994 35.125 0 63.6 28.475 63.6 63.6 0 34.812-27.969 63.092-62.662 63.593l-0.047 0.001zM583.465 297.86l-17.808 78.016c-9.138-3.291-19.825-5.823-30.885-7.14l-0.703-0.068 17.808-78.228c-20.229-10.916-33.743-31.958-33.743-56.156 0-35.125 28.475-63.6 63.6-63.6s63.6 28.475 63.6 63.6c0 34.516-27.496 62.611-61.779 63.574l-0.089 0.002zM373.798 483.571l-99.428-33.284c-11.559 17.244-30.971 28.443-53 28.443-35.125 0-63.6-28.475-63.6-63.6s28.475-63.6 63.6-63.6c35.125 0 63.6 28.475 63.6 63.6 0 0.062 0 0.124 0 0.186v-0.010c0.037 0.633 0.058 1.374 0.058 2.12s-0.021 1.487-0.062 2.222l0.005-0.102 99.852 33.496c-4.194 8.779-7.767 19.040-10.196 29.736l-0.192 1.004zM627.349 514.523c0-60.767-49.261-110.028-110.028-110.028s-110.028 49.261-110.028 110.028c0 60.767 49.261 110.028 110.028 110.028v0c60.767 0 110.028-49.261 110.028-110.028v0z" />
<glyph unicode="&#xe96a;" glyph-name="organization" data-tags="organization" d="M763.22 602.244h97.561l-353.659 209.756-343.902-209.756h87.805v-365.854h-48.78v-24.39h609.756v24.39h-48.78zM446.146 236.39h-73.171v365.854h73.171zM641.268 236.39h-73.171v365.854h73.171z" />
<glyph unicode="&#xe96b;" glyph-name="overview" data-tags="overview" d="M844.8 335.2v436.8h-665.6v-436h-62.4v-83.2h789.6v82.4h-61.6zM782.4 356h-540.8v332.8h540v-332.8zM491.2 584.8h62.4v-187.2h-62.4v187.2zM657.6 584.8h62.4v-187.2h-62.4v187.2zM574.4 647.2h62.4v-249.6h-62.4v249.6zM304 522.4h145.6v-124.8h-145.6v124.8zM304 626.4h145.6v-62.4h-145.6v62.4z" />
<glyph unicode="&#xe96c;" glyph-name="parents" data-tags="parents" d="M317.6 500h181.6v-38.4h-116.8v-259.2h259.2v259.2h-116.8v38.4h181.6v64.8h116.8v259.2h-259.2v-259.2h116v-38.4h-336v38.4h116v259.2h-259.2v-259.2h116.8z" />
<glyph unicode="&#xe96d;" glyph-name="password-change" data-tags="password-change" d="M744.8 732.8c-58.4 59.2-136.8 91.2-220.8 91.2-84.8 0-164-33.6-223.2-94.4-6.4-6.4-6.4-17.6 0-24s17.6-6.4 24 0c52.8 54.4 124 84 199.2 84 153.6 0 278.4-124.8 278.4-278.4s-124.8-278.4-278.4-278.4-278.4 125.6-278.4 279.2v3.2l28-28c3.2-3.2 7.2-4.8 12-4.8 4 0 8.8 1.6 12 4.8 6.4 6.4 6.4 17.6 0 24l-56 56.8c-6.4 6.4-17.6 6.4-24 0l-56.8-56c-6.4-6.4-6.4-17.6 0-24 3.2-3.2 7.2-4.8 12-4.8 4 0 8.8 1.6 12 4.8l28 28v-4c0-83.2 32.8-161.6 91.2-220.8 59.2-59.2 137.6-91.2 220.8-91.2s161.6 32.8 220.8 91.2c59.2 59.2 91.2 137.6 91.2 220.8s-32.8 161.6-92 220.8v0zM524 693.6c-54.4 0-99.2-44-99.2-99.2v-48h-31.2c-9.6 0-16.8-7.2-16.8-16.8v-167.2c0-9.6 7.2-16.8 16.8-16.8h260c9.6 0 16.8 7.2 16.8 16.8v167.2c0 9.6-7.2 16.8-16.8 16.8h-30.4v48c0 54.4-44 99.2-99.2 99.2v0zM459.2 594.4c0 36 29.6 65.6 65.6 65.6s65.6-29.6 65.6-65.6v-48h-131.2v48zM637.6 379.2h-226.4v133.6h226.4v-133.6z" />
<glyph unicode="&#xe96e;" glyph-name="permissions" data-tags="permissions" d="M628.35 496.943c35.589 38.327 49.278 93.080 30.114 142.357-13.688 35.589-41.065 65.703-73.916 79.392 0 8.213 2.738 13.688 2.738 21.901-2.738 73.916-60.228 131.407-131.407 131.407s-128.669-57.49-128.669-131.407c0-27.376 8.213-52.015 21.901-73.916-19.163-21.901-32.852-54.753-32.852-87.605 0-54.753 30.114-101.293 76.654-125.932v-62.966c0 0 49.278-2.738 49.278-35.589 0-21.901-24.639-30.114-41.065-38.327-5.475-2.738-21.901-10.951 0-21.901 10.951-5.475 38.327-13.688 38.327-41.065s-46.54-41.065-46.54-41.065l60.228-60.228 65.703 62.966v219.011l13.688-38.327c0 0 46.54 13.688 57.49-13.688 8.213-19.163-13.688-35.589-24.639-49.278-2.738-8.213-13.688-21.901 8.213-24.639 13.688-2.738 41.065 2.738 49.278-24.639 8.213-24.639-30.114-54.753-30.114-54.753l79.392-35.589 35.589 79.392zM455.878 850.099c60.228 0 109.506-49.278 109.506-109.506-2.738-5.475-2.738-8.213-2.738-13.688-27.376 8.213-57.49 5.475-84.867-2.738-5.475-2.738-8.213-5.475-13.688-8.213-2.738 0-5.475 0-8.213 0-35.589 0-65.703-13.688-90.342-35.589-10.951 19.163-19.163 41.065-19.163 60.228 0 60.228 49.278 109.506 109.506 109.506zM483.255 595.498h-57.49c0 5.475 0 13.688 2.738 19.163 8.213-2.738 19.163-2.738 27.376-2.738 30.114 0 57.49 10.951 79.392 27.376 5.475-5.475 10.951-13.688 13.688-21.901zM472.304 677.627c19.163-5.475 35.589-10.951 49.278-21.901-19.163-13.688-41.065-24.639-65.703-24.639-8.213 0-13.688 0-21.901 2.738 8.213 16.426 21.901 32.852 38.327 43.802zM398.388 650.251c-2.738 0-5.475 2.738-8.213 5.475 5.475 5.475 10.951 8.213 16.426 10.951-2.738-5.475-5.475-10.951-8.213-16.426zM546.221 683.103c-2.738 2.738-5.475 5.475-10.951 8.213 5.475 0 8.213 0 13.688-2.738 0 0 0-2.738-2.738-5.475zM354.586 595.498c2.738 16.426 10.951 30.114 21.901 43.802 5.475-2.738 10.951-8.213 16.426-10.951-2.738-10.951-5.475-21.901-5.475-32.852zM584.548 631.087c-5.475 13.688-13.688 24.639-21.901 35.589 2.738 5.475 5.475 8.213 8.213 13.688 19.163-8.213 32.852-21.901 43.802-38.327z" />
<glyph unicode="&#xe96f;" glyph-name="play" data-tags="play" d="M512 825.6c-172.8 0-313.6-140.8-313.6-313.6s140.8-313.6 313.6-313.6c172.8 0 313.6 140.8 313.6 313.6 0 173.6-140.8 313.6-313.6 313.6zM649.6 491.2l-206.4-119.2c-19.2-11.2-34.4-2.4-34.4 20l-0.8 240c0 21.6 15.2 30.4 34.4 20l207.2-120.8c18.4-11.2 18.4-29.6 0-40z" />
<glyph unicode="&#xe970;" glyph-name="plus" data-tags="plus" d="M414.861 167.904v246.956h-246.956v194.278h246.956v246.956h194.278v-246.956h246.956v-194.278h-246.956v-246.956z" />
<glyph unicode="&#xe971;" glyph-name="provider-add" data-tags="provider-add" d="M511.2 467.2c36 0 69.6 3.2 100.8 8.8v36.8c0 26.4 13.6 49.6 33.6 63.2-40-10.4-85.6-16-134.4-16-150.4 0-272.8 54.4-272.8 121.6v-92.8c0-68 122.4-121.6 272.8-121.6v0zM784 714.4c0-67.2-121.6-121.6-272.8-121.6-150.4 0-272.8 54.4-272.8 121.6s122.4 121.6 272.8 121.6c150.4-0.8 272.8-55.2 272.8-121.6v0zM784 680.8c0-37.6-37.6-70.4-97.6-92.8 0 0 0.8 0 0.8 0h50.4c16 0 31.2-5.6 44-14.4 1.6 4.8 1.6 9.6 1.6 14.4 0.8 24.8 0.8 50.4 0.8 92.8v0zM485.6 341.6v44.8c0 17.6 6.4 34.4 16.8 47.2-147.2 1.6-264 55.2-264 120.8v-92.8c0-62.4 108.8-114.4 247.2-120v0zM612 260.8h-50.4c-32 0-59.2 20-70.4 47.2-141.6 4.8-252.8 56.8-252.8 120.8v-92.8c0-67.2 121.6-121.6 272.8-121.6 36 0 69.6 3.2 100.8 8.8v37.6zM864 412h-100.8v100.8c0 13.6-11.2 24.8-25.6 24.8h-50.4c-13.6 0-24.8-11.2-24.8-24.8v-100.8h-100.8c-13.6 0-24.8-11.2-24.8-24.8v-51.2c0-13.6 11.2-25.6 24.8-25.6h100.8v-100.8c0-13.6 11.2-25.6 24.8-25.6h50.4c13.6 0 25.6 11.2 25.6 25.6v101.6h100.8c13.6 0 25.6 11.2 25.6 25.6v50.4c0 12.8-12 24.8-25.6 24.8v0z" />
<glyph unicode="&#xe972;" glyph-name="provider-default" data-tags="provider-default" d="M812.025 163.873l-104.357-75.822 39.949 121.478-103.541 75.822h128.815l39.134 122.293 39.949-122.293h128.815l-103.541-75.822 39.949-121.478zM510.369 591.083c160.611 0 272.306 61.962 272.306 117.401s-111.694 116.586-272.306 116.586-272.306-61.962-272.306-117.401 110.879-116.586 272.306-116.586zM733.758 317.146l15.49 46.471c-31.796-20.382-74.191-36.688-125.554-46.471 0 0 110.064 0 110.064 0zM510.369 330.191c119.847 0 211.975 34.242 251.924 74.191l20.382 63.592v49.732c-46.471-49.732-150.013-83.975-272.306-83.975s-226.65 36.688-272.306 86.42v-72.561c0-55.439 110.879-117.401 272.306-117.401zM510.369 460.637c160.611 0 272.306 61.962 272.306 117.401v70.93c-46.471-49.732-150.013-83.975-272.306-83.975s-225.834 34.242-272.306 83.975v-70.93c0-55.439 110.879-117.401 272.306-117.401zM581.299 310.624c-22.828-2.446-46.471-3.261-70.93-3.261-122.293 0-225.834 33.427-272.306 83.159v-72.561c0-55.439 110.879-117.401 272.306-117.401 72.561 0 135.338 13.045 182.624 31.796-0.815 0-111.694 78.268-111.694 78.268z" />
<glyph unicode="&#xe973;" glyph-name="provider-home" data-tags="provider-home" d="M512 456.8c160 0 271.2 61.6 271.2 116.8v71.2c-46.4-49.6-149.6-84-271.2-84s-225.6 34.4-271.2 84v-71.2c0-55.2 111.2-116.8 271.2-116.8zM512 587.2c160.8 0 271.2 61.6 271.2 116.8s-110.4 116.8-271.2 116.8-271.2-61.6-271.2-116.8c0-55.2 110.4-116.8 271.2-116.8zM553.6 265.6h-4.8c-15.2 0-20 9.6-20.8 12.8s-4 13.6 8 24l3.2 3.2c-8.8-0.8-18.4-0.8-28-0.8-121.6 0-225.6 32-271.2 81.6v-71.2c0-55.2 111.2-116.8 271.2-116.8 14.4 0 28 0.8 41.6 1.6v65.6zM512 327.2c20 0 39.2 0.8 57.6 2.4l86.4 70.4c11.2 8.8 28.8 8.8 40 0l29.6-24c4 6.4 10.4 10.4 18.4 10.4h2.4c24 17.6 37.6 37.6 37.6 56.8v71.2c-47.2-48.8-150.4-83.2-272-83.2s-225.6 35.2-271.2 84.8v-72c0-55.2 111.2-116.8 271.2-116.8zM812.8 291.2l-34.4 28v44.8c0 4.8-4 8.8-8.8 8.8h-21.6c-4.8 0-8.8-4-8.8-8.8v-12l-45.6 37.6c-3.2 2.4-8 4-12 4-4.8 0-8.8-1.6-12-4l-120-98.4c-5.6-4.8-4.8-8-4.8-10.4 0.8-1.6 3.2-4.8 9.6-4.8h16.8v-128.8c0-9.6 7.2-16.8 16.8-16.8h52c8.8 0 16 7.2 16 16.8v52.8c0 4.8 4 8.8 8.8 8.8h35.2c4 0 8-4 8-8.8v-52.8c0-8.8 8-16.8 16.8-16.8h51.2c8.8 0 16.8 7.2 16.8 16.8v128.8h16.8c7.2 0 9.6 3.2 9.6 4.8-0.8 1.6-0.8 5.6-6.4 10.4v0z" />
<glyph unicode="&#xe974;" glyph-name="provider" data-tags="provider" d="M512 589.6c160.8 0 271.2 61.6 271.2 116.8s-110.4 116.8-271.2 116.8-271.2-61.6-271.2-116.8 110.4-116.8 271.2-116.8zM240.8 388.8v-71.2c0-55.2 111.2-116.8 271.2-116.8s271.2 61.6 271.2 116.8v73.6c-46.4-49.6-149.6-84-271.2-84s-225.6 32-271.2 81.6zM240.8 518.4v-72c0-55.2 111.2-116.8 271.2-116.8s271.2 61.6 271.2 116.8v71.2c-46.4-49.6-149.6-84-271.2-84s-225.6 35.2-271.2 84.8zM240.8 647.2v-71.2c0-55.2 111.2-116.8 271.2-116.8s271.2 61.6 271.2 116.8v71.2c-46.4-49.6-149.6-84-271.2-84s-225.6 34.4-271.2 84z" />
<glyph unicode="&#xe975;" glyph-name="providers-outline" data-tags="providers-outline" d="M756.8 734.4v0c-14.4 9.6-35.2 17.6-60.8 24.8-51.2 14.4-118.4 21.6-190.4 21.6s-139.2-8-190.4-21.6c-25.6-7.2-46.4-15.2-60.8-24.8-18.4-12-27.2-25.6-27.2-40.8v-352c0-15.2 9.6-28.8 27.2-40.8 14.4-9.6 35.2-18.4 60.8-24.8 51.2-14.4 118.4-21.6 190.4-21.6s139.2 8 190.4 22.4c25.6 7.2 46.4 15.2 60.8 24.8 18.4 12 27.2 25.6 27.2 40.8v352c0 14.4-8.8 28-27.2 40zM755.2 341.6c0-6.4-13.6-23.2-66.4-37.6v0c-48.8-13.6-113.6-20.8-182.4-20.8s-134.4 7.2-183.2 20.8c-52.8 14.4-66.4 31.2-66.4 37.6v75.2c14.4-8.8 34.4-16.8 58.4-24 51.2-14.4 118.4-21.6 190.4-21.6s139.2 8 190.4 22.4c24.8 7.2 44 15.2 58.4 24v-76zM755.2 459.2c0-6.4-13.6-23.2-66.4-37.6-48.8-13.6-113.6-21.6-183.2-21.6s-133.6 8-182.4 21.6c-52.8 14.4-66.4 31.2-66.4 37.6v75.2c14.4-8.8 34.4-16.8 58.4-24 51.2-14.4 118.4-22.4 190.4-22.4s139.2 8 190.4 21.6c24.8 7.2 44 15.2 58.4 24v-74.4zM755.2 576c0-6.4-13.6-23.2-66.4-37.6-48.8-13.6-113.6-20.8-182.4-20.8s-134.4 7.2-182.4 20.8c-52.8 14.4-66.4 31.2-66.4 37.6v75.2c14.4-8.8 34.4-16.8 58.4-24 51.2-14.4 118.4-21.6 190.4-21.6s139.2 8 190.4 21.6c24.8 7.2 44 15.2 58.4 24v-75.2zM688 656c-48.8-13.6-113.6-20.8-182.4-20.8s-133.6 7.2-182.4 20.8c-52.8 14.4-66.4 31.2-66.4 37.6s13.6 23.2 66.4 37.6c48.8 13.6 113.6 20.8 182.4 20.8s134.4-7.2 182.4-20.8c52.8-14.4 66.4-31.2 66.4-37.6 0.8-6.4-13.6-23.2-66.4-37.6z" />
<glyph unicode="&#xe976;" glyph-name="providers" data-tags="providers" d="M411.457 361.662c-0.295 0-0.571 0-0.847 0-118.871 0-201.041 45.449-201.041 86.534v53.313c30.901-33.277 97.104-56.443 176.327-60.476v-38.838c0-13.646 9.116-27.752 25.561-40.532zM410.612 457.812c-118.89 0-201.041 45.431-201.041 86.534v53.331c30.901-33.295 97.104-57.898 176.327-62.189v-37.125c0-13.646 9.116-27.77 25.561-40.551-0.276 0-0.552 0-0.847 0zM410.612 650.113c-118.89 0-201.041 45.449-201.041 86.552 0 41.066 82.151 86.534 201.041 86.534 118.871 0 201.041-45.468 201.041-86.534 0-19.631-18.784-40.238-51.287-56.425-50.385-2.965-92.795-14.198-123.162-29.336-8.637-0.497-17.495-0.792-26.592-0.792zM410.612 553.972c-118.89 0-201.041 45.449-201.041 86.534v52.447c33.534-36.168 108.669-61.231 196.934-61.986-13.296-11.675-20.607-24.253-20.607-36.444 0-13.646 9.116-27.77 25.561-40.551-0.295 0-0.571 0-0.847 0zM613.389 489.266c-118.89 0-201.041 45.449-201.041 86.552 0 41.066 82.151 86.534 201.041 86.534 118.871 0 201.041-45.468 201.041-86.534 0-41.103-82.17-86.552-201.041-86.552zM412.339 340.665c34.068-36.702 110.99-61.176 201.041-61.176s166.954 25.34 201.041 62.041v-54.178c0-41.085-82.17-86.552-201.041-86.552s-201.041 45.468-201.041 86.552v19.226zM412.339 436.824c34.068-36.72 110.99-62.925 201.041-62.925s166.954 25.321 201.041 62.060v-52.465c0-41.085-82.17-86.534-201.041-86.534s-201.041 45.449-201.041 86.534v32.356zM412.339 532.104c34.068-36.72 110.99-62.060 201.041-62.060s166.954 25.34 201.041 62.060v-52.447c0-41.085-82.17-86.534-201.041-86.534s-201.041 45.449-201.041 86.534z" />
<glyph unicode="&#xe977;" glyph-name="qos" data-tags="qos" d="M262.847 814.474c-29.528 0-53.289-23.761-53.289-53.289v-498.371c0-29.527 23.761-53.289 53.289-53.289h498.306c29.528 0 53.289 23.762 53.289 53.289v498.371c0 29.528-23.761 53.289-53.289 53.289h-498.306zM531.734 690.54h213.22v-63.381h-213.22v63.381zM430.492 621.438l54.896-31.691-106.899-185.129-102.785 76.687 37.862 50.782 45.704-34.069 71.223 123.419zM533.791 545.33h213.22v-63.317h-213.22v63.317zM529.677 400.183h213.22v-63.381h-213.22v63.381z" />
<glyph unicode="&#xe978;" glyph-name="refresh" data-tags="refresh" d="M266.026 561.431c22.019 0 40.682-14.448 44.727-34.615 17.774-94.055 102.222-166.059 206.221-175.478v0 22.067c0 9.537 5.84 18.232 15.018 22.437 9.177 4.306 20.151 3.297 28.24-2.372v0l123.062-86.099c6.729-4.659 10.774-12.194 10.774-19.965 0-7.888-4.045-15.306-10.774-19.965v0l-123.062-86.2c-8.089-5.651-19.062-6.677-28.24-2.355-9.177 4.188-15.018 12.884-15.018 22.437v0 23.615c-173.828 9.806-315.336 131.444-340.928 288.32-1.976 12.194 1.87 24.456 10.574 33.723 8.488 9.234 21.021 14.448 34.261 14.448v0zM463.767 842.733c8.18 5.685 19.153 6.694 28.33 2.388 9.087-4.222 14.927-12.917 14.927-22.437v0-23.631c173.81-9.806 315.336-131.512 340.928-288.404 1.959-12.093-1.778-24.472-10.465-33.605-8.597-9.368-21.148-14.498-34.37-14.498v0h-45.162c-21.91 0-40.682 14.498-44.618 34.631-17.865 94.071-102.331 166.059-206.312 175.478v0-22.168c0-9.419-5.84-18.115-14.927-22.437-9.177-4.205-20.151-3.297-28.33 2.489v0l-123.062 86.082c-6.729 4.676-10.774 12.093-10.774 19.982 0 7.872 4.044 15.272 10.774 19.965v0z" />
</font>
</defs>
</svg>
