<svg version="1" xmlns="http://www.w3.org/2000/svg" width="682.667" height="682.667" viewBox="0 0 512.000000 512.000000"><path d="M128.9 87.4c-.2.2-3.3.7-6.9 1-37.1 3.9-65.8 20-83 46.6-11.2 17.5-20.7 46.2-23.6 71.5-.3 3.3-.8 6.9-1 7.9-2.9 15.4-2.2 77.7 1.1 94.6.2 1 .6 3.5.9 5.6 6.4 41.6 23.7 73.9 48.3 89.8 15.7 10.2 26.7 14 55.3 19.2 1.9.3 13.9.8 26.5.9 21.7.3 25.4 0 43.5-3 7.4-1.2 21.8-5.9 29.6-9.5 25-11.6 41.5-30.5 52.5-60.2 3-8.2 7.4-24.4 8.5-31.2.3-2.1.7-4.7.9-5.6 3.5-18.4 5.1-60.5 3.2-87.5-.8-11.1-1-13.2-2.2-21.5-.4-2.5-.9-6.1-1.1-8-1-7-6.6-28.4-9.5-36.4-12-32.3-29.8-52-57.7-63.7-8.1-3.3-23.2-7.5-31-8.4-2.6-.4-5.8-.9-7.2-1.2-2.8-.6-46.5-1.4-47.1-.9zm36.6 58.7c12.4 2.7 20.7 6.9 28 14.2 6.8 6.8 10.9 14.2 14.9 26.3 3.1 9.4 3.2 10.3 6 29.9 2 13.8 2.7 51.3 1.3 70.8-1.7 22.1-6.6 42.3-13.3 54.4-6.1 11-18.5 19.7-33.4 23.4-8.2 2.1-33.7 1.8-42-.5-29.1-7.9-40.5-28-44.8-79.1-.9-10.8-.8-52.2.2-59.5.3-2.5.8-6.6 1.1-9.2 5.3-51.7 26.1-73.5 69-72.1 4.4.2 10.3.8 13 1.4zM317.6 121.2c.1 15.6.2 28.5.3 28.8 0 .3 12.1.6 26.9.6 14.7 0 29.6.3 33.1.7 23.3 2.4 35.7 9 43 22.7 6.3 11.7 9.6 24.4 10.8 41.2 1.4 20 .6 83.8-1.1 86.7-.2.3-.7 2.8-1 5.5-1.1 7.7-6.2 22.6-10.1 29-6.7 11.2-19 19.5-34 23-9 2.1-13.9 2.4-43.5 2.5l-24.6.1.1 28.7v28.8H346c25.5-.1 44.8-.8 50.5-1.9 1.1-.2 4.5-.7 7.5-1.1 9.4-1.1 27.6-6.2 35.5-9.9 20.2-9.3 32.7-21.8 43.4-43.2 7.7-15.6 12.4-31.7 14.6-50.4.4-3 .8-6.6 1-8 2-13.9 2.8-77.7 1.2-94.5-2.9-30.3-6.6-45.3-15.4-63-14.1-28.2-35.2-43.3-70.1-50.1-16.6-3.3-30-4.2-63.3-4.3l-33.5-.2.2 28.3z"/></svg>