<?xml version="1.0" encoding="UTF-8"?>
<svg width="521px" height="235px" viewBox="0 0 521 235" version="1.1" xmlns="http://www.w3.org/2000/svg" xmlns:xlink="http://www.w3.org/1999/xlink">
    <!-- Generator: Sketch 59 (86127) - https://sketch.com -->
    <title>Page 1</title>
    <desc>Created with Sketch.</desc>
    <g id="Empty-screen-first-screen" stroke="none" stroke-width="1" fill="none" fill-rule="evenodd">
        <g id="Error-New" transform="translate(-953.000000, -455.000000)">
            <g id="Page-1" transform="translate(953.000000, 454.000000)">
                <g fill="#303E51">
                    <path d="M34.7965508,190.804319 C33.3365075,190.804319 32.0933023,191.784452 31.8427338,193.136052 L31.5375543,194.8442 L29.8108804,195.427507 C27.3035894,196.222653 25.6411639,198.381335 25.6411639,200.808546 C25.6411639,203.923492 28.3685055,206.456623 31.7222682,206.456623 L60.1650034,206.456623 C63.0947272,206.456623 65.4783402,204.244235 65.4783402,201.523133 C65.4783402,198.848278 63.0449347,196.588152 60.1650034,196.588152 L56.9397373,196.588152 L57.1003581,193.594045 L57.0987519,193.453813 C57.0987519,188.890298 53.1635417,185.235309 48.3272488,185.235309 C44.9509991,185.235309 41.8365614,187.009097 40.390974,189.754069 L38.9726921,192.384169 L36.1537967,191.075832 C35.7313639,190.901288 35.2655636,190.804319 34.7965508,190.804319 M60.2421014,210.867971 L31.7222682,210.867971 C25.7487799,210.867971 20.89,206.355178 20.89,200.808546 C20.89,196.802976 23.4567207,193.212136 27.3646253,191.630794 C28.3668993,188.591931 31.3592652,186.464579 34.7965508,186.464579 C35.5418314,186.464579 36.2292885,186.585417 36.826798,186.746535 C39.2859027,183.061709 43.5712663,180.823961 48.3272488,180.823961 C51.9637042,180.823961 55.3768967,182.147216 57.9339802,184.55205 C60.1858841,186.665976 61.5126121,189.382603 61.7374812,192.290184 C66.54165,192.994328 70.2278979,196.865633 70.2278979,201.523133 C70.2278979,206.675922 65.7481831,210.867971 60.2421014,210.867971" id="Fill-3-Copy"></path>
                    <path d="M7.21763146,114.746494 C6.19952154,114.746494 5.24311525,115.380789 4.88238632,116.395187 C4.42554213,117.681596 5.10072225,119.10104 6.38700565,119.558351 C7.0087884,119.779285 7.6815953,119.746026 8.27845928,119.460949 C8.87413665,119.177061 9.3250478,118.678176 9.54694355,118.054571 L9.54694355,118.053383 C9.7676527,117.429778 9.73324106,116.757472 9.45082828,116.159999 C9.1672289,115.562526 8.6676668,115.112342 8.04351084,114.89022 C7.77059093,114.792819 7.49173798,114.746494 7.21763146,114.746494 M7.22000468,124.449791 C6.40599138,124.449791 5.58841826,124.310817 4.79932374,124.029303 C1.05082812,122.695382 -0.915381836,118.557019 0.417179286,114.805885 C1.74974041,111.051187 5.88625695,109.081783 9.63119274,110.419267 C11.4467034,111.065441 12.9038584,112.380357 13.7309244,114.122889 C14.559177,115.864232 14.6588521,117.825322 14.0133372,119.643874 C13.3690089,121.461238 12.0542469,122.917504 10.3134925,123.746602 C9.32979423,124.214603 8.27845928,124.449791 7.22000468,124.449791" id="Fill-20"></path>
                    <path d="M398.214578,225.745339 C396.849979,225.745339 395.739314,226.857138 395.739314,228.221943 C395.739314,229.587935 396.849979,230.699734 398.214578,230.699734 C399.579178,230.699734 400.689843,229.587935 400.689843,228.221943 C400.689843,226.857138 399.579178,225.745339 398.214578,225.745339 M398.214578,235.445073 C394.235881,235.445073 391,232.204701 391,228.221943 C391,224.240372 394.235881,221 398.214578,221 C402.193276,221 405.429157,224.240372 405.429157,228.221943 C405.429157,232.204701 402.193276,235.445073 398.214578,235.445073" id="Fill-21"></path>
                    <path d="M398.214578,134.745339 C396.849979,134.745339 395.739314,135.857138 395.739314,137.221943 C395.739314,138.587935 396.849979,139.699734 398.214578,139.699734 C399.579178,139.699734 400.689843,138.587935 400.689843,137.221943 C400.689843,135.857138 399.579178,134.745339 398.214578,134.745339 M398.214578,144.445073 C394.235881,144.445073 391,141.204701 391,137.221943 C391,133.240372 394.235881,130 398.214578,130 C402.193276,130 405.429157,133.240372 405.429157,137.221943 C405.429157,141.204701 402.193276,144.445073 398.214578,144.445073" id="Fill-21-Copy"></path>
                    <path d="M104.094992,127.202481 L108.451031,128.545904 L107.434108,124.098708 L104.094992,127.202481 Z M111.676233,134.394728 C111.442471,134.394728 111.207522,134.360281 110.978507,134.2902 L98.7766139,130.528375 C97.967347,130.278933 97.3514973,129.614942 97.1628266,128.789407 C96.9741559,127.963873 97.2411428,127.097952 97.8605523,126.52186 L107.218145,117.823458 C107.837555,117.247365 108.718018,117.044248 109.528472,117.294878 C110.338925,117.54432 110.952402,118.208311 111.141072,119.033846 L113.986559,131.492885 C114.17523,132.320795 113.90943,133.18434 113.288833,133.760432 C112.843855,134.173793 112.265977,134.394728 111.676233,134.394728 L111.676233,134.394728 Z" id="Fill-22"></path>
                    <path d="M33.6024121,34.8313653 L37.255979,37.5562233 L37.7875795,33.0258797 L33.6024121,34.8313653 Z M39.1320067,44.2875965 C38.6300714,44.2875965 38.1316959,44.1272409 37.716383,43.81722 L27.4783266,36.1807283 C26.7995867,35.6747172 26.441231,34.8444314 26.5409061,34.0022673 C26.6393945,33.1601033 27.1793013,32.4343456 27.9565298,32.0993805 L39.682593,27.041645 C40.4562616,26.7066799 41.3568973,26.8123958 42.0356373,27.3184069 C42.7155638,27.8256058 43.0727329,28.6558917 42.9730578,29.4980557 L41.4862376,42.1910951 C41.3877491,43.0332591 40.8466557,43.7590168 40.0694273,44.0939819 C39.7680288,44.2234543 39.4500178,44.2875965 39.1320067,44.2875965 L39.1320067,44.2875965 Z" id="Fill-23"></path>
                    <path d="M436.142956,75.2030035 L439.796523,77.9278615 L440.328124,73.3975178 L436.142956,75.2030035 Z M441.672551,84.6592347 C441.170615,84.6592347 440.67224,84.498879 440.256927,84.1888581 L430.018871,76.5523665 C429.340131,76.0463553 428.981775,75.2160695 429.08145,74.3739055 C429.179939,73.5317414 429.719845,72.8059837 430.497074,72.4710186 L442.223137,67.4132831 C442.996806,67.078318 443.897441,67.1840339 444.576181,67.6900451 C445.256108,68.197244 445.613277,69.0275298 445.513602,69.8696939 L444.026782,82.5627332 C443.928293,83.4048972 443.3872,84.130655 442.609971,84.4656201 C442.308573,84.5950924 441.990562,84.6592347 441.672551,84.6592347 L441.672551,84.6592347 Z" id="Fill-23-Copy"></path>
                    <path d="M374.077956,10.9829546 L377.731523,13.7078126 L378.263124,9.17746893 L374.077956,10.9829546 Z M379.607551,20.4391858 C379.105615,20.4391858 378.60724,20.2788301 378.191927,19.9688092 L367.953871,12.3323176 C367.275131,11.8263064 366.916775,10.9960206 367.01645,10.1538566 C367.114939,9.31169253 367.654845,8.58593481 368.432074,8.2509697 L380.158137,3.19323421 C380.931806,2.8582691 381.832441,2.96398504 382.511181,3.46999615 C383.191108,3.97719509 383.548277,4.80748093 383.448602,5.64964497 L381.961782,18.3426843 C381.863293,19.1848483 381.3222,19.9106061 380.544971,20.2455712 C380.243573,20.3750435 379.925562,20.4391858 379.607551,20.4391858 L379.607551,20.4391858 Z" id="Fill-23-Copy-2" transform="translate(375.232545, 11.719593) rotate(-68.000000) translate(-375.232545, -11.719593) "></path>
                    <path d="M99.2532114,43.4536171 C98.2873123,43.4536171 97.3795569,42.8573317 97.0271343,41.8951979 L92.3483377,29.0976305 C91.8986132,27.8658616 92.5298888,26.5034327 93.759215,26.0532491 C94.986168,25.6066289 96.3495809,26.2349854 96.8004921,27.4667543 L101.479289,40.2643217 C101.929013,41.4960906 101.297738,42.8585196 100.068411,43.3087032 C99.7990512,43.4061044 99.5249447,43.4536171 99.2532114,43.4536171" id="Fill-24"></path>
                    <path d="M468.018211,39.6981159 C467.052312,39.6981159 466.144557,39.1018305 465.792134,38.1396967 L461.113338,25.3421293 C460.663613,24.1103604 461.294889,22.7479314 462.524215,22.2977478 C463.751168,21.8511277 465.114581,22.4794842 465.565492,23.7112531 L470.244289,36.5088205 C470.694013,37.7405894 470.062738,39.1030183 468.833411,39.5532019 C468.564051,39.6506031 468.289945,39.6981159 468.018211,39.6981159" id="Fill-24-Copy"></path>
                    <path d="M90.8210816,39.0946481 C89.8551824,39.0946481 88.9474271,38.4983627 88.5950044,37.5362289 C88.1452798,36.3068357 88.7765555,34.9432189 90.0058817,34.4930353 L102.791586,29.8082751 C104.018539,29.3628428 105.381952,29.9900115 105.831677,31.2217804 C106.281401,32.4511736 105.650125,33.8147904 104.420799,34.264974 L91.6362815,38.9497341 C91.3669214,39.0471353 91.0928149,39.0946481 90.8210816,39.0946481" id="Fill-25"></path>
                    <path d="M459.586082,35.3391469 C458.620182,35.3391469 457.712427,34.7428615 457.360004,33.7807277 C456.91028,32.5513345 457.541555,31.1877177 458.770882,30.7375341 L471.556586,26.0527739 C472.783539,25.6073416 474.146952,26.2345103 474.596677,27.4662791 C475.046401,28.6956723 474.415125,30.0592891 473.185799,30.5094727 L460.401281,35.1942329 C460.131921,35.2916341 459.857815,35.3391469 459.586082,35.3391469" id="Fill-25-Copy"></path>
                    <path d="M87.2704292,99.4510969 C86.589316,99.4510969 85.9129493,99.1588933 85.4454256,98.5934912 L76.7547064,88.1026692 C75.9181476,87.0942104 76.0581674,85.5987457 77.0644112,84.7625207 C78.0718417,83.925108 79.5681547,84.0652707 80.4023404,85.0737295 L89.0930595,95.5645514 C89.9296184,96.5730102 89.7895986,98.0684749 88.7821682,98.9046999 C88.3395633,99.2729239 87.8032163,99.4510969 87.2704292,99.4510969" id="Fill-26"></path>
                    <path d="M77.6848887,98.5555997 C77.0037755,98.5555997 76.3274088,98.2633961 75.8598851,97.697994 C75.0233263,96.6895353 75.163346,95.1940705 76.1707765,94.3578456 L86.6497144,85.6570676 C87.6559582,84.8208427 89.1510847,84.9586297 89.9864569,85.9694641 C90.8230158,86.9779229 90.682996,88.4733877 89.6755656,89.3096126 L79.1966277,98.0092028 C78.7540228,98.3774268 78.2176758,98.5555997 77.6848887,98.5555997" id="Fill-27"></path>
                    <path d="M484.906551,151.980358 C483.446507,151.980358 482.203302,152.960492 481.952734,154.312092 L481.647554,156.02024 L479.92088,156.603546 C477.413589,157.398693 475.751164,159.557374 475.751164,161.984585 C475.751164,165.099531 478.478505,167.632662 481.832268,167.632662 L510.275003,167.632662 C513.204727,167.632662 515.58834,165.420275 515.58834,162.699173 C515.58834,160.024317 513.154935,157.764191 510.275003,157.764191 L507.049737,157.764191 L507.210358,154.770084 L507.208752,154.629852 C507.208752,150.066337 503.273542,146.411348 498.437249,146.411348 C495.060999,146.411348 491.946561,148.185137 490.500974,150.930108 L489.082692,153.560208 L486.263797,152.251871 C485.841364,152.077327 485.375564,151.980358 484.906551,151.980358 M510.352101,172.04401 L481.832268,172.04401 C475.85878,172.04401 471,167.531217 471,161.984585 C471,157.979015 473.566721,154.388175 477.474625,152.806833 C478.476899,149.767971 481.469265,147.640618 484.906551,147.640618 C485.651831,147.640618 486.339288,147.761456 486.936798,147.922574 C489.395903,144.237748 493.681266,142 498.437249,142 C502.073704,142 505.486897,143.323255 508.04398,145.728089 C510.295884,147.842015 511.622612,150.558642 511.847481,153.466223 C516.65165,154.170368 520.337898,158.041672 520.337898,162.699173 C520.337898,167.851961 515.858183,172.04401 510.352101,172.04401" id="Fill-3-Copy-2"></path>
                    <path d="M201.453125,177.789062 L346.789062,177.789062 L346.789062,63.5078125 L201.453125,63.5078125 L201.453125,177.789062 Z M201.453125,57.296875 L346.789062,57.296875 L346.789062,32.453125 L201.453125,32.453125 L201.453125,57.296875 Z M194,184 L353,184 L353,25 L194,25 L194,184 Z M334.367187,39.90625 L334.367187,47.359375 L234.992187,47.359375 L234.992187,39.90625 L334.367187,39.90625 Z M216.359375,39.90625 L216.359375,47.359375 L208.90625,47.359375 L208.90625,39.90625 L216.359375,39.90625 Z M228.78125,39.90625 L228.78125,47.359375 L222.570312,47.359375 L222.570312,39.90625 L228.78125,39.90625 Z" id="Fill-20"></path>
                </g>
                <path d="M274,86 C255.802857,86 241,100.804429 241,119 C241,137.197143 255.802857,152 274,152 C292.197143,152 307,137.197143 307,119 C307,100.804429 292.197143,86 274,86 M274,155 C254.149913,155 238,138.851652 238,119 C238,99.149913 254.149913,83 274,83 C293.851652,83 310,99.149913 310,119 C310,138.851652 293.851652,155 274,155" id="Fill-3" fill="#EE3F3F"></path>
                <path d="M287.706818,127.064126 L287.706818,129.545895 C287.706818,131.427889 283.94283,133.510652 278.497616,133.510652 C273.052402,133.510652 269.288413,131.427889 269.288413,129.545895 L269.288413,129.545895 L269.288413,127.103773 C270.849009,128.784999 274.372581,129.906097 278.497616,129.906097 C282.62265,129.906097 286.145379,128.745351 287.706818,127.064126 L287.706818,127.064126 Z M269.288413,122.698928 C270.849009,124.380997 274.372581,125.581391 278.497616,125.581391 C282.62265,125.581391 286.145379,124.421488 287.706818,122.738576 L287.706818,122.738576 L287.706818,125.141893 C287.706818,127.023887 283.94283,129.105807 278.497616,129.105807 C273.052402,129.105807 269.288413,127.023887 269.288413,125.141893 L269.288413,125.141893 Z M260,119.735905 C261.415503,121.260227 264.44812,122.321433 268.077138,122.506173 L268.077138,122.506173 L268.077138,124.285253 C268.077138,124.910335 268.494703,125.556506 269.248006,126.14194 L269.248006,126.14194 L269.209202,126.14194 C263.763988,126.14194 260,124.060021 260,122.178027 L260,122.178027 Z M287.706818,118.334406 L287.706818,120.73688 C287.706818,122.618874 283.94283,124.700793 278.497616,124.700793 C273.052402,124.700793 269.288413,122.618874 269.288413,120.73688 L269.288413,120.73688 L269.288413,118.334406 C270.849009,120.016475 274.372581,121.177221 278.497616,121.177221 C282.62265,121.177221 286.145379,120.016475 287.706818,118.334406 L287.706818,118.334406 Z M260.000084,115.330638 C261.415587,116.855804 264.448204,117.982808 268.077222,118.179358 L268.077222,118.179358 L268.077222,119.879986 C268.077222,120.505068 268.494787,121.152082 269.248091,121.737517 L269.248091,121.737517 L269.209287,121.737517 C263.763229,121.737517 260.000084,119.656441 260.000084,117.773603 L260.000084,117.773603 Z M278.498038,112.368037 C283.943252,112.368037 287.70724,114.4508 287.70724,116.33195 C287.70724,118.214788 283.943252,120.296707 278.498038,120.296707 C273.05198,120.296707 269.288835,118.214788 269.288835,116.33195 C269.288835,114.4508 273.05198,112.368037 278.498038,112.368037 Z M260.000084,110.966284 C261.536217,112.623047 264.977963,113.771139 269.021172,113.805725 C268.412118,114.340546 268.077222,114.916701 268.077222,115.475141 C268.077222,116.100223 268.494787,116.747237 269.248091,117.332672 L269.248091,117.332672 L269.209287,117.332672 C263.763229,117.332672 260.000084,115.250753 260.000084,113.368758 L260.000084,113.368758 Z M269.209287,105 C274.654501,105 278.418489,107.082763 278.418489,108.963913 C278.418489,109.863154 277.558053,110.807104 276.06916,111.548597 C273.761165,111.684412 271.818434,112.198986 270.427395,112.892397 C270.031763,112.915173 269.626008,112.92867 269.209287,112.92867 C263.763229,112.92867 260.000084,110.846751 260.000084,108.963913 C260.000084,107.082763 263.763229,105 269.209287,105 Z" id="Combined-Shape" fill="#555D72"></path>
                <line x1="252" y1="96" x2="296.5" y2="144.5" id="Line-2" stroke="#EF3F3F" stroke-width="3" stroke-linecap="square"></line>
            </g>
        </g>
    </g>
</svg>