<?xml version="1.0" encoding="UTF-8"?>
<svg width="507px" height="171px" viewBox="0 0 507 171" version="1.1" xmlns="http://www.w3.org/2000/svg" xmlns:xlink="http://www.w3.org/1999/xlink">
    <!-- Generator: Sketch 59 (86127) - https://sketch.com -->
    <title>Page 1</title>
    <desc>Created with Sketch.</desc>
    <g id="Empty-screen-first-screen" stroke="none" stroke-width="1" fill="none" fill-rule="evenodd">
        <g id="Error-New-Copy-2" transform="translate(-925.000000, -501.000000)">
            <g id="Page-1" transform="translate(925.000000, 501.000000)">
                <g>
                    <path d="M97.9065508,136.980358 C96.4465075,136.980358 95.2033023,137.960492 94.9527338,139.312092 L94.6475543,141.02024 L92.9208804,141.603546 C90.4135894,142.398693 88.7511639,144.557374 88.7511639,146.984585 C88.7511639,150.099531 91.4785055,152.632662 94.8322682,152.632662 L123.275003,152.632662 C126.204727,152.632662 128.58834,150.420275 128.58834,147.699173 C128.58834,145.024317 126.154935,142.764191 123.275003,142.764191 L120.049737,142.764191 L120.210358,139.770084 L120.208752,139.629852 C120.208752,135.066337 116.273542,131.411348 111.437249,131.411348 C108.060999,131.411348 104.946561,133.185137 103.500974,135.930108 L102.082692,138.560208 L99.2637967,137.251871 C98.8413639,137.077327 98.3755636,136.980358 97.9065508,136.980358 M123.352101,157.04401 L94.8322682,157.04401 C88.8587799,157.04401 84,152.531217 84,146.984585 C84,142.979015 86.5667207,139.388175 90.4746253,137.806833 C91.4768993,134.767971 94.4692652,132.640618 97.9065508,132.640618 C98.6518314,132.640618 99.3392885,132.761456 99.936798,132.922574 C102.395903,129.237748 106.681266,127 111.437249,127 C115.073704,127 118.486897,128.323255 121.04398,130.728089 C123.295884,132.842015 124.622612,135.558642 124.847481,138.466223 C129.65165,139.170368 133.337898,143.041672 133.337898,147.699173 C133.337898,152.851961 128.858183,157.04401 123.352101,157.04401" id="Fill-3-Copy" fill="#303E51"></path>
                    <path d="M35.2176315,92.7464938 C34.1995215,92.7464938 33.2431152,93.3807894 32.8823863,94.3951873 C32.4255421,95.6815958 33.1007223,97.1010401 34.3870056,97.5583506 C35.0087884,97.7792851 35.6815953,97.7460261 36.2784593,97.4609494 C36.8741366,97.1770606 37.3250478,96.6781764 37.5469436,96.0545711 L37.5469436,96.0533833 C37.7676527,95.4297781 37.7332411,94.7574722 37.4508283,94.159999 C37.1672289,93.5625258 36.6676668,93.1123422 36.0435108,92.8902199 C35.7705909,92.7928187 35.491738,92.7464938 35.2176315,92.7464938 M35.2200047,102.449791 C34.4059914,102.449791 33.5884183,102.310817 32.7993237,102.029303 C29.0508281,100.695382 27.0846182,96.5570188 28.4171793,92.8058848 C29.7497404,89.0511873 33.8862569,87.0817825 37.6311927,88.4192673 C39.4467034,89.0654411 40.9038584,90.3803573 41.7309244,92.1228885 C42.559177,93.864232 42.6588521,95.825322 42.0133372,97.6438736 C41.3690089,99.4612375 40.0542469,100.917504 38.3134925,101.746602 C37.3297942,102.214603 36.2784593,102.449791 35.2200047,102.449791" id="Fill-20" fill="#303E51"></path>
                    <path d="M7.21457847,54.745339 C5.84997892,54.745339 4.73931355,55.857138 4.73931355,57.2219427 C4.73931355,58.5879351 5.84997892,59.6997342 7.21457847,59.6997342 C8.57917802,59.6997342 9.68984339,58.5879351 9.68984339,57.2219427 C9.68984339,55.857138 8.57917802,54.745339 7.21457847,54.745339 M7.21457847,64.4450731 C3.23588084,64.4450731 0,61.2047015 0,57.2219427 C0,53.2403716 3.23588084,50 7.21457847,50 C11.1932761,50 14.4291569,53.2403716 14.4291569,57.2219427 C14.4291569,61.2047015 11.1932761,64.4450731 7.21457847,64.4450731" id="Fill-21" fill="#303E51"></path>
                    <path d="M426.214578,112.745339 C424.849979,112.745339 423.739314,113.857138 423.739314,115.221943 C423.739314,116.587935 424.849979,117.699734 426.214578,117.699734 C427.579178,117.699734 428.689843,116.587935 428.689843,115.221943 C428.689843,113.857138 427.579178,112.745339 426.214578,112.745339 M426.214578,122.445073 C422.235881,122.445073 419,119.204701 419,115.221943 C419,111.240372 422.235881,108 426.214578,108 C430.193276,108 433.429157,111.240372 433.429157,115.221943 C433.429157,119.204701 430.193276,122.445073 426.214578,122.445073" id="Fill-21-Copy" fill="#303E51"></path>
                    <path d="M403.991707,30.0131978 L408.347746,31.3566216 L407.330822,26.9094254 L403.991707,30.0131978 Z M411.572947,37.2054449 C411.339185,37.2054449 411.104237,37.1709982 410.875221,37.1009168 L398.673328,33.3390924 C397.864061,33.0896503 397.248212,32.4256592 397.059541,31.6001246 C396.87087,30.7745901 397.137857,29.9086697 397.757267,29.3325772 L407.11486,20.6341749 C407.734269,20.0580824 408.614733,19.8549653 409.425186,20.1055952 C410.23564,20.3550373 410.849116,21.0190284 411.037787,21.844563 L413.883274,34.3036019 C414.071944,35.1315121 413.806144,35.9950569 413.185548,36.5711493 C412.74057,36.9845105 412.162691,37.2054449 411.572947,37.2054449 L411.572947,37.2054449 Z" id="Fill-22" fill="#303E51"></path>
                    <path d="M61.6024121,12.8313653 L65.255979,15.5562233 L65.7875795,11.0258797 L61.6024121,12.8313653 Z M67.1320067,22.2875965 C66.6300714,22.2875965 66.1316959,22.1272409 65.716383,21.81722 L55.4783266,14.1807283 C54.7995867,13.6747172 54.441231,12.8444314 54.5409061,12.0022673 C54.6393945,11.1601033 55.1793013,10.4343456 55.9565298,10.0993805 L67.682593,5.04164497 C68.4562616,4.70667986 69.3568973,4.8123958 70.0356373,5.31840691 C70.7155638,5.82560585 71.0727329,6.65589169 70.9730578,7.49805572 L69.4862376,20.1910951 C69.3877491,21.0332591 68.8466557,21.7590168 68.0694273,22.0939819 C67.7680288,22.2234543 67.4500178,22.2875965 67.1320067,22.2875965 L67.1320067,22.2875965 Z" id="Fill-23" fill="#303E51"></path>
                    <path d="M464.142956,53.2030035 L467.796523,55.9278615 L468.328124,51.3975178 L464.142956,53.2030035 Z M469.672551,62.6592347 C469.170615,62.6592347 468.67224,62.498879 468.256927,62.1888581 L458.018871,54.5523665 C457.340131,54.0463553 456.981775,53.2160695 457.08145,52.3739055 C457.179939,51.5317414 457.719845,50.8059837 458.497074,50.4710186 L470.223137,45.4132831 C470.996806,45.078318 471.897441,45.1840339 472.576181,45.6900451 C473.256108,46.197244 473.613277,47.0275298 473.513602,47.8696939 L472.026782,60.5627332 C471.928293,61.4048972 471.3872,62.130655 470.609971,62.4656201 C470.308573,62.5950924 469.990562,62.6592347 469.672551,62.6592347 L469.672551,62.6592347 Z" id="Fill-23-Copy" fill="#303E51"></path>
                    <path d="M392.077956,157.982955 L395.731523,160.707813 L396.263124,156.177469 L392.077956,157.982955 Z M397.607551,167.439186 C397.105615,167.439186 396.60724,167.27883 396.191927,166.968809 L385.953871,159.332318 C385.275131,158.826306 384.916775,157.996021 385.01645,157.153857 C385.114939,156.311693 385.654845,155.585935 386.432074,155.25097 L398.158137,150.193234 C398.931806,149.858269 399.832441,149.963985 400.511181,150.469996 C401.191108,150.977195 401.548277,151.807481 401.448602,152.649645 L399.961782,165.342684 C399.863293,166.184848 399.3222,166.910606 398.544971,167.245571 C398.243573,167.375043 397.925562,167.439186 397.607551,167.439186 L397.607551,167.439186 Z" id="Fill-23-Copy-2" fill="#303E51" transform="translate(393.232545, 158.719593) rotate(-68.000000) translate(-393.232545, -158.719593) "></path>
                    <path d="M127.253211,21.4536171 C126.287312,21.4536171 125.379557,20.8573317 125.027134,19.8951979 L120.348338,7.09763047 C119.898613,5.86586164 120.529889,4.50343265 121.759215,4.05324906 C122.986168,3.60662892 124.349581,4.23498544 124.800492,5.46675428 L129.479289,18.2643217 C129.929013,19.4960906 129.297738,20.8585196 128.068411,21.3087032 C127.799051,21.4061044 127.524945,21.4536171 127.253211,21.4536171" id="Fill-24" fill="#303E51"></path>
                    <path d="M496.018211,17.6981159 C495.052312,17.6981159 494.144557,17.1018305 493.792134,16.1396967 L489.113338,3.34212925 C488.663613,2.11036041 489.294889,0.747931429 490.524215,0.297747833 C491.751168,-0.148872305 493.114581,0.479484219 493.565492,1.71125306 L498.244289,14.5088205 C498.694013,15.7405894 498.062738,17.1030183 496.833411,17.5532019 C496.564051,17.6506031 496.289945,17.6981159 496.018211,17.6981159" id="Fill-24-Copy" fill="#303E51"></path>
                    <path d="M118.371082,17.4296114 C117.405182,17.4296114 116.497427,16.833326 116.145004,15.8711922 C115.69528,14.641799 116.326555,13.2781822 117.555882,12.8279986 L130.341586,8.14323846 C131.568539,7.69780614 132.931952,8.32497485 133.381677,9.55674368 C133.831401,10.7861369 133.200125,12.1497537 131.970799,12.5999373 L119.186281,17.2846975 C118.916921,17.3820987 118.642815,17.4296114 118.371082,17.4296114" id="Fill-25" fill="#303E51"></path>
                    <path d="M487.586082,13.3391469 C486.620182,13.3391469 485.712427,12.7428615 485.360004,11.7807277 C484.91028,10.5513345 485.541555,9.18771768 486.770882,8.73753408 L499.556586,4.05277391 C500.783539,3.6073416 502.146952,4.2345103 502.596677,5.46627914 C503.046401,6.69567234 502.415125,8.05928914 501.185799,8.50947274 L488.401281,13.1942329 C488.131921,13.2916341 487.857815,13.3391469 487.586082,13.3391469" id="Fill-25-Copy" fill="#303E51"></path>
                    <path d="M115.270429,77.4510969 C114.589316,77.4510969 113.912949,77.1588933 113.445426,76.5934912 L104.754706,66.1026692 C103.918148,65.0942104 104.058167,63.5987457 105.064411,62.7625207 C106.071842,61.925108 107.568155,62.0652707 108.40234,63.0737295 L117.09306,73.5645514 C117.929618,74.5730102 117.789599,76.0684749 116.782168,76.9046999 C116.339563,77.2729239 115.803216,77.4510969 115.270429,77.4510969" id="Fill-26" fill="#303E51"></path>
                    <path d="M105.684889,76.5555997 C105.003776,76.5555997 104.327409,76.2633961 103.859885,75.697994 C103.023326,74.6895353 103.163346,73.1940705 104.170776,72.3578456 L114.649714,63.6570676 C115.655958,62.8208427 117.151085,62.9586297 117.986457,63.9694641 C118.823016,64.9779229 118.682996,66.4733877 117.675566,67.3096126 L107.196628,76.0092028 C106.754023,76.3774268 106.217676,76.5555997 105.684889,76.5555997" id="Fill-27" fill="#303E51"></path>
                    <path d="M470.906551,137.980358 C469.446507,137.980358 468.203302,138.960492 467.952734,140.312092 L467.647554,142.02024 L465.92088,142.603546 C463.413589,143.398693 461.751164,145.557374 461.751164,147.984585 C461.751164,151.099531 464.478505,153.632662 467.832268,153.632662 L496.275003,153.632662 C499.204727,153.632662 501.58834,151.420275 501.58834,148.699173 C501.58834,146.024317 499.154935,143.764191 496.275003,143.764191 L493.049737,143.764191 L493.210358,140.770084 L493.208752,140.629852 C493.208752,136.066337 489.273542,132.411348 484.437249,132.411348 C481.060999,132.411348 477.946561,134.185137 476.500974,136.930108 L475.082692,139.560208 L472.263797,138.251871 C471.841364,138.077327 471.375564,137.980358 470.906551,137.980358 M496.352101,158.04401 L467.832268,158.04401 C461.85878,158.04401 457,153.531217 457,147.984585 C457,143.979015 459.566721,140.388175 463.474625,138.806833 C464.476899,135.767971 467.469265,133.640618 470.906551,133.640618 C471.651831,133.640618 472.339288,133.761456 472.936798,133.922574 C475.395903,130.237748 479.681266,128 484.437249,128 C488.073704,128 491.486897,129.323255 494.04398,131.728089 C496.295884,133.842015 497.622612,136.558642 497.847481,139.466223 C502.65165,140.170368 506.337898,144.041672 506.337898,148.699173 C506.337898,153.851961 501.858183,158.04401 496.352101,158.04401" id="Fill-3-Copy-2" fill="#303E51"></path>
                    <path d="M194.453125,164.789062 L339.789062,164.789062 L339.789062,50.5078125 L194.453125,50.5078125 L194.453125,164.789062 Z M194.453125,44.296875 L339.789062,44.296875 L339.789062,19.453125 L194.453125,19.453125 L194.453125,44.296875 Z M187,171 L346,171 L346,12 L187,12 L187,171 Z M327.367187,26.90625 L327.367187,34.359375 L227.992187,34.359375 L227.992187,26.90625 L327.367187,26.90625 Z M209.359375,26.90625 L209.359375,34.359375 L201.90625,34.359375 L201.90625,26.90625 L209.359375,26.90625 Z M221.78125,26.90625 L221.78125,34.359375 L215.570312,34.359375 L215.570312,26.90625 L221.78125,26.90625 Z" id="Fill-20" fill="#303E51"></path>
                    <path d="M266.5,63 C252.3985,63 241,74.3985 241,88.5 C241,102.6015 252.3985,114 266.5,114 C280.6015,114 292,102.6015 292,88.5 C292,74.3985 280.6015,63 266.5,63 L266.5,63 Z M281,99.052 L277.052,103 L267,92.948 L256.948,103 L253,99.052 L263.052,89 L253,78.948 L256.948,75 L267,85.052 L277.052,75 L281,78.948 L270.948,89 L281,99.052 L281,99.052 Z" id="Shape" fill="#EA5744"></path>
                    <rect id="Rectangle-2" fill="#34495E" x="235" y="130" width="64" height="6"></rect>
                    <rect id="Rectangle-2-Copy" fill="#34495E" x="226" y="141" width="81" height="7"></rect>
                </g>
            </g>
        </g>
    </g>
</svg>