<?xml version="1.0" encoding="UTF-8"?>
<svg width="460px" height="268px" viewBox="0 0 460 268" version="1.1" xmlns="http://www.w3.org/2000/svg" xmlns:xlink="http://www.w3.org/1999/xlink">
    <!-- Generator: Sketch 53.1 (72631) - https://sketchapp.com -->
    <title>Page 1</title>
    <desc>Created with Sketch.</desc>
    <g id="Empty-screen-first-screen" stroke="none" stroke-width="1" fill="none" fill-rule="evenodd">
        <g id="Data_V2-Copy" transform="translate(-994.000000, -364.000000)">
            <g id="Page-1" transform="translate(994.000000, 364.000000)">
                <rect id="Rectangle-2" fill="#34495E" x="250" y="157" width="72" height="4"></rect>
                <rect id="Rectangle-2-Copy" fill="#34495E" x="136" y="157" width="72" height="4"></rect>
                <path d="M314.99975,170.10175 C314.48775,170.10175 313.97675,169.90675 313.58575,169.51575 C312.80475,168.73475 312.80475,167.46875 313.58575,166.68775 L321.22275,159.05075 L313.58575,151.41475 C312.80475,150.63375 312.80475,149.36675 313.58575,148.58575 C314.36675,147.80475 315.63275,147.80475 316.41375,148.58575 L326.87875,159.05075 L316.41375,169.51575 C316.02275,169.90675 315.51175,170.10175 314.99975,170.10175" id="Fill-1" fill="#34495E"></path>
                <polygon id="Shape" fill="#EF3F3F" points="257 178.963 248.963 187 228.5 166.537 208.037 187 200 178.963 220.463 158.5 200 138.037 208.037 130 228.5 150.463 248.963 130 257 138.037 236.537 158.5"></polygon>
                <g id="Group" transform="translate(0.000000, 120.000000)" fill="#303E51">
                    <path d="M5.65326958,3.32888575 C4.38569398,3.32888575 3.35500129,4.35129947 3.35500129,5.6078601 L3.35500129,73.3921399 C3.35500129,74.6487005 4.38569398,75.6719475 5.65326958,75.6719475 L98.3467304,75.6719475 C99.613466,75.6719475 100.644999,74.6487005 100.644999,73.3921399 L100.644999,5.6078601 C100.644999,4.35129947 99.613466,3.32888575 98.3467304,3.32888575 L5.65326958,3.32888575 Z M98.3467304,79 L5.65326958,79 C2.53599121,79 0,76.4835457 0,73.3921399 L0,5.6078601 C0,2.51562104 2.53599121,0 5.65326958,0 L98.3467304,0 C101.464009,0 104,2.51562104 104,5.6078601 L104,73.3921399 C104,76.4835457 101.464009,79 98.3467304,79 L98.3467304,79 Z" id="Fill-9"></path>
                    <path d="M7,72 L97,72 L97,7 L7,7 L7,72 Z M10.3449001,68.6610076 L93.6550999,68.6610076 L93.6550999,10.3398284 L10.3449001,10.3398284 L10.3449001,68.6610076 Z" id="Fill-11"></path>
                    <g id="Group-3" transform="translate(33.000000, 17.000000)">
                        <path d="M23.712,36.894 C25.194,35.334 26.52,32.916 27.456,29.952 C29.172,30.498 30.81,31.122 32.37,31.98 C29.952,34.398 26.988,36.114 23.712,36.894 L23.712,36.894 Z M6.708,32.058 C8.268,31.2 9.906,30.576 11.544,30.03 C12.48,32.916 13.728,35.334 15.21,36.894 C11.934,36.114 9.048,34.398 6.708,32.058 L6.708,32.058 Z M15.288,2.028 C13.806,3.588 12.48,6.006 11.622,8.892 C9.906,8.346 8.268,7.722 6.786,6.864 C9.048,4.524 11.934,2.808 15.288,2.028 L15.288,2.028 Z M32.292,6.864 C30.732,7.722 29.094,8.346 27.378,8.892 C26.442,5.928 25.194,3.588 23.634,2.028 C26.988,2.808 29.952,4.524 32.292,6.864 L32.292,6.864 Z M28.86,18.72 C28.782,15.756 28.392,12.948 27.768,10.452 C29.718,9.828 31.59,9.048 33.306,8.112 C35.724,10.998 37.206,14.664 37.362,18.72 L28.86,18.72 Z M28.86,20.28 L37.44,20.28 C37.284,24.258 35.802,27.924 33.384,30.888 C31.668,29.952 29.796,29.172 27.846,28.548 C28.47,25.974 28.782,23.244 28.86,20.28 L28.86,20.28 Z M20.28,27.3 L20.28,20.28 L27.3,20.28 C27.222,23.166 26.91,25.818 26.286,28.158 C24.336,27.612 22.386,27.378 20.28,27.3 L20.28,27.3 Z M20.28,37.284 L20.28,28.86 C22.23,28.938 24.102,29.172 25.896,29.64 C24.492,33.852 22.386,36.66 20.28,37.284 L20.28,37.284 Z M18.72,28.86 L18.72,37.284 C16.614,36.738 14.43,33.93 13.104,29.562 C14.898,29.172 16.77,28.938 18.72,28.86 L18.72,28.86 Z M11.622,20.28 L18.72,20.28 L18.72,27.3 C16.614,27.378 14.586,27.612 12.636,28.08 C12.09,25.818 11.7,23.166 11.622,20.28 L11.622,20.28 Z M10.062,20.28 C10.14,23.244 10.53,26.052 11.154,28.548 C9.204,29.172 7.41,29.952 5.616,30.888 C3.198,28.002 1.716,24.336 1.56,20.28 L10.062,20.28 Z M10.062,18.72 L1.56,18.72 C1.716,14.742 3.198,10.998 5.616,8.112 C7.332,9.048 9.204,9.828 11.154,10.452 C10.53,12.87 10.14,15.678 10.062,18.72 L10.062,18.72 Z M18.72,11.622 L18.72,18.642 L11.622,18.642 C11.7,15.756 12.012,13.104 12.636,10.764 C14.586,11.31 16.614,11.544 18.72,11.622 L18.72,11.622 Z M18.72,1.638 L18.72,10.062 C16.77,9.984 14.898,9.75 13.104,9.282 C14.43,4.992 16.614,2.184 18.72,1.638 L18.72,1.638 Z M20.28,10.062 L20.28,1.638 C22.386,2.184 24.492,4.992 25.896,9.36 C24.102,9.75 22.23,9.984 20.28,10.062 L20.28,10.062 Z M20.28,11.622 C22.386,11.544 24.336,11.31 26.286,10.842 C26.832,13.104 27.222,15.756 27.3,18.72 L20.28,18.72 L20.28,11.622 Z M19.5,7.10542736e-15 L19.5,7.10542736e-15 C8.736,7.10542736e-15 7.10542736e-15,8.736 7.10542736e-15,19.5 C7.10542736e-15,30.264 8.736,39 19.422,39 C30.186,39 38.922,30.264 38.922,19.5 C39,8.658 30.264,7.10542736e-15 19.5,7.10542736e-15 L19.5,7.10542736e-15 Z" id="Fill-1"></path>
                    </g>
                    <polygon id="Fill-13" points="8 65 95 65 95 62 8 62"></polygon>
                    <path d="M43.4049446,90.6574298 L60.5950554,90.6574298 L60.5950554,79.3425702 L43.4049446,79.3425702 L43.4049446,90.6574298 Z M62.2975277,94 L41.7024723,94 C40.7612958,94 40,93.2526502 40,92.3287149 L40,77.6712851 C40,76.7481867 40.7612958,76 41.7024723,76 L62.2975277,76 C63.2387042,76 64,76.7481867 64,77.6712851 L64,92.3287149 C64,93.2526502 63.2387042,94 62.2975277,94 L62.2975277,94 Z" id="Fill-14"></path>
                    <path d="M49.4826333,79.262345 L49.4826333,81.3795203 C49.4826333,82.6798842 50.6118297,83.737655 52,83.737655 C53.3881703,83.737655 54.5164947,82.6798842 54.5164947,81.3795203 L54.5164947,79.262345 L49.4826333,79.262345 Z M52,87 C48.6917599,87 46,84.478503 46,81.3795203 L46,77.6311725 C46,76.7294126 46.7786659,76 47.7413167,76 L56.2586833,76 C57.2204621,76 58,76.7294126 58,77.6311725 L58,81.3795203 C58,84.478503 55.3082401,87 52,87 L52,87 Z" id="Fill-15"></path>
                    <path d="M29.5781167,99.6893693 L73.4210378,99.6893693 C72.6600962,96.6066865 69.8226293,94.3106307 66.4474304,94.3106307 L36.5517241,94.3106307 C33.1773707,94.3106307 30.3390584,96.6066865 29.5781167,99.6893693 M75.311555,103 L27.688445,103 C26.7550232,103 26,102.259791 26,101.344685 C26,95.6401879 30.733057,91 36.5517241,91 L66.4474304,91 C72.2660975,91 77,95.6401879 77,101.344685 C77,102.259791 76.2441313,103 75.311555,103" id="Fill-16"></path>
                </g>
                <path d="M7.21763146,34.7464938 C6.19952154,34.7464938 5.24311525,35.3807894 4.88238632,36.3951873 C4.42554213,37.6815958 5.10072225,39.1010401 6.38700565,39.5583506 C7.0087884,39.7792851 7.6815953,39.7460261 8.27845928,39.4609494 C8.87413665,39.1770606 9.3250478,38.6781764 9.54694355,38.0545711 L9.54694355,38.0533833 C9.7676527,37.4297781 9.73324106,36.7574722 9.45082828,36.159999 C9.1672289,35.5625258 8.6676668,35.1123422 8.04351084,34.8902199 C7.77059093,34.7928187 7.49173798,34.7464938 7.21763146,34.7464938 M7.22000468,44.4497914 C6.40599138,44.4497914 5.58841826,44.3108165 4.79932374,44.0293033 C1.05082812,42.695382 -0.915381836,38.5570188 0.417179286,34.8058848 C1.74974041,31.0511873 5.88625695,29.0817825 9.63119274,30.4192673 C11.4467034,31.0654411 12.9038584,32.3803573 13.7309244,34.1228885 C14.559177,35.864232 14.6588521,37.825322 14.0133372,39.6438736 C13.3690089,41.4612375 12.0542469,42.9175042 10.3134925,43.7466023 C9.32979423,44.2146031 8.27845928,44.4497914 7.22000468,44.4497914" id="Fill-20" fill="#303E51"></path>
                <path d="M235.217631,48.7464938 C234.199522,48.7464938 233.243115,49.3807894 232.882386,50.3951873 C232.425542,51.6815958 233.100722,53.1010401 234.387006,53.5583506 C235.008788,53.7792851 235.681595,53.7460261 236.278459,53.4609494 C236.874137,53.1770606 237.325048,52.6781764 237.546944,52.0545711 L237.546944,52.0533833 C237.767653,51.4297781 237.733241,50.7574722 237.450828,50.159999 C237.167229,49.5625258 236.667667,49.1123422 236.043511,48.8902199 C235.770591,48.7928187 235.491738,48.7464938 235.217631,48.7464938 M235.220005,58.4497914 C234.405991,58.4497914 233.588418,58.3108165 232.799324,58.0293033 C229.050828,56.695382 227.084618,52.5570188 228.417179,48.8058848 C229.74974,45.0511873 233.886257,43.0817825 237.631193,44.4192673 C239.446703,45.0654411 240.903858,46.3803573 241.730924,48.1228885 C242.559177,49.864232 242.658852,51.825322 242.013337,53.6438736 C241.369009,55.4612375 240.054247,56.9175042 238.313493,57.7466023 C237.329794,58.2146031 236.278459,58.4497914 235.220005,58.4497914" id="Fill-20-Copy" fill="#303E51"></path>
                <path d="M452.214578,249.745339 C450.849979,249.745339 449.739314,250.857138 449.739314,252.221943 C449.739314,253.587935 450.849979,254.699734 452.214578,254.699734 C453.579178,254.699734 454.689843,253.587935 454.689843,252.221943 C454.689843,250.857138 453.579178,249.745339 452.214578,249.745339 M452.214578,259.445073 C448.235881,259.445073 445,256.204701 445,252.221943 C445,248.240372 448.235881,245 452.214578,245 C456.193276,245 459.429157,248.240372 459.429157,252.221943 C459.429157,256.204701 456.193276,259.445073 452.214578,259.445073" id="Fill-21" fill="#303E51"></path>
                <path d="M441.991707,19.0131978 L446.347746,20.3566216 L445.330822,15.9094254 L441.991707,19.0131978 Z M449.572947,26.2054449 C449.339185,26.2054449 449.104237,26.1709982 448.875221,26.1009168 L436.673328,22.3390924 C435.864061,22.0896503 435.248212,21.4256592 435.059541,20.6001246 C434.87087,19.7745901 435.137857,18.9086697 435.757267,18.3325772 L445.11486,9.63417488 C445.734269,9.05808242 446.614733,8.85496528 447.425186,9.1055952 C448.23564,9.3550373 448.849116,10.0190284 449.037787,10.844563 L451.883274,23.3036019 C452.071944,24.1315121 451.806144,24.9950569 451.185548,25.5711493 C450.74057,25.9845105 450.162691,26.2054449 449.572947,26.2054449 L449.572947,26.2054449 Z" id="Fill-22" fill="#303E51"></path>
                <path d="M94.077956,257.982955 L97.731523,260.707813 L98.2631235,256.177469 L94.077956,257.982955 Z M99.6075507,267.439186 C99.1056154,267.439186 98.6072399,267.27883 98.191927,266.968809 L87.9538706,259.332318 C87.2751306,258.826306 86.9167749,257.996021 87.01645,257.153857 C87.1149385,256.311693 87.6548453,255.585935 88.4320737,255.25097 L100.158137,250.193234 C100.931806,249.858269 101.832441,249.963985 102.511181,250.469996 C103.191108,250.977195 103.548277,251.807481 103.448602,252.649645 L101.961782,265.342684 C101.863293,266.184848 101.3222,266.910606 100.544971,267.245571 C100.243573,267.375043 99.9255617,267.439186 99.6075507,267.439186 L99.6075507,267.439186 Z" id="Fill-23" fill="#303E51"></path>
                <path d="M154.077956,7.98295459 L157.731523,10.7078126 L158.263124,6.17746893 L154.077956,7.98295459 Z M159.607551,17.4391858 C159.105615,17.4391858 158.60724,17.2788301 158.191927,16.9688092 L147.953871,9.33231756 C147.275131,8.82630645 146.916775,7.9960206 147.01645,7.15385657 C147.114939,6.31169253 147.654845,5.58593481 148.432074,5.2509697 L160.158137,0.193234207 C160.931806,-0.141730896 161.832441,-0.0360149591 162.511181,0.469996154 C163.191108,0.977195088 163.548277,1.80748093 163.448602,2.64964497 L161.961782,15.3426843 C161.863293,16.1848483 161.3222,16.9106061 160.544971,17.2455712 C160.243573,17.3750435 159.925562,17.4391858 159.607551,17.4391858 L159.607551,17.4391858 Z" id="Fill-23-Copy" fill="#303E51"></path>
                <path d="M77.8032114,59.5440817 C76.8373123,59.5440817 75.9295569,58.9477963 75.5771343,57.9856625 L70.8983377,45.188095 C70.4486132,43.9563262 71.0798888,42.5938972 72.309215,42.1437136 C73.536168,41.6970935 74.8995809,42.32545 75.3504921,43.5572188 L80.0292886,56.3547863 C80.4790131,57.5865551 79.8477375,58.9489841 78.6184113,59.3991677 C78.3490512,59.4965689 78.0749447,59.5440817 77.8032114,59.5440817" id="Fill-24" fill="#303E51"></path>
                <path d="M428.018211,101.698116 C427.052312,101.698116 426.144557,101.101831 425.792134,100.139697 L421.113338,87.3421293 C420.663613,86.1103604 421.294889,84.7479314 422.524215,84.2977478 C423.751168,83.8511277 425.114581,84.4794842 425.565492,85.7112531 L430.244289,98.5088205 C430.694013,99.7405894 430.062738,101.103018 428.833411,101.553202 C428.564051,101.650603 428.289945,101.698116 428.018211,101.698116" id="Fill-24-Copy" fill="#303E51"></path>
                <path d="M305.803211,264.544082 C304.837312,264.544082 303.929557,263.947796 303.577134,262.985662 L298.898338,250.188095 C298.448613,248.956326 299.079889,247.593897 300.309215,247.143714 C301.536168,246.697093 302.899581,247.32545 303.350492,248.557219 L308.029289,261.354786 C308.479013,262.586555 307.847738,263.948984 306.618411,264.399168 C306.349051,264.496569 306.074945,264.544082 305.803211,264.544082" id="Fill-24-Copy-2" fill="#303E51"></path>
                <path d="M69.3710816,55.1851127 C68.4051824,55.1851127 67.4974271,54.5888273 67.1450044,53.6266935 C66.6952798,52.3973003 67.3265555,51.0336834 68.5558817,50.5834999 L81.3415861,45.8987397 C82.5685391,45.4533074 83.931952,46.0804761 84.3816766,47.3122449 C84.8314011,48.5416381 84.2001255,49.9052549 82.9707993,50.3554385 L70.1862815,55.0401987 C69.9169214,55.1375999 69.6428149,55.1851127 69.3710816,55.1851127" id="Fill-25" fill="#303E51"></path>
                <path d="M419.371082,97.4296114 C418.405182,97.4296114 417.497427,96.833326 417.145004,95.8711922 C416.69528,94.641799 417.326555,93.2781822 418.555882,92.8279986 L431.341586,88.1432385 C432.568539,87.6978061 433.931952,88.3249748 434.381677,89.5567437 C434.831401,90.7861369 434.200125,92.1497537 432.970799,92.5999373 L420.186281,97.2846975 C419.916921,97.3820987 419.642815,97.4296114 419.371082,97.4296114" id="Fill-25-Copy" fill="#303E51"></path>
                <path d="M297.371082,260.429611 C296.405182,260.429611 295.497427,259.833326 295.145004,258.871192 C294.69528,257.641799 295.326555,256.278182 296.555882,255.827999 L309.341586,251.143238 C310.568539,250.697806 311.931952,251.324975 312.381677,252.556744 C312.831401,253.786137 312.200125,255.149754 310.970799,255.599937 L298.186281,260.284697 C297.916921,260.382099 297.642815,260.429611 297.371082,260.429611" id="Fill-25-Copy-2" fill="#303E51"></path>
                <g id="Group-7" transform="translate(351.000000, 127.000000)" stroke="#303E51" stroke-width="3">
                    <path d="M12.2260139,5.77966709 C15.0943177,5.77966709 17.4211025,8.10557848 17.4211025,10.9677684 C17.4211025,13.8369456 15.0943177,16.1637304 12.2260139,16.1637304 C9.36469747,16.1637304 7.03791266,13.8369456 7.03791266,10.9677684 C7.03791266,8.10557848 9.36469747,5.77966709 12.2260139,5.77966709 Z M3.77831772,22.414781 L66.5805456,22.414781 C68.2627481,22.414781 68.3675582,20.3727304 68.3675582,19.251262 L68.3675582,5.65476835 C68.3675582,2.72008481 66.9622291,0.436970886 64.0257987,0.436970886 L5.43257089,0.436970886 C2.49526709,0.436970886 0.436621519,2.72008481 0.436621519,5.65476835 L0.436621519,19.251262 C0.436621519,20.3727304 0.893418987,22.414781 3.77831772,22.414781 Z" id="Stroke-1"></path>
                    <path d="M12.2260139,32.1768354 C15.0943177,32.1768354 17.4211025,34.5027468 17.4211025,37.3640633 C17.4211025,40.2332405 15.0943177,42.5600253 12.2260139,42.5600253 C9.36469747,42.5600253 7.03791266,40.2332405 7.03791266,37.3640633 C7.03791266,34.5027468 9.36469747,32.1768354 12.2260139,32.1768354 Z M3.77831772,48.8110759 L66.5805456,48.8110759 C68.2627481,48.8110759 68.3675582,46.7698987 68.3675582,45.647557 L68.3675582,32.0519367 C68.3675582,29.1172532 66.9622291,26.8332658 64.0257987,26.8332658 L5.43257089,26.8332658 C2.49526709,26.8332658 0.436621519,29.1172532 0.436621519,32.0519367 L0.436621519,45.647557 C0.436621519,46.7698987 0.893418987,48.8110759 3.77831772,48.8110759 Z" id="Stroke-3"></path>
                    <path d="M12.2260139,58.2925013 C15.0943177,58.2925013 17.4211025,60.6184127 17.4211025,63.4797291 C17.4211025,66.3497797 15.0943177,68.6765646 12.2260139,68.6765646 C9.36469747,68.6765646 7.03791266,66.3497797 7.03791266,63.4797291 C7.03791266,60.6184127 9.36469747,58.2925013 12.2260139,58.2925013 Z M3.77831772,74.9276152 L66.5805456,74.9276152 C68.2627481,74.9276152 68.3675582,72.8855646 68.3675582,71.7640962 L68.3675582,58.1676025 C68.3675582,55.232919 66.9622291,52.9498051 64.0257987,52.9498051 L5.43257089,52.9498051 C2.49526709,52.9498051 0.436621519,55.232919 0.436621519,58.1676025 L0.436621519,71.7640962 C0.436621519,72.8855646 0.893418987,74.9276152 3.77831772,74.9276152 Z" id="Stroke-5"></path>
                </g>
            </g>
        </g>
    </g>
</svg>