<?xml version="1.0" encoding="UTF-8" standalone="no"?>
<svg
   xmlns:dc="http://purl.org/dc/elements/1.1/"
   xmlns:cc="http://creativecommons.org/ns#"
   xmlns:rdf="http://www.w3.org/1999/02/22-rdf-syntax-ns#"
   xmlns:svg="http://www.w3.org/2000/svg"
   xmlns="http://www.w3.org/2000/svg"
   xmlns:sodipodi="http://sodipodi.sourceforge.net/DTD/sodipodi-0.dtd"
   xmlns:inkscape="http://www.inkscape.org/namespaces/inkscape"
   width="128"
   height="128"
   viewBox="0 0 128 128"
   version="1.1"
   id="svg13"
   sodipodi:docname="eye.svg"
   inkscape:version="0.92.2 2405546, 2018-03-11">
  <metadata
     id="metadata17">
    <rdf:RDF>
      <cc:Work
         rdf:about="">
        <dc:format>image/svg+xml</dc:format>
        <dc:type
           rdf:resource="http://purl.org/dc/dcmitype/StillImage" />
        <dc:title>Shape</dc:title>
      </cc:Work>
    </rdf:RDF>
  </metadata>
  <sodipodi:namedview
     pagecolor="#ffffff"
     bordercolor="#666666"
     borderopacity="1"
     objecttolerance="10"
     gridtolerance="10"
     guidetolerance="10"
     inkscape:pageopacity="0"
     inkscape:pageshadow="2"
     inkscape:window-width="1920"
     inkscape:window-height="1015"
     id="namedview15"
     showgrid="false"
     inkscape:zoom="2.1394513"
     inkscape:cx="-40.40522"
     inkscape:cy="29.003455"
     inkscape:window-x="0"
     inkscape:window-y="0"
     inkscape:window-maximized="1"
     inkscape:current-layer="svg13" />
  <!-- Generator: Sketch 51 (57462) - http://www.bohemiancoding.com/sketch -->
  <title
     id="title2">Shape</title>
  <desc
     id="desc4">Created with Sketch.</desc>
  <defs
     id="defs6" />
  <g
     id="Page-1"
     style="fill:none;fill-rule:evenodd;stroke:none;stroke-width:1"
     transform="matrix(1.7426095,0,0,1.7426095,24.799999,30.130059)">
    <g
       id="Action"
       transform="translate(-337,-1107)"
       style="fill:#000000">
      <g
         id="ic_visibility_off"
         transform="translate(336,1104)">
        <g
           id="Icon-24px">
          <path
             d="m 23.50523,11.18372 c 5.646766,0 10.229649,4.582883 10.229649,10.22965 0,1.329854 -0.26597,2.577871 -0.736534,3.744052 l 5.974115,5.974115 C 42.061814,28.553665 44.496471,25.218799 45.99,21.41337 42.450541,12.431737 33.71442,6.0688949 23.48477,6.0688949 c -2.864302,0 -5.605848,0.5114825 -8.142801,1.432151 l 4.419209,4.4192091 c 1.16618,-0.470564 2.414197,-0.736535 3.744052,-0.736535 z M 3.04593,5.5983311 7.7106503,10.263051 8.6517781,11.204179 C 5.2555343,13.843429 2.5958254,17.362428 1,21.41337 c 3.5394588,8.981632 12.27558,15.344474 22.50523,15.344474 3.171191,0 6.199167,-0.613778 8.961173,-1.718581 l 0.85929,0.859291 5.994575,5.974115 2.598331,-2.598331 L 5.644261,3 Z m 11.313993,11.3139929 3.171191,3.171191 c -0.102296,0.429646 -0.163674,0.87975 -0.163674,1.329855 0,3.396243 2.741546,6.13779 6.13779,6.13779 0.450104,0 0.900209,-0.06138 1.329854,-0.163675 l 3.171192,3.171192 c -1.370774,0.675157 -2.884762,1.084343 -4.501046,1.084343 -5.646767,0 -10.22965,-4.582884 -10.22965,-10.22965 0,-1.616285 0.409186,-3.130273 1.084343,-4.501046 z m 8.817958,-1.595826 6.444679,6.44468 0.04092,-0.327349 c 0,-3.396244 -2.741546,-6.13779 -6.13779,-6.13779 l -0.347808,0.02046 z"
             id="Shape"
             inkscape:connector-curvature="0" />
        </g>
      </g>
    </g>
  </g>
</svg>
