<svg xmlns="http://www.w3.org/2000/svg" viewBox="0 0 35.9 36.06"><defs><style>.cls-1{fill:#f63c3c;}.cls-2{fill:#fff;}</style></defs><title>Zasób 4</title><g id="Warstwa_2" data-name="Warstwa 2"><g id="Warstwa_1-2" data-name="Warstwa 1"><path class="cls-1" d="M34.82,28.91c-1.69,1.63-5.18,2.75-9.23,2.75S18,30.54,16.35,28.91a3.1,3.1,0,0,0-1.08,2.2c0,2.73,4.62,5,10.32,5s10.32-2.22,10.32-5A3.1,3.1,0,0,0,34.82,28.91Z"/><path class="cls-1" d="M34.82,22.31c-1.69,1.63-5.18,2.75-9.23,2.75S18,23.93,16.35,22.31a3.09,3.09,0,0,0-1.08,2.2c0,2.73,4.62,5,10.32,5s10.32-2.22,10.32-5A3.09,3.09,0,0,0,34.82,22.31Z"/><ellipse class="cls-1" cx="25.58" cy="17.91" rx="10.32" ry="4.95"/><path class="cls-2" d="M13,24H1.21C0,24,0,24,0,24.56v6.8A2.51,2.51,0,0,0,2.52,34H13Zm-7.1,6.56A2.6,2.6,0,1,1,8.52,28,2.6,2.6,0,0,1,5.92,30.56Z"/><path class="cls-2" d="M1.69,11H33.13C34,11,34,10,34,9.42V2.61C34,1.14,33.32,0,31.85,0H2.52A2.49,2.49,0,0,0,0,2.61v6.8A1.49,1.49,0,0,0,1.69,11ZM5.92,3.42A2.6,2.6,0,1,1,3.33,6,2.6,2.6,0,0,1,5.92,3.42Z"/><path class="cls-2" d="M1.12,22H13V17.27C13,15.08,16.09,13,19.7,12H1c-1.23,0-1,1-1,1.58v6.8C0,21-.17,22,1.12,22Zm4.8-7.61A2.6,2.6,0,1,1,3.33,17,2.6,2.6,0,0,1,5.92,14.39Z"/></g></g></svg>