<svg xmlns="http://www.w3.org/2000/svg" viewBox="0 0 49.67 44.99"><defs><style>.cls-1{fill:#fff;}.cls-2{fill:#f63b3b;}</style></defs><title>Zasób 5</title><g id="Warstwa_2" data-name="Warstwa 2"><g id="Warstwa_1-2" data-name="Warstwa 1"><path class="cls-1" d="M1.77,11.91H36.16a1.94,1.94,0,0,0,1.78-1.57V2.89A3.13,3.13,0,0,0,34.76,0H2.68A2.66,2.66,0,0,0,.05,2.89v7.44C.05,11,.19,11.91,1.77,11.91ZM6.4,3.77A2.84,2.84,0,1,1,3.56,6.61,2.84,2.84,0,0,1,6.4,3.77Z"/><path class="cls-1" d="M.05,22.34c0,.62-.32,1.48,1.1,1.48H22.64c-1.7,0-3-2-3-3.84a4.09,4.09,0,0,1,4.12-4.08A4.14,4.14,0,0,1,27.93,20a4,4,0,0,1-.18,1.19l2.15,2a6.19,6.19,0,0,1,4.58-.63l2.79-4.69a4.09,4.09,0,0,1-.65-2.22,4.55,4.55,0,0,1,.61-2.25A1.94,1.94,0,0,0,35.93,13H1c-1.35,0-1,1.29-1,1.91ZM6.4,15.78a2.84,2.84,0,1,1-2.84,2.84A2.85,2.85,0,0,1,6.4,15.78Z"/><path class="cls-1" d="M14.84,33.21a4,4,0,0,1,4.12-4,4.16,4.16,0,0,1,2.9,1.25l4.84-1.6c0-.05,0-.09,0-.14a7,7,0,0,1,.66-3l-.74-.87H1.24C0,24.9.05,26.29.05,26.9v7.45a2.33,2.33,0,0,0,2.63,2.46H17.45C15.93,36.81,14.84,34.95,14.84,33.21Zm-8.45.26a2.84,2.84,0,1,1,2.85-2.84A2.84,2.84,0,0,1,6.4,33.47Z"/><path class="cls-2" d="M28.64,23.45l-2-1.93a3,3,0,1,0-1,1.11l2,1.93a6.81,6.81,0,0,1,1-1.11Zm0,0"/><path class="cls-2" d="M37.28,23.21,40,18.64a3,3,0,1,0-1.32-.77L36,22.43a6.88,6.88,0,0,1,1.31.78Zm0,0"/><path class="cls-2" d="M46.64,27a3,3,0,0,0-2.83,2L40,28.65s0,.06,0,.08a6.94,6.94,0,0,1-.15,1.44l3.77.37a3,3,0,1,0,3-3.5Zm0,0"/><path class="cls-2" d="M36.24,38.95l-.84-3.68a7,7,0,0,1-1.49.34l.84,3.69a3,3,0,1,0,1.49-.35Zm0,0"/><path class="cls-2" d="M26.35,30.19l-4.69,1.57a3,3,0,1,0,.5,1.65,1.84,1.84,0,0,0,0-.2l4.71-1.58a7.07,7.07,0,0,1-.49-1.45Zm0,0"/><path class="cls-2" d="M38.31,28.73a5.19,5.19,0,1,1-5.19-5.19,5.19,5.19,0,0,1,5.19,5.19Zm0,0"/></g></g></svg>