<?xml version="1.0" encoding="UTF-8" standalone="no"?>
<svg
   width="460px"
   height="298px"
   viewBox="0 0 460 298"
   version="1.1"
   id="svg34"
   sodipodi:docname="resource-not-found.svg"
   inkscape:version="1.1.1 (3bf5ae0d25, 2021-09-20)"
   xmlns:inkscape="http://www.inkscape.org/namespaces/inkscape"
   xmlns:sodipodi="http://sodipodi.sourceforge.net/DTD/sodipodi-0.dtd"
   xmlns:xlink="http://www.w3.org/1999/xlink"
   xmlns="http://www.w3.org/2000/svg"
   xmlns:svg="http://www.w3.org/2000/svg">
  <sodipodi:namedview
     id="namedview36"
     pagecolor="#ffffff"
     bordercolor="#666666"
     borderopacity="1.0"
     inkscape:pageshadow="2"
     inkscape:pageopacity="0.0"
     inkscape:pagecheckerboard="0"
     showgrid="false"
     inkscape:zoom="2.9295302"
     inkscape:cx="229.90034"
     inkscape:cy="149"
     inkscape:window-width="2560"
     inkscape:window-height="1376"
     inkscape:window-x="0"
     inkscape:window-y="27"
     inkscape:window-maximized="1"
     inkscape:current-layer="svg34" />
  <!-- Generator: Sketch 49.3 (51167) - http://www.bohemiancoding.com/sketch -->
  <title
     id="title2">Page 1</title>
  <desc
     id="desc4">Created with Sketch.</desc>
  <defs
     id="defs7">
    <polygon
       id="path-1"
       points="0 384 563 384 563 0 0 0" />
    <mask
       id="mask-2"
       fill="#ffffff">
      <use
         xlink:href="#path-1"
         id="use9"
         x="0"
         y="0"
         width="100%"
         height="100%" />
    </mask>
  </defs>
  <g
     id="Clip-12"
     transform="translate(-29,-30)"
     style="fill:none;fill-rule:evenodd;stroke:none;stroke-width:1" />
  <g
     id="g926"
     transform="translate(3.698135)">
    <path
       d="M 142.78415,318.05689 H 367.81959 V 141.76482 H 142.78415 Z m 0,-186.08621 H 367.81959 V 92.794136 H 142.78415 Z M 133,327.85341 H 377.60373 V 83 H 133 Z"
       id="Fill-11"
       fill="#303e51"
       mask="url(#mask-2)"
       transform="translate(-29,-30)"
       style="fill-rule:evenodd;stroke:none;stroke-width:1" />
    <polygon
       id="Fill-13"
       fill="#303e51"
       mask="url(#mask-2)"
       points="191,107 191,114.359 304.97506,114.359 304.97506,107 "
       transform="translate(-29,-30)"
       style="fill-rule:evenodd;stroke:none;stroke-width:1" />
    <polygon
       id="Fill-14"
       fill="#303e51"
       mask="url(#mask-2)"
       points="162,107 162,114.359 169.35329,114.359 169.35329,107 "
       transform="translate(-29,-30)"
       style="fill-rule:evenodd;stroke:none;stroke-width:1" />
    <polygon
       id="Fill-15"
       fill="#303e51"
       mask="url(#mask-2)"
       points="176,107 176,114.359 183.35329,114.359 183.35329,107 "
       transform="translate(-29,-30)"
       style="fill-rule:evenodd;stroke:none;stroke-width:1" />
    <path
       d="M 255.5548,173 C 236.446,173 221,188.4215 221,207.5 c 0,19.0785 15.446,34.5 34.5548,34.5 19.10881,0 34.55481,-15.4215 34.55481,-34.5 0,-19.0785 -15.446,-34.5 -34.55481,-34.5 z m 19.19712,48.26167 -5.41359,5.405 -13.78353,-13.76167 -13.78352,13.76167 -5.41359,-5.405 13.78353,-13.76167 -13.78353,-13.76167 5.41359,-5.405 13.78352,13.76167 13.78353,-13.76167 5.41359,5.405 L 260.96839,207.5 Z"
       id="Shape"
       fill="#ea5744"
       mask="url(#mask-2)"
       transform="translate(-29,-30)"
       style="fill-rule:evenodd;stroke:none;stroke-width:1" />
    <rect
       id="Rectangle-2"
       fill="#34495e"
       mask="url(#mask-2)"
       x="212"
       y="264"
       width="87"
       height="9"
       transform="translate(-29,-30)"
       style="fill-rule:evenodd;stroke:none;stroke-width:1" />
    <rect
       id="Rectangle-2-Copy"
       fill="#34495e"
       mask="url(#mask-2)"
       x="200"
       y="280"
       width="110"
       height="9"
       transform="translate(-29,-30)"
       style="fill-rule:evenodd;stroke:none;stroke-width:1" />
  </g>
  <path
     d="m 43.217632,55.746494 c -1.01811,0 -1.974517,0.634295 -2.335246,1.648693 -0.456844,1.286409 0.218336,2.705853 1.50462,3.163164 0.621782,0.220934 1.294589,0.187675 1.891453,-0.0974 0.595678,-0.283888 1.046589,-0.782773 1.268485,-1.406378 v -0.0012 c 0.220709,-0.623605 0.186297,-1.295911 -0.09612,-1.893384 -0.283599,-0.597473 -0.783161,-1.047657 -1.407317,-1.269779 -0.27292,-0.0974 -0.551773,-0.143726 -0.825879,-0.143726 m 0.0024,9.703297 c -0.814014,0 -1.631587,-0.138974 -2.420681,-0.420488 -3.748496,-1.333921 -5.714706,-5.472284 -4.382145,-9.223418 1.332561,-3.754698 5.469078,-5.724102 9.214014,-4.386618 1.81551,0.646174 3.272665,1.96109 4.099731,3.703622 0.828253,1.741343 0.927928,3.702433 0.282413,5.520985 -0.644328,1.817364 -1.95909,3.27363 -3.699844,4.102728 -0.983699,0.468001 -2.035034,0.703189 -3.093488,0.703189"
     id="Fill-20"
     fill="#303e51"
     mask="url(#mask-2)"
     transform="translate(-29,-30)"
     style="fill-rule:evenodd;stroke:none;stroke-width:1" />
  <path
     d="m 481.21458,313.74534 c -1.3646,0 -2.47527,1.1118 -2.47527,2.4766 0,1.366 1.11067,2.47779 2.47527,2.47779 1.3646,0 2.47526,-1.11179 2.47526,-2.47779 0,-1.3648 -1.11066,-2.4766 -2.47526,-2.4766 m 0,9.69973 c -3.9787,0 -7.21458,-3.24037 -7.21458,-7.22313 0,-3.98157 3.23588,-7.22194 7.21458,-7.22194 3.9787,0 7.21458,3.24037 7.21458,7.22194 0,3.98276 -3.23588,7.22313 -7.21458,7.22313"
     id="Fill-21"
     fill="#303e51"
     mask="url(#mask-2)"
     transform="translate(-29,-30)"
     style="fill-rule:evenodd;stroke:none;stroke-width:1" />
  <path
     d="m 477.99171,40.013198 4.35604,1.343424 -1.01693,-4.447197 z m 7.58124,7.192247 c -0.23377,0 -0.46871,-0.03445 -0.69773,-0.104528 l -12.20189,-3.761825 c -0.80927,-0.249442 -1.42512,-0.913433 -1.61379,-1.738967 -0.18867,-0.825535 0.0783,-1.691455 0.69773,-2.267548 l 9.35759,-8.698402 c 0.61941,-0.576093 1.49987,-0.77921 2.31033,-0.52858 0.81045,0.249442 1.42393,0.913433 1.6126,1.738968 l 2.84548,12.459039 c 0.18867,0.82791 -0.0771,1.691455 -0.69772,2.267547 -0.44498,0.413361 -1.02286,0.634296 -1.6126,0.634296 z"
     id="Fill-22"
     fill="#303e51"
     mask="url(#mask-2)"
     transform="translate(-29,-30)"
     style="fill-rule:evenodd;stroke:none;stroke-width:1" />
  <path
     d="m 40.077956,304.98295 3.653567,2.72486 0.5316,-4.53034 z m 5.529595,9.45624 c -0.501936,0 -1.000311,-0.16036 -1.415624,-0.47038 l -10.238056,-7.63649 c -0.67874,-0.50601 -1.037096,-1.3363 -0.937421,-2.17846 0.09849,-0.84217 0.638395,-1.56793 1.415624,-1.90289 l 11.726063,-5.05774 c 0.773669,-0.33496 1.674304,-0.22925 2.353044,0.27677 0.679927,0.50719 1.037096,1.33748 0.937421,2.17965 l -1.48682,12.69303 c -0.09849,0.84217 -0.639582,1.56793 -1.416811,1.90289 -0.301398,0.12947 -0.619409,0.19362 -0.93742,0.19362 z"
     id="Fill-23"
     fill="#303e51"
     mask="url(#mask-2)"
     transform="translate(-29,-30)"
     style="fill-rule:evenodd;stroke:none;stroke-width:1" />
  <path
     d="m 435.07796,195.98295 3.65356,2.72486 0.5316,-4.53034 z m 5.52959,9.45624 c -0.50194,0 -1.00031,-0.16036 -1.41562,-0.47038 l -10.23806,-7.63649 c -0.67874,-0.50601 -1.0371,-1.3363 -0.93742,-2.17846 0.0985,-0.84217 0.6384,-1.56793 1.41562,-1.90289 l 11.72607,-5.05774 c 0.77367,-0.33496 1.6743,-0.22925 2.35304,0.27677 0.67993,0.50719 1.0371,1.33748 0.93742,2.17964 l -1.48682,12.69304 c -0.0985,0.84217 -0.63958,1.56793 -1.41681,1.90289 -0.3014,0.12947 -0.61941,0.19362 -0.93742,0.19362 z"
     id="Fill-23-Copy"
     fill="#303e51"
     mask="url(#mask-2)"
     transform="translate(-29,-30)"
     style="fill-rule:evenodd;stroke:none;stroke-width:1" />
  <path
     d="m 95.253211,126.45362 c -0.965899,0 -1.873654,-0.59629 -2.226077,-1.55842 l -4.678796,-12.79757 c -0.449725,-1.23177 0.181551,-2.5942 1.410877,-3.04438 1.226953,-0.44662 2.590366,0.18173 3.041277,1.4135 l 4.678797,12.79757 c 0.449724,1.23177 -0.181552,2.5942 -1.410878,3.04438 -0.26936,0.0974 -0.543466,0.14492 -0.8152,0.14492"
     id="Fill-24"
     fill="#303e51"
     mask="url(#mask-2)"
     transform="translate(-29,-30)"
     style="fill-rule:evenodd;stroke:none;stroke-width:1" />
  <path
     d="m 464.01821,122.69812 c -0.9659,0 -1.87365,-0.59629 -2.22608,-1.55842 l -4.67879,-12.79757 c -0.44973,-1.23177 0.18155,-2.5942 1.41088,-3.04438 1.22695,-0.44662 2.59036,0.18173 3.04127,1.4135 l 4.6788,12.79757 c 0.44972,1.23177 -0.18155,2.5942 -1.41088,3.04438 -0.26936,0.0974 -0.54347,0.14492 -0.8152,0.14492"
     id="Fill-24-Copy"
     fill="#303e51"
     mask="url(#mask-2)"
     transform="translate(-29,-30)"
     style="fill-rule:evenodd;stroke:none;stroke-width:1" />
  <path
     d="m 86.821082,122.09465 c -0.9659,0 -1.873655,-0.59629 -2.226078,-1.55842 -0.449724,-1.22939 0.181551,-2.59301 1.410878,-3.04319 l 12.785704,-4.68477 c 1.226954,-0.44543 2.590364,0.18174 3.040094,1.41351 0.44972,1.22939 -0.18155,2.59301 -1.41088,3.04319 l -12.784519,4.68476 c -0.26936,0.0974 -0.543466,0.14492 -0.815199,0.14492"
     id="Fill-25"
     fill="#303e51"
     mask="url(#mask-2)"
     transform="translate(-29,-30)"
     style="fill-rule:evenodd;stroke:none;stroke-width:1" />
  <path
     d="m 455.58608,118.33915 c -0.9659,0 -1.87365,-0.59629 -2.22608,-1.55842 -0.44972,-1.2294 0.18156,-2.59301 1.41088,-3.0432 l 12.78571,-4.68476 c 1.22695,-0.44543 2.59036,0.18174 3.04009,1.41351 0.44972,1.22939 -0.18156,2.59301 -1.41088,3.04319 l -12.78452,4.68476 c -0.26936,0.0974 -0.54346,0.14492 -0.8152,0.14492"
     id="Fill-25-Copy"
     fill="#303e51"
     mask="url(#mask-2)"
     transform="translate(-29,-30)"
     style="fill-rule:evenodd;stroke:none;stroke-width:1" />
  <path
     d="m 41.062186,164.2355 c -0.681113,0 -1.35748,-0.29221 -1.825004,-0.85761 l -8.690719,-10.49082 c -0.836559,-1.00846 -0.696539,-2.50392 0.309705,-3.34015 1.00743,-0.83741 2.503743,-0.69725 3.337929,0.31121 l 8.690719,10.49082 c 0.836559,1.00846 0.696539,2.50392 -0.310891,3.34015 -0.442605,0.36822 -0.978952,0.5464 -1.511739,0.5464"
     id="Fill-26"
     fill="#303e51"
     mask="url(#mask-2)"
     transform="translate(-29,-30)"
     style="fill-rule:evenodd;stroke:none;stroke-width:1" />
  <path
     d="m 31.371366,163.44524 c -0.681113,0 -1.35748,-0.2922 -1.825004,-0.8576 -0.836558,-1.00846 -0.696539,-2.50392 0.310892,-3.34015 l 10.478938,-8.70078 c 1.006244,-0.83622 2.50137,-0.69844 3.336742,0.3124 0.836559,1.00846 0.696539,2.50392 -0.310891,3.34015 l -10.478938,8.69959 c -0.442605,0.36822 -0.978952,0.54639 -1.511739,0.54639"
     id="Fill-27"
     fill="#303e51"
     mask="url(#mask-2)"
     transform="translate(-29,-30)"
     style="fill-rule:evenodd;stroke:none;stroke-width:1" />
</svg>
