<?xml version="1.0" encoding="UTF-8" standalone="no"?>
<!-- Generator: Adobe Illustrator 22.1.0, SVG Export Plug-In . SVG Version: 6.00 Build 0)  -->

<svg
   xmlns:dc="http://purl.org/dc/elements/1.1/"
   xmlns:cc="http://creativecommons.org/ns#"
   xmlns:rdf="http://www.w3.org/1999/02/22-rdf-syntax-ns#"
   xmlns:svg="http://www.w3.org/2000/svg"
   xmlns="http://www.w3.org/2000/svg"
   xmlns:sodipodi="http://sodipodi.sourceforge.net/DTD/sodipodi-0.dtd"
   xmlns:inkscape="http://www.inkscape.org/namespaces/inkscape"
   version="1.1"
   id="Warstwa_1"
   x="0px"
   y="0px"
   viewBox="0 0 46 46"
   xml:space="preserve"
   inkscape:version="0.91 r13725"
   sodipodi:docname="sign-warning-large.svg"
   width="46"
   height="46"><metadata
     id="metadata15"><rdf:RDF><cc:Work
         rdf:about=""><dc:format>image/svg+xml</dc:format><dc:type
           rdf:resource="http://purl.org/dc/dcmitype/StillImage" /><dc:title /></cc:Work></rdf:RDF></metadata><defs
     id="defs13" /><sodipodi:namedview
     pagecolor="#ffffff"
     bordercolor="#666666"
     borderopacity="1"
     objecttolerance="10"
     gridtolerance="10"
     guidetolerance="10"
     inkscape:pageopacity="0"
     inkscape:pageshadow="2"
     inkscape:window-width="1527"
     inkscape:window-height="845"
     id="namedview11"
     showgrid="false"
     fit-margin-top="0"
     fit-margin-left="0"
     fit-margin-right="0"
     fit-margin-bottom="0"
     inkscape:zoom="5.3033708"
     inkscape:cx="-29.773869"
     inkscape:cy="22.35"
     inkscape:window-x="383"
     inkscape:window-y="22"
     inkscape:window-maximized="0"
     inkscape:current-layer="g5" /><style
     type="text/css"
     id="style3">
	.st0{fill:#F5AA1C;}
</style><g
     id="g5"
     transform="translate(-2.5920048,0.6375)"><path
       class="st0"
       d="m 5.6,44.6 c -2.4,0 -3.4,-1.7 -2.3,-3.9 l 20.3,-39 c 1.1,-2.1 2.9,-2.1 4,0 l 20.3,39 c 1.1,2.1 0,3.9 -2.3,3.9 l -40,0 z"
       id="path7"
       inkscape:connector-curvature="0"
       style="fill:#f5aa1c" /><path
       d="m 22.6,13 c 0,-1.7 1.2,-2.7 2.9,-2.7 1.6,0 2.9,1.1 2.9,2.7 l 0,15.5 c 0,1.6 -1.3,2.7 -2.9,2.7 -1.6,0 -2.9,-1 -2.9,-2.7 l 0,-15.5 z m -0.2,23.8 c 0,-1.7 1.4,-3.1 3.1,-3.1 1.7,0 3.1,1.4 3.1,3.1 0,1.7 -1.4,3.1 -3.1,3.1 -1.7,0 -3.1,-1.4 -3.1,-3.1"
       id="path9"
       inkscape:connector-curvature="0"
       style="fill:#4c4946;fill-opacity:1" /></g></svg>