<?xml version="1.0" encoding="UTF-8" standalone="no"?>
<svg
   width="354px"
   height="237px"
   viewBox="0 0 354 237"
   version="1.1"
   id="svg67"
   sodipodi:docname="space-get-support.svg"
   inkscape:version="1.1.1 (3bf5ae0d25, 2021-09-20)"
   xmlns:inkscape="http://www.inkscape.org/namespaces/inkscape"
   xmlns:sodipodi="http://sodipodi.sourceforge.net/DTD/sodipodi-0.dtd"
   xmlns:xlink="http://www.w3.org/1999/xlink"
   xmlns="http://www.w3.org/2000/svg"
   xmlns:svg="http://www.w3.org/2000/svg">
  <sodipodi:namedview
     id="namedview69"
     pagecolor="#ffffff"
     bordercolor="#666666"
     borderopacity="1.0"
     inkscape:pageshadow="2"
     inkscape:pageopacity="0.0"
     inkscape:pagecheckerboard="0"
     showgrid="false"
     inkscape:zoom="3.6835443"
     inkscape:cx="176.8677"
     inkscape:cy="118.5"
     inkscape:window-width="2560"
     inkscape:window-height="1376"
     inkscape:window-x="0"
     inkscape:window-y="27"
     inkscape:window-maximized="1"
     inkscape:current-layer="svg67" />
  <!-- Generator: Sketch 48.2 (47327) - http://www.bohemiancoding.com/sketch -->
  <title
     id="title2">Group</title>
  <desc
     id="desc4">Created with Sketch.</desc>
  <defs
     id="defs11">
    <polygon
       id="path-1"
       points="42.7411279 0.298021105 42.7411279 24.5472012 0.798813172 24.5472012 0.798813172 0.298021105 42.7411279 0.298021105" />
    <polygon
       id="path-3"
       points="0.500260007 0.607939311 40.3713923 0.607939311 40.3713923 16.9998038 0.500260007 16.9998038" />
    <polygon
       id="path-5"
       points="0.500260007 0.194163495 40.3713923 0.194163495 40.3713923 16.8051538 0.500260007 16.8051538" />
    <polygon
       id="path-7"
       points="0.0313116815 0.0863709677 53.5820503 0.0863709677 53.5820503 19.3839484 0.0313116815 19.3839484" />
    <polygon
       id="path-9"
       points="0 0.0111815476 27.8994216 0.0111815476 27.8994216 18.345631 0 18.345631" />
  </defs>
  <path
     d="m 312.24583,11.188498 h 0.0123 z m -4.74737,-4.2590561 c -0.37485,0 -0.75094,0.083849 -1.10114,0.250315 -0.62024,0.294706 -1.08881,0.8138324 -1.31816,1.4611989 -0.23059,0.6473667 -0.19483,1.3452895 0.0999,1.9655282 0.29471,0.620239 0.81384,1.088809 1.46121,1.319395 1.33666,0.473502 2.80773,-0.226887 3.28493,-1.562311 0.47474,-1.3366583 -0.22565,-2.810188 -1.56231,-3.2849235 -0.28238,-0.09988 -0.57339,-0.1492026 -0.8644,-0.1492026 z M 307.49353,17 c -0.82986,0 -1.67576,-0.139338 -2.50316,-0.434044 -1.88661,-0.670795 -3.40084,-2.035814 -4.2603,-3.843508 -0.85946,-1.81016 -0.96427,-3.8447409 -0.29224,-5.7325852 0.66957,-1.8866113 2.03459,-3.3983664 3.84352,-4.2590557 1.80893,-0.8594563 3.84352,-0.9655011 5.73014,-0.2934729 3.89654,1.384748 5.93975,5.6807961 4.555,9.5748608 v 0.0012 C 313.47521,15.081329 310.57747,17 307.49353,17 Z"
     id="Fill-11"
     fill="#303e51"
     style="fill-rule:evenodd;stroke:none;stroke-width:1" />
  <path
     d="m 7.4993832,159.92764 c -1.4174686,0 -2.5721688,1.15451 -2.5721688,2.57174 0,1.41847 1.1547002,2.57298 2.5721688,2.57298 1.4187022,0 2.5734028,-1.15451 2.5734028,-2.57298 0,-1.41723 -1.1547006,-2.57174 -2.5734028,-2.57174 m 0,10.07236 C 3.362941,170 0,166.63514 0,162.49938 0,158.36485 3.362941,155 7.4993832,155 11.635825,155 15,158.36485 15,162.49938 15,166.63514 11.635825,170 7.4993832,170"
     id="Fill-12"
     fill="#303e51"
     style="fill-rule:evenodd;stroke:none;stroke-width:1" />
  <path
     d="m 287.01574,214.89372 4.36983,1.32736 -1.01923,-4.39404 z M 294.62186,222 c -0.23457,0 -0.47032,-0.034 -0.70013,-0.10328 l -12.24265,-3.71686 c -0.81205,-0.24646 -1.43002,-0.90252 -1.61933,-1.71818 -0.18932,-0.81567 0.0786,-1.67124 0.70012,-2.24045 l 9.38857,-8.59443 c 0.62154,-0.57038 1.50741,-0.7699 2.31827,-0.52226 0.81324,0.24646 1.42883,0.90251 1.61815,1.71818 l 2.85527,12.31012 c 0.18932,0.81802 -0.0774,1.67124 -0.70013,2.24045 C 295.79349,221.78171 295.21363,222 294.62186,222 Z"
     id="Fill-13"
     fill="#303e51"
     style="fill-rule:evenodd;stroke:none;stroke-width:1" />
  <path
     d="m 344.3079,104.23967 3.77226,2.81249 0.54887,-4.67603 z M 350.01714,114 c -0.51824,0 -1.03281,-0.16551 -1.46162,-0.4855 l -10.57066,-7.88207 c -0.70079,-0.52228 -1.07079,-1.37927 -0.96788,-2.24852 0.10169,-0.86924 0.65914,-1.61834 1.46162,-1.96408 l 12.10701,-5.220382 c 0.80003,-0.345737 1.7287,-0.236621 2.42949,0.285662 0.70202,0.52351 1.07079,1.380496 0.96787,2.249743 l -1.53512,13.101227 c -0.10169,0.86925 -0.66036,1.61834 -1.46284,1.96408 C 350.67382,113.9338 350.34548,114 350.01714,114 Z"
     id="Fill-14"
     fill="#303e51"
     style="fill-rule:evenodd;stroke:none;stroke-width:1" />
  <path
     d="m 100.48319,18 c -1.025271,0 -1.98882,-0.611781 -2.362904,-1.598918 L 93.153917,3.2709441 c -0.477366,-1.2637788 0.192709,-2.66161329 1.497594,-3.12349581 1.302365,-0.45822646 2.749577,0.18645917 3.228203,1.45023801 l 4.966366,13.1301377 c 0.47737,1.263779 -0.19271,2.661614 -1.49759,3.123496 C 101.06257,17.951252 100.77162,18 100.48319,18"
     id="Fill-15"
     fill="#303e51"
     style="fill-rule:evenodd;stroke:none;stroke-width:1" />
  <path
     d="M 91.435114,14 C 90.44313,14 89.51086,13.367646 89.14892,12.347313 88.687051,11.043555 89.335374,9.5974546 90.597899,9.1200399 L 103.72889,4.1519028 c 1.26131,-0.4723761 2.66032,0.1927295 3.12219,1.4990069 0.46187,1.303758 -0.18645,2.7498588 -1.44898,3.2272736 L 92.272329,13.84632 C 91.995695,13.949613 91.714186,14 91.435114,14"
     id="Fill-16"
     fill="#303e51"
     style="fill-rule:evenodd;stroke:none;stroke-width:1" />
  <path
     d="m 196.53068,237 c -0.70996,0 -1.41497,-0.28769 -1.9023,-0.84435 l -9.05877,-10.32866 c -0.87199,-0.99288 -0.72604,-2.46522 0.32282,-3.28852 1.05133,-0.82447 2.60854,-0.68648 3.47929,0.30639 l 9.05878,10.32867 c 0.87199,0.99287 0.72604,2.46522 -0.32406,3.28852 C 197.64509,236.82458 197.08603,237 196.53068,237"
     id="Fill-17"
     fill="#303e51"
     style="fill-rule:evenodd;stroke:none;stroke-width:1" />
  <path
     d="m 186.49282,237 c -0.716,0 -1.42701,-0.30426 -1.91848,-0.89299 -0.8794,-1.05007 -0.73221,-2.60724 0.32682,-3.47797 l 11.01686,-9.05977 c 1.05903,-0.87073 2.63073,-0.72726 3.50764,0.32529 0.8794,1.05006 0.73221,2.60723 -0.32682,3.47796 l -11.01686,9.05854 C 187.6167,236.81448 187.05289,237 186.49282,237"
     id="Fill-18"
     fill="#303e51"
     style="fill-rule:evenodd;stroke:none;stroke-width:1" />
  <g
     id="g1008"
     transform="translate(-2.1965656,-5.1098032)">
    <g
       id="Admin"
       transform="translate(74,30)"
       style="fill:none;fill-rule:evenodd;stroke:none;stroke-width:1">
      <g
         id="Group-32"
         transform="translate(6)">
        <path
           d="m 42.746243,95.847685 c 10.704981,0 19.317851,-14.564905 19.317851,-26.629238 0,-0.135427 -0.01126,-0.259569 -0.01126,-0.391772 C 60.792104,64.351118 58.307622,58.319758 53.53002,53.552388 48.491909,59.006569 39.227766,65.297499 23.576335,64.610688 23.473418,66.031064 23.43,67.562685 23.43,69.218447 c 0,12.064333 8.61287,26.629238 19.316243,26.629238 z M 63.805644,82.646728 c -3.946226,9.705638 -11.784002,17.708762 -21.059401,17.708762 -9.252886,0 -17.079406,-7.967655 -21.036888,-17.641048 -2.933136,-0.46271 -5.723152,-2.739182 -6.16055,-8.107915 -0.429357,-5.115612 1.268774,-7.213127 3.428424,-8.035365 0.358602,-9.402538 2.629209,-15.195287 5.980445,-18.771218 2.080855,-2.713387 5.578426,-5.352611 7.828128,-6.729457 17.696908,-10.821302 26.758433,4.60131 26.758433,4.60131 0,0 12.132954,3.517891 7.736467,21.484605 1.572701,1.105992 2.65333,3.258321 2.304377,7.463023 -0.416492,5.118837 -2.991027,7.430778 -5.779435,8.027303 z"
           id="Fill-1"
           fill="#303e51" />
        <path
           d="m 36.618497,114.08606 1.238221,-5.1398 c 0.143119,-0.58685 0.448654,-1.09309 0.863539,-1.48809 -0.135079,-0.0903 -0.258901,-0.18057 -0.381115,-0.28052 L 27.273951,97.989535 20.539317,99.567911 C 9.138038,102.25066 1.0992518,111.90955 1.0992518,122.99042 c 0,0 -2.1274883,19.68213 0.9101726,19.68213 H 35.190523 l 4.349854,-24.8445 c -1.953816,-0.021 -3.38179,-1.82666 -2.92188,-3.74199"
           id="Fill-3"
           fill="#303e51" />
        <path
           d="M 64.536998,99.568072 57.902064,97.989697 46.84009,107.17781 c -0.123822,0.1 -0.234779,0.19024 -0.36021,0.28053 0.414885,0.39499 0.72042,0.90123 0.865147,1.48809 l 1.236612,5.13979 c 0.459911,1.91533 -0.966455,3.72103 -2.923487,3.75489 l 4.351461,24.84288 h 28.504806 c 3.045702,0 5.351687,-2.28775 5.351687,-5.14946 v -14.54395 c 0.0096,-11.08087 -7.916573,-20.73975 -19.329108,-23.422508"
           id="Fill-5"
           fill="#303e51" />
        <path
           d="M 128.35602,50.947666 H 46.926122 c -3.177564,0 -5.763354,2.576346 -5.763354,5.744383 v 59.833161 c 0,3.16803 2.58579,5.74438 5.763354,5.74438 H 76.45849 v 8.3562 h -1.863763 c -5.515711,0 -10.005467,4.47394 -10.005467,9.97165 0,1.24948 1.017914,2.26519 2.270608,2.26519 h 41.562402 c 1.2527,0 2.27222,-1.01571 2.27222,-2.26519 0,-5.49771 -4.48815,-9.97165 -10.00707,-9.97165 h -1.860553 v -8.3562 h 29.529153 c 3.17756,0 5.76175,-2.57635 5.76175,-5.74438 V 56.692049 c 0,-3.168037 -2.58419,-5.744383 -5.76175,-5.744383"
           id="Fill-7"
           fill="#ffffff" />
        <g
           id="Group-11"
           transform="translate(237.15976,0.499311)">
          <mask
             id="mask-2"
             fill="#ffffff">
            <use
               xlink:href="#path-1"
               id="use25"
               x="0"
               y="0"
               width="100%"
               height="100%" />
          </mask>
          <g
             id="Clip-10" />
        </g>
        <path
           d="m 100.68725,135.24354 c 2.17895,0 4.1006,1.27689 4.97379,3.20351 H 69.622386 c 0.874795,-1.92662 2.794841,-3.20351 4.97218,-3.20351 h 4.134371 17.827162 z M 88.975615,123.40492 c 0,0.73679 -0.598205,1.33654 -1.334705,1.33654 -0.733284,0 -1.331489,-0.59975 -1.331489,-1.33654 v -1.11727 h 2.666194 z m 5.309877,7.28729 H 80.999544 v -8.40456 h 0.767054 v 1.11727 c 0,3.24865 2.635641,5.8911 5.874312,5.8911 3.240279,0 5.87592,-2.64245 5.87592,-5.8911 v -1.11727 h 0.768662 z M 96.556099,117.7347 H 91.246223 84.037205 78.728937 46.925961 c -0.673785,0 -1.220532,-0.55138 -1.220532,-1.2269 V 56.326394 c 0,-0.675525 0.546747,-1.225296 1.220532,-1.225296 h 81.429899 c 0.67378,0 1.22214,0.549771 1.22214,1.225296 V 116.5078 c 0,0.67552 -0.54836,1.2269 -1.22214,1.2269 z M 128.35586,50.548155 H 46.925961 c -3.175955,0 -5.763354,2.590857 -5.763354,5.778239 V 116.5078 c 0,3.18577 2.587399,5.77985 5.763354,5.77985 H 76.45833 v 8.40456 h -1.863764 c -5.51571,0 -10.005466,4.49974 -10.005466,10.0297 0,1.25593 1.019521,2.27808 2.270607,2.27808 h 41.564013 c 1.25109,0 2.27061,-1.02215 2.27061,-2.27808 0,-5.52996 -4.48815,-10.0297 -10.00708,-10.0297 h -1.860544 v -8.40456 h 29.529154 c 3.17756,0 5.76174,-2.59408 5.76174,-5.77985 V 56.326394 c 0,-3.187382 -2.58418,-5.778239 -5.76174,-5.778239 z"
           id="Fill-31"
           fill="#303e51" />
      </g>
      <path
         d="m 96.875078,86.730185 c 0,2.058479 -1.659567,3.730185 -3.710283,3.730185 -2.049106,0 -3.708673,-1.671706 -3.708673,-3.730185 0,-2.058479 1.659567,-3.730185 3.708673,-3.730185 2.050716,0 3.710283,1.671706 3.710283,3.730185 z M 167.34167,149 H 2.6533333 C 1.1883333,149 0,147.45614 0,145.55302 0,143.64828 1.1883333,142.1028 2.6533333,142.1028 H 167.34167 c 1.46833,0 2.65833,1.54548 2.65833,3.45022 0,1.90312 -1.19,3.44698 -2.65833,3.44698 z"
         id="Fill-47"
         fill="#303e51" />
      <g
         id="Page-1"
         transform="translate(146,82)">
        <path
           d="m 43.804671,25.336905 c -10.443664,0 -15.829444,4.163639 -15.829444,5.940525 0,2.015762 6.009947,5.718998 15.829444,5.718998 10.443663,0 15.828797,-4.164306 15.828797,-5.941192 0,-2.015095 -6.009947,-5.718331 -15.828797,-5.718331 m 0,15.746428 c -11.093649,0 -19.782932,-4.30643 -19.782932,-9.805903 0,-5.530166 8.874532,-10.02743 19.782932,-10.02743 11.093003,0 19.782285,4.30643 19.782285,9.805236 0,5.530166 -8.874531,10.028097 -19.782285,10.028097"
           id="path33"
           fill="#303e51" />
        <g
           id="Group-5"
           transform="translate(24.021739,51)">
          <mask
             id="mask-4"
             fill="#ffffff">
            <use
               xlink:href="#path-3"
               id="use35"
               x="0"
               y="0"
               width="100%"
               height="100%" />
          </mask>
          <g
             id="Clip-4" />
          <path
             d="m 4.4842576,6.6167269 v 0.7748077 c 0,1.9746154 6.0569774,5.6034614 15.9516014,5.6034614 10.524258,0 15.951601,-4.0799998 15.951601,-5.8205383 V 6.6167269 c -4.021073,2.2773462 -9.812668,3.6465001 -15.951601,3.6465001 -6.138934,0 -11.9305282,-1.3691539 -15.9516014,-3.6465001 M 20.435859,16.999804 c -11.1786097,0 -19.93559899,-4.219923 -19.93559899,-9.6082694 V 2.6112654 c 0,-0.8231923 0.50019499,-1.5620385 1.26121979,-1.8641154 0.7616753,-0.30142308 1.6293737,-0.10330769 2.1874586,0.4969231 2.3168979,2.4963846 8.3133836,5.0143461 16.4869206,5.0143461 8.173537,0 14.170022,-2.5179615 16.48757,-5.0143461 0.557435,-0.60023079 1.424483,-0.79834618 2.186158,-0.4969231 0.762326,0.3020769 1.26187,1.0409231 1.26187,1.8641154 v 4.5631923 c 0,5.4184233 -8.943017,9.8253463 -19.935598,9.8253463"
             id="path39"
             fill="#303e51"
             mask="url(#mask-4)" />
        </g>
        <g
           id="Group-8"
           transform="translate(24.021739,38.25)">
          <mask
             id="mask-6"
             fill="#ffffff">
            <use
               xlink:href="#path-5"
               id="use42"
               x="0"
               y="0"
               width="100%"
               height="100%" />
          </mask>
          <g
             id="Clip-7" />
          <path
             d="m 4.4842576,6.1736154 v 0.8055385 c 0,1.7411922 5.4279934,5.8211921 15.9516014,5.8211921 10.524258,0 15.951601,-4.0799999 15.951601,-5.8211921 V 6.1298077 C 32.376143,8.3626923 26.726347,9.6337692 20.435859,9.6337692 14.14537,9.6337692 8.4350823,8.3581154 4.4842576,6.1736154 M 20.435859,16.805154 c -10.9925814,0 -19.93559899,-4.406923 -19.93559899,-9.8260001 V 2.1982308 c 0,-0.8231923 0.50019499,-1.56203849 1.26121979,-1.86411541 0.7584231,-0.30142308 1.6293737,-0.1033077 2.1874586,0.49692307 2.663587,2.86973074 9.2897066,4.79792304 16.4869206,4.79792304 7.225183,0 13.559901,-1.8575769 16.535053,-4.8469615 0.569793,-0.57473077 1.428385,-0.74538462 2.171198,-0.43480769 0.744763,0.30992307 1.229347,1.04092309 1.229347,1.85103849 v 4.7809231 c 0,5.4190771 -8.943017,9.8260001 -19.935598,9.8260001"
             id="Fill-6"
             fill="#303e51"
             mask="url(#mask-6)" />
        </g>
        <path
           d="m 10.411403,47.566379 c -1.233983,0 -2.2382209,1.021881 -2.2382209,2.2776 0,1.253737 1.0042379,2.272976 2.2382209,2.272976 1.237236,0 2.244078,-1.019239 2.244078,-2.272976 0,-1.255719 -1.006842,-2.2776 -2.244078,-2.2776 z M 3.2541735,44.3891 v 9.473047 c 0,1.374619 0.8617051,2.335068 2.0956877,2.335068 H 19.354522 V 44.3891 h -7.779427 c 2.475124,0.543638 4.334559,2.782926 4.334559,5.454879 0,3.074893 -2.466663,5.575761 -5.498251,5.575761 -3.0283342,0 -5.4923944,-2.500868 -5.4923944,-5.575761 0,-2.671953 1.8574822,-4.911241 4.3300033,-5.454879 H 3.4012621 c -0.048813,6.61e-4 -0.098276,6.61e-4 -0.1470886,0 z M 22.608696,59.5 H 5.3498612 C 2.3000498,59.5 0,57.076417 0,53.862147 V 43.579918 c 0,-0.502023 0,-1.677154 1.1623908,-2.231361 0.5493044,-0.262242 1.122039,-0.274132 2.2030754,-0.262242 H 22.608696 Z"
           id="Fill-9"
           fill="#303e51" />
        <g
           id="Group-13">
          <mask
             id="mask-8"
             fill="#ffffff">
            <use
               xlink:href="#path-7"
               id="use49"
               x="0"
               y="0"
               width="100%"
               height="100%" />
          </mask>
          <g
             id="Clip-12" />
          <path
             d="m 10.38034,7.1986043 c -1.2265899,0 -2.2248114,0.9871882 -2.2248114,2.2002204 0,1.2175113 0.9982215,2.2072583 2.2248114,2.2072583 1.229825,0 2.230634,-0.989747 2.230634,-2.2072583 0,-1.2130322 -1.000809,-2.2002204 -2.230634,-2.2002204 z m 0,7.6064037 c -3.0101912,0 -5.4594893,-2.424785 -5.4594893,-5.4061833 0,-2.9769193 2.4492981,-5.3991451 5.4594893,-5.3991451 3.013426,0 5.465312,2.4222258 5.465312,5.3991451 0,2.9813983 -2.451886,5.4061833 -5.465312,5.4061833 z M 5.349122,3.2850398 c -1.2265898,0 -2.0831325,0.9142527 -2.0831325,2.2226129 v 9.9595323 c 0,0.529742 0.1293871,0.717839 0.8578366,0.717839 H 50.302087 c 0.02394,-0.145871 0.04528,-0.371076 0.04528,-0.717839 V 5.5076527 c 0,-1.4747043 -0.53825,-2.2226129 -1.598577,-2.2226129 z M 50.640434,19.383948 H 4.1238261 c -2.8271085,0 -4.09251442,-1.967338 -4.09251442,-3.916763 V 5.5076527 c 0,-3.0908011 2.28627032,-5.42153765 5.31781032,-5.42153765 h 43.399673 c 2.890508,0 4.833255,2.17846775 4.833255,5.42153765 v 9.9595323 c 0,3.534812 -2.056608,3.916763 -2.941616,3.916763 z"
             id="path53"
             fill="#303e51"
             mask="url(#mask-8)" />
        </g>
        <g
           id="Group-16"
           transform="translate(0,21.25)">
          <mask
             id="mask-10"
             fill="#ffffff">
            <use
               xlink:href="#path-9"
               id="use56"
               x="0"
               y="0"
               width="100%"
               height="100%" />
          </mask>
          <g
             id="Clip-15" />
          <path
             d="m 10.545511,6.893753 c -1.2461076,0 -2.2602127,1.0175208 -2.2602127,2.2678809 0,1.2477291 1.0141051,2.2626191 2.2602127,2.2626191 1.249393,0 2.266127,-1.01489 2.266127,-2.2626191 0,-1.2503601 -1.016734,-2.2678809 -2.266127,-2.2678809 z m 0,7.819191 c -3.0580894,0 -5.5463603,-2.490197 -5.5463603,-5.5513101 0,-3.063744 2.4882709,-5.5565714 5.5463603,-5.5565714 3.061375,0 5.552275,2.4928274 5.552275,5.5565714 0,3.0611131 -2.4909,5.5513101 -5.552275,5.5513101 z M 3.3041557,15.056941 H 3.3304449 19.576501 V 9.5898214 c 0,-2.2264434 1.445905,-4.4285506 4.103084,-6.2899494 H 3.2883822 c 0.00263,0.09603 0.00854,0.1927173 0.012487,0.2683572 0.0092,0.1690387 0.017088,0.3282113 0.017088,0.4715982 V 14.277521 c 0,0.109184 -0.00394,0.227577 -0.00789,0.353205 -0.0046,0.119051 -0.0092,0.286774 -0.00592,0.426215 z m 19.5584933,3.28869 H 3.3304449 c -1.0390799,0 -1.8658746,-0.31111 -2.45869566,-0.924122 -0.91157735,-0.943854 -0.86885743,-2.217235 -0.8458544,-2.901283 0.0026289,-0.08616 0.0059151,-0.167723 0.0059151,-0.242705 V 4.0398274 c 0,-0.088137 -0.0065723,-0.1861399 -0.01248736,-0.2894048 C -0.01945399,3.0348036 -0.08649141,1.8377202 0.78762386,0.91294048 1.3541557,0.31505655 2.1487462,0.01118155 3.1497068,0.01118155 H 24.994702 c 1.32366,0 2.44818,0.85966369 2.798483,2.13764885 0.348332,1.2746964 -0.178109,2.5822797 -1.312487,3.2551458 -2.265471,1.3444167 -3.618049,2.9085179 -3.618049,4.1858452 z"
             id="path60"
             fill="#303e51"
             mask="url(#mask-10)" />
        </g>
      </g>
    </g>
  </g>
</svg>
