<?xml version="1.0" encoding="UTF-8" standalone="no"?>
<svg width="354px" height="237px" viewBox="0 0 354 237" version="1.1" xmlns="http://www.w3.org/2000/svg" xmlns:xlink="http://www.w3.org/1999/xlink">
    <!-- Generator: Sketch 48.2 (47327) - http://www.bohemiancoding.com/sketch -->
    <title>Group</title>
    <desc>Created with Sketch.</desc>
    <defs>
        <polygon id="path-1" points="42.7411279 0.298021105 42.7411279 24.5472012 0.798813172 24.5472012 0.798813172 0.298021105 42.7411279 0.298021105"></polygon>
        <polygon id="path-3" points="0.500260007 0.607939311 40.3713923 0.607939311 40.3713923 16.9998038 0.500260007 16.9998038"></polygon>
        <polygon id="path-5" points="0.500260007 0.194163495 40.3713923 0.194163495 40.3713923 16.8051538 0.500260007 16.8051538"></polygon>
        <polygon id="path-7" points="0.0313116815 0.0863709677 53.5820503 0.0863709677 53.5820503 19.3839484 0.0313116815 19.3839484"></polygon>
        <polygon id="path-9" points="0 0.0111815476 27.8994216 0.0111815476 27.8994216 18.345631 0 18.345631"></polygon>
    </defs>
    <g id="Client-token-Copy" stroke="none" stroke-width="1" fill="none" fill-rule="evenodd" transform="translate(-1048.000000, -401.000000)">
        <g id="Group" transform="translate(1048.000000, 401.000000)">
            <path d="M312.245832,11.1884976 L312.258163,11.1884976 L312.245832,11.1884976 Z M307.498464,6.92944187 C307.123607,6.92944187 306.747516,7.01329126 306.397321,7.17975695 C305.77708,7.47446289 305.308509,7.99358925 305.079156,8.64095585 C304.848569,9.28832245 304.884329,9.9862453 305.179035,10.6064842 C305.473742,11.226723 305.99287,11.6952931 306.640238,11.9258789 C307.9769,12.3993814 309.447967,11.6989924 309.92517,10.3635675 C310.399907,9.02690965 309.699516,7.55337996 308.362855,7.07864446 C308.080479,6.97876504 307.789471,6.92944187 307.498464,6.92944187 L307.498464,6.92944187 Z M307.493531,17 C306.663667,17 305.817772,16.860662 304.990374,16.5659561 C303.103757,15.895161 301.589532,14.5301423 300.730073,12.7224481 C299.870614,10.9122878 299.765802,8.87770706 300.437832,6.98986275 C301.107396,5.10325152 302.472419,3.59149637 304.281351,2.73080707 C306.090283,1.87135084 308.12487,1.76530602 310.011486,2.43733421 C313.908027,3.82208219 315.951245,8.11813025 314.566493,12.0121945 L314.566493,12.0134276 C313.475215,15.0813287 310.577471,17 307.493531,17 L307.493531,17 Z" id="Fill-11" fill="#303E51"></path>
            <path d="M7.49938317,159.927638 C6.08191463,159.927638 4.92721441,161.082148 4.92721441,162.499383 C4.92721441,163.917852 6.08191463,165.072362 7.49938317,165.072362 C8.91808537,165.072362 10.0727856,163.917852 10.0727856,162.499383 C10.0727856,161.082148 8.91808537,159.927638 7.49938317,159.927638 M7.49938317,170 C3.36294103,170 0,166.635145 0,162.499383 C0,158.364855 3.36294103,155 7.49938317,155 C11.6358253,155 15,158.364855 15,162.499383 C15,166.635145 11.6358253,170 7.49938317,170" id="Fill-12" fill="#303E51"></path>
            <path d="M287.015744,214.893718 L291.385569,216.221085 L290.36634,211.827043 L287.015744,214.893718 Z M294.621858,222 C294.387293,222 294.151536,221.965965 293.921734,221.896721 L281.679081,218.17986 C280.867032,217.933399 280.249065,217.277345 280.059746,216.461677 C279.870426,215.64601 280.138331,214.790439 280.75987,214.221233 L290.148444,205.626798 C290.769983,205.056417 291.655855,204.856902 292.466713,205.104536 C293.279953,205.350997 293.895539,206.007051 294.084858,206.822719 L296.940127,219.132841 C297.129447,219.950856 296.862733,220.804079 296.240003,221.373286 C295.793495,221.781706 295.21363,222 294.621858,222 L294.621858,222 Z" id="Fill-13" fill="#303E51"></path>
            <path d="M344.307901,104.239673 L348.080163,107.052157 L348.629034,102.376126 L344.307901,104.239673 Z M350.017138,114 C349.498896,114 348.98433,113.834488 348.555525,113.514497 L337.984859,105.632429 C337.284069,105.110145 336.914071,104.253159 337.016984,103.383912 C337.118673,102.514666 337.67612,101.765569 338.478598,101.419832 L350.585612,96.1994483 C351.38564,95.8537113 352.31431,95.9628269 353.0151,96.4851104 C353.717116,97.00862 354.085889,97.8656064 353.982975,98.734853 L352.447852,111.836079 C352.346164,112.705325 351.787492,113.454422 350.985013,113.800159 C350.673823,113.933795 350.345481,114 350.017138,114 L350.017138,114 Z" id="Fill-14" fill="#303E51"></path>
            <path d="M100.483185,18 C99.4579185,18 98.4943698,17.3882189 98.1202861,16.4010821 L93.1539168,3.27094409 C92.6765508,2.00716526 93.3466265,0.609330815 94.6515108,0.147448291 C95.953876,-0.310778171 97.4010884,0.333907463 97.8797139,1.5976863 L102.846083,14.7278243 C103.323449,15.9916032 102.653373,17.3894376 101.348489,17.8513201 C101.062573,17.9512525 100.77162,18 100.483185,18" id="Fill-15" fill="#303E51"></path>
            <path d="M91.4351141,14 C90.4431302,14 89.5108604,13.3676458 89.1489203,12.3473134 C88.6870507,11.0435554 89.3353743,9.59745464 90.5978992,9.12003985 L103.72889,4.15190282 C104.990196,3.67952671 106.38921,4.34463228 106.85108,5.65090969 C107.312949,6.95466775 106.664626,8.40076849 105.402101,8.87818328 L92.272329,13.8463203 C91.9956947,13.9496132 91.7141857,14 91.4351141,14" id="Fill-16" fill="#303E51"></path>
            <path d="M196.530678,237 C195.82072,237 195.115708,236.712313 194.628384,236.15565 L185.569606,225.826986 C184.697618,224.834115 184.843568,223.361766 185.892427,222.538466 C186.94376,221.713998 188.500969,221.851994 189.37172,222.844865 L198.430499,233.173529 C199.302486,234.1664 199.156537,235.638749 198.106441,236.462049 C197.645091,236.824581 197.086029,237 196.530678,237" id="Fill-17" fill="#303E51"></path>
            <path d="M186.492816,237 C185.776819,237 185.065812,236.69574 184.574344,236.107009 C183.694941,235.056941 183.842132,233.499773 184.901158,232.629045 L195.918022,223.56927 C196.977048,222.698543 198.548747,222.842015 199.425656,223.894556 C200.305059,224.944625 200.157868,226.501793 199.098842,227.372521 L188.081978,236.431059 C187.616705,236.814476 187.052889,237 186.492816,237" id="Fill-18" fill="#303E51"></path>
            <g id="Admin" transform="translate(74.000000, 30.000000)">
                <g id="Group-32" transform="translate(6.000000, 0.000000)">
                    <path d="M42.7462428,95.847685 C53.4512238,95.847685 62.0640941,81.2827801 62.0640941,69.2184472 C62.0640941,69.0830197 62.0528376,68.9588779 62.0528376,68.8266748 C60.7921037,64.3511185 58.3076219,58.3197582 53.5300196,53.5523878 C48.4919086,59.006569 39.2277663,65.2974987 23.5763348,64.6106879 C23.4734177,66.0310643 23.4299996,67.5626848 23.4299996,69.2184472 C23.4299996,81.2827801 32.04287,95.847685 42.7462428,95.847685 Z M63.8056435,82.6467285 C59.859418,92.3523658 52.0216417,100.355486 42.7462428,100.355486 C33.4933571,100.355486 25.6668373,92.3878349 21.7093552,82.7144422 C18.7762194,82.2517316 15.9862026,79.9752599 15.5488051,74.6065269 C15.1194481,69.4909145 16.8175794,67.3934005 18.9772293,66.5711621 C19.3358308,57.1686244 21.6064382,51.3758745 24.9576745,47.7999437 C27.0385286,45.086557 30.5361001,42.447333 32.7858024,41.0704868 C50.4827102,30.2491849 59.5442346,45.6717973 59.5442346,45.6717973 C59.5442346,45.6717973 71.6771895,49.1896877 67.2807019,67.1564024 C68.8534031,68.2623936 69.934032,70.4147234 69.5850789,74.6194248 C69.1685865,79.7382617 66.5940523,82.0502026 63.8056435,82.6467285 Z" id="Fill-1" fill="#303E51"></path>
                    <path d="M36.6184975,114.086061 L37.8567183,108.946265 C37.9998373,108.359412 38.3053723,107.853171 38.7202566,107.458175 C38.585178,107.36789 38.4613559,107.277605 38.3391419,107.177646 L27.2739513,97.9895353 L20.5393171,99.5679106 C9.13803797,102.250665 1.09925177,111.909547 1.09925177,122.990419 C1.09925177,122.990419 -1.02823655,142.672548 2.00942441,142.672548 L35.1905235,142.672548 L39.5403768,117.828051 C37.586561,117.807092 36.158587,116.001392 36.6184975,114.086061" id="Fill-3" fill="#303E51"></path>
                    <path d="M64.5369978,99.5680718 L57.9020644,97.9896966 L46.84009,107.177807 C46.7162679,107.277766 46.6053105,107.368051 46.4798803,107.458336 C46.8947647,107.853333 47.2002996,108.359573 47.3450267,108.946426 L48.5816394,114.086222 C49.0415499,116.001554 47.615184,117.807254 45.658152,117.841111 L50.0096134,142.683995 L78.5144192,142.683995 C81.5601206,142.683995 83.8661056,140.396238 83.8661056,137.534526 L83.8661056,122.99058 C83.8757541,111.909709 75.9495334,102.250826 64.5369978,99.5680718" id="Fill-5" fill="#303E51"></path>
                    <path d="M128.356019,50.9476656 L46.9261222,50.9476656 C43.7485584,50.9476656 41.1627676,53.5240125 41.1627676,56.6920486 L41.1627676,116.525207 C41.1627676,119.693243 43.7485584,122.26959 46.9261222,122.26959 L76.4584904,122.26959 L76.4584904,130.625789 L74.594727,130.625789 C69.0790165,130.625789 64.5892604,135.099733 64.5892604,140.597444 C64.5892604,141.846924 65.6071743,142.86263 66.8598677,142.86263 L108.422274,142.86263 C109.674967,142.86263 110.694489,141.846924 110.694489,140.597444 C110.694489,135.099733 106.206341,130.625789 100.687415,130.625789 L98.8268673,130.625789 L98.8268673,122.26959 L128.356019,122.26959 C131.533583,122.26959 134.117766,119.693243 134.117766,116.525207 L134.117766,56.6920486 C134.117766,53.5240125 131.533583,50.9476656 128.356019,50.9476656" id="Fill-7" fill="#FFFFFF"></path>
                    <g id="Group-11" transform="translate(237.159760, 0.499311)">
                        <mask id="mask-2" fill="white">
                            <use xlink:href="#path-1"></use>
                        </mask>
                        <g id="Clip-10"></g>
                    </g>
                    <path d="M100.687254,135.243544 C102.866201,135.243544 104.787855,136.520432 105.661042,138.447049 L69.6223864,138.447049 C70.4971813,136.520432 72.4172274,135.243544 74.5945662,135.243544 L78.7289369,135.243544 L96.5560991,135.243544 L100.687254,135.243544 Z M88.9756154,123.404924 C88.9756154,124.141714 88.3774101,124.741464 87.6409099,124.741464 C86.907626,124.741464 86.3094206,124.141714 86.3094206,123.404924 L86.3094206,122.287647 L88.9756154,122.287647 L88.9756154,123.404924 Z M94.2854918,130.692213 L80.9995443,130.692213 L80.9995443,122.287647 L81.7665979,122.287647 L81.7665979,123.404924 C81.7665979,126.653571 84.4022391,129.29602 87.6409099,129.29602 C90.8811888,129.29602 93.5168301,126.653571 93.5168301,123.404924 L93.5168301,122.287647 L94.2854918,122.287647 L94.2854918,130.692213 Z M96.5560991,117.734703 L91.2462227,117.734703 L84.0372052,117.734703 L78.7289369,117.734703 L46.9259614,117.734703 C46.2521764,117.734703 45.7054295,117.18332 45.7054295,116.507795 L45.7054295,56.3263944 C45.7054295,55.6508691 46.2521764,55.101098 46.9259614,55.101098 L128.355858,55.101098 C129.029644,55.101098 129.577998,55.6508691 129.577998,56.3263944 L129.577998,116.507795 C129.577998,117.18332 129.029644,117.734703 128.355858,117.734703 L96.5560991,117.734703 Z M128.355858,50.5481545 L46.9259614,50.5481545 C43.7500057,50.5481545 41.1626068,53.1390115 41.1626068,56.3263944 L41.1626068,116.507795 C41.1626068,119.693565 43.7500057,122.287647 46.9259614,122.287647 L76.4583296,122.287647 L76.4583296,130.692213 L74.5945662,130.692213 C69.0788557,130.692213 64.5890995,135.191952 64.5890995,140.721909 C64.5890995,141.977837 65.6086215,142.999993 66.8597069,142.999993 L108.423721,142.999993 C109.674806,142.999993 110.694328,141.977837 110.694328,140.721909 C110.694328,135.191952 106.20618,130.692213 100.687254,130.692213 L98.8267065,130.692213 L98.8267065,122.287647 L128.355858,122.287647 C131.533422,122.287647 134.117605,119.693565 134.117605,116.507795 L134.117605,56.3263944 C134.117605,53.1390115 131.533422,50.5481545 128.355858,50.5481545 Z" id="Fill-31" fill="#303E51"></path>
                </g>
                <path d="M96.8750775,86.730185 C96.8750775,88.7886645 95.2155108,90.46037 93.1647949,90.46037 C91.1156887,90.46037 89.4561219,88.7886645 89.4561219,86.730185 C89.4561219,84.6717055 91.1156887,83 93.1647949,83 C95.2155108,83 96.8750775,84.6717055 96.8750775,86.730185 Z M167.341667,149 L2.65333333,149 C1.18833333,149 0,147.45614 0,145.553018 C0,143.648277 1.18833333,142.102799 2.65333333,142.102799 L167.341667,142.102799 C168.81,142.102799 170,143.648277 170,145.553018 C170,147.45614 168.81,149 167.341667,149 Z" id="Fill-47" fill="#303E51"></path>
                <g id="Page-1" transform="translate(146.000000, 82.000000)">
                    <path d="M43.8046706,25.3369051 C33.3610075,25.3369051 27.9752272,29.5005439 27.9752272,31.2774301 C27.9752272,33.2931918 33.9851745,36.9964283 43.8046706,36.9964283 C54.2483337,36.9964283 59.6334685,32.8321222 59.6334685,31.0552359 C59.6334685,29.0401415 53.6235212,25.3369051 43.8046706,25.3369051 M43.8046706,41.0833333 C32.7110217,41.0833333 24.0217391,36.7769031 24.0217391,31.2774301 C24.0217391,25.7472637 32.8962709,21.25 43.8046706,21.25 C54.8976739,21.25 63.5869565,25.5564303 63.5869565,31.0552359 C63.5869565,36.5854024 54.7124248,41.0833333 43.8046706,41.0833333" id="Fill-1" fill="#303E51"></path>
                    <g id="Group-5" transform="translate(24.021739, 51.000000)">
                        <mask id="mask-4" fill="white">
                            <use xlink:href="#path-3"></use>
                        </mask>
                        <g id="Clip-4"></g>
                        <path d="M4.48425759,6.61672692 L4.48425759,7.39153462 C4.48425759,9.36615 10.5412348,12.9949962 20.4358587,12.9949962 C30.9601168,12.9949962 36.3874598,8.91499615 36.3874598,7.17445769 L36.3874598,6.61672692 C32.3663866,8.89407308 26.5747924,10.2632269 20.4358587,10.2632269 C14.2969249,10.2632269 8.50533075,8.89407308 4.48425759,6.61672692 M20.4358587,16.9998038 C9.25724931,16.9998038 0.500260007,12.7798808 0.500260007,7.39153462 L0.500260007,2.61126538 C0.500260007,1.78807308 1.00045497,1.04922692 1.76147981,0.74715 C2.52315511,0.445726923 3.39085352,0.643842308 3.94893841,1.24407308 C6.26583627,3.74045769 12.2623218,6.25841923 20.4358587,6.25841923 C28.6093956,6.25841923 34.6058811,3.74045769 36.9234294,1.24407308 C37.4808639,0.643842308 38.3479118,0.445726923 39.1095871,0.74715 C39.8719129,1.04922692 40.3714574,1.78807308 40.3714574,2.61126538 L40.3714574,7.17445769 C40.3714574,12.5928808 31.4284398,16.9998038 20.4358587,16.9998038" id="Fill-3" fill="#303E51" mask="url(#mask-4)"></path>
                    </g>
                    <g id="Group-8" transform="translate(24.021739, 38.250000)">
                        <mask id="mask-6" fill="white">
                            <use xlink:href="#path-5"></use>
                        </mask>
                        <g id="Clip-7"></g>
                        <path d="M4.48425759,6.17361538 L4.48425759,6.97915385 C4.48425759,8.72034615 9.91225104,12.8003462 20.4358587,12.8003462 C30.9601168,12.8003462 36.3874598,8.72034615 36.3874598,6.97915385 L36.3874598,6.12980769 C32.3761434,8.36269231 26.726347,9.63376923 20.4358587,9.63376923 C14.1453704,9.63376923 8.4350823,8.35811538 4.48425759,6.17361538 M20.4358587,16.8051538 C9.44327761,16.8051538 0.500260007,12.3982308 0.500260007,6.97915385 L0.500260007,2.19823077 C0.500260007,1.37503846 1.00045497,0.636192308 1.76147981,0.334115385 C2.51990286,0.0326923077 3.39085352,0.230807692 3.94893841,0.831038462 C6.61252536,3.70076923 13.2386451,5.62896154 20.4358587,5.62896154 C27.6610416,5.62896154 33.9957604,3.77138462 36.9709122,0.782 C37.5407051,0.207269231 38.3992973,0.0366153846 39.1421096,0.347192308 C39.8868732,0.657115385 40.3714574,1.38811538 40.3714574,2.19823077 L40.3714574,6.97915385 C40.3714574,12.3982308 31.4284398,16.8051538 20.4358587,16.8051538" id="Fill-6" fill="#303E51" mask="url(#mask-6)"></path>
                    </g>
                    <path d="M10.4114026,47.5663788 C9.17742004,47.5663788 8.17318211,48.5882604 8.17318211,49.8439791 C8.17318211,51.0977161 9.17742004,52.1169554 10.4114026,52.1169554 C11.6486394,52.1169554 12.6554807,51.0977161 12.6554807,49.8439791 C12.6554807,48.5882604 11.6486394,47.5663788 10.4114026,47.5663788 Z M3.25417348,44.3891001 L3.25417348,53.8621468 C3.25417348,55.2367657 4.11587861,56.1972154 5.3498612,56.1972154 L19.3545222,56.1972154 L19.3545222,44.3891001 L11.5750951,44.3891001 C14.0502194,44.9327384 15.9096541,47.1720264 15.9096541,49.8439791 C15.9096541,52.9188715 13.4429906,55.41974 10.4114026,55.41974 C7.38306879,55.41974 4.91900863,52.9188715 4.91900863,49.8439791 C4.91900863,47.1720264 6.77649085,44.9327384 9.24901186,44.3891001 L3.40126212,44.3891001 C3.35244952,44.3897607 3.30298608,44.3897607 3.25417348,44.3891001 Z M22.6086957,59.5 L5.3498612,59.5 C2.30004981,59.5 0,57.0764167 0,53.8621468 L0,43.5799179 C0,43.0778946 0,41.9027639 1.16239077,41.3485566 C1.71169525,41.0863155 2.28442978,41.0744255 3.36546621,41.0863155 L22.6086957,41.0863155 L22.6086957,59.5 Z" id="Fill-9" fill="#303E51"></path>
                    <g id="Group-13">
                        <mask id="mask-8" fill="white">
                            <use xlink:href="#path-7"></use>
                        </mask>
                        <g id="Clip-12"></g>
                        <path d="M10.38034,7.1986043 C9.15375013,7.1986043 8.15552855,8.18579247 8.15552855,9.39882473 C8.15552855,10.6163355 9.15375013,11.6060828 10.38034,11.6060828 C11.6101645,11.6060828 12.6109738,10.6163355 12.6109738,9.39882473 C12.6109738,8.18579247 11.6101645,7.1986043 10.38034,7.1986043 Z M10.38034,14.8050075 C7.37014877,14.8050075 4.92085071,12.3802226 4.92085071,9.39882473 C4.92085071,6.42190538 7.37014877,3.99967957 10.38034,3.99967957 C13.3937658,3.99967957 15.8456517,6.42190538 15.8456517,9.39882473 C15.8456517,12.3802226 13.3937658,14.8050075 10.38034,14.8050075 Z M5.34912205,3.28503978 C4.12253222,3.28503978 3.26598952,4.19929247 3.26598952,5.50765269 L3.26598952,15.4671849 C3.26598952,15.9969269 3.39537664,16.1850237 4.12382609,16.1850237 L50.302087,16.1850237 C50.3260236,16.0391527 50.3473724,15.8139484 50.3473724,15.4671849 L50.3473724,5.50765269 C50.3473724,4.03294839 49.8091221,3.28503978 48.7487947,3.28503978 L5.34912205,3.28503978 Z M50.6404343,19.3839484 L4.12382609,19.3839484 C1.29671765,19.3839484 0.0313116815,17.4166097 0.0313116815,15.4671849 L0.0313116815,5.50765269 C0.0313116815,2.41685161 2.31758198,0.0861150538 5.34912205,0.0861150538 L48.7487947,0.0861150538 C51.6393028,0.0861150538 53.5820503,2.2645828 53.5820503,5.50765269 L53.5820503,15.4671849 C53.5820503,19.0019968 51.5254421,19.3839484 50.6404343,19.3839484 Z" id="Fill-11" fill="#303E51" mask="url(#mask-8)"></path>
                    </g>
                    <g id="Group-16" transform="translate(0.000000, 21.250000)">
                        <mask id="mask-10" fill="white">
                            <use xlink:href="#path-9"></use>
                        </mask>
                        <g id="Clip-15"></g>
                        <path d="M10.5455106,6.89375298 C9.29940344,6.89375298 8.28529828,7.91127381 8.28529828,9.16163393 C8.28529828,10.4093631 9.29940344,11.424253 10.5455106,11.424253 C11.7949039,11.424253 12.811638,10.4093631 12.811638,9.16163393 C12.811638,7.91127381 11.7949039,6.89375298 10.5455106,6.89375298 Z M10.5455106,14.7129435 C7.48742164,14.7129435 4.99915066,12.222747 4.99915066,9.16163393 C4.99915066,6.09788988 7.48742164,3.6050625 10.5455106,3.6050625 C13.6068857,3.6050625 16.0977856,6.09788988 16.0977856,9.16163393 C16.0977856,12.222747 13.6068857,14.7129435 10.5455106,14.7129435 Z M3.30415571,15.0569405 L3.33044489,15.0569405 L19.5765015,15.0569405 L19.5765015,9.58982143 C19.5765015,7.36337798 21.0224065,5.16127083 23.6795854,3.29987202 L3.2883822,3.29987202 C3.29101112,3.39590179 3.29692619,3.49258929 3.30086957,3.56822917 C3.31007078,3.73726786 3.31795753,3.89644048 3.31795753,4.03982738 L3.31795753,14.2775208 C3.31795753,14.3867054 3.31401416,14.5050982 3.31007078,14.6307262 C3.30547017,14.7497768 3.30086957,14.9175 3.30415571,15.0569405 Z M22.8626491,18.345631 L3.33044489,18.345631 C2.29136502,18.345631 1.46457027,18.0345208 0.871749242,17.4215089 C-0.0398281092,16.4776548 0.00289180991,15.2042738 0.0258948433,14.5202262 C0.0285237614,14.4340625 0.031809909,14.352503 0.031809909,14.2775208 L0.031809909,4.03982738 C0.031809909,3.95169048 0.0252376138,3.8536875 0.019322548,3.75042262 C-0.0194539939,3.03480357 -0.0864914055,1.83772024 0.787623862,0.912940476 C1.35415571,0.315056548 2.14874621,0.0111815476 3.14970677,0.0111815476 L24.9947017,0.0111815476 C26.318362,0.0111815476 27.4428817,0.870845238 27.793185,2.14883036 C28.1415167,3.42352679 27.6150758,4.73111012 26.4806977,5.40397619 C24.2152275,6.74839286 22.8626491,8.31249405 22.8626491,9.58982143 L22.8626491,18.345631 Z" id="Fill-14" fill="#303E51" mask="url(#mask-10)"></path>
                    </g>
                </g>
            </g>
        </g>
    </g>
</svg>